<?xml version="1.0" encoding="utf-8"?>
<svg version="1.1" xmlns:xlink="http://www.w3.org/1999/xlink" width="19px" height="17px" xmlns="http://www.w3.org/2000/svg">
  <g transform="matrix(1 0 0 1 -292 -1707 )">
    <path d="M 18.7985491071429 5.64187500000003  C 18.932849702381 5.77645833333338  19 5.93583333333333  19 6.12  C 19 6.30416666666667  18.932849702381 6.46354166666663  18.7985491071429 6.59812499999998  L 13.3699776785714 12.038125  C 13.2356770833334 12.1727083333333  13.0766369047619 12.24  12.8928571428571 12.24  C 12.7090773809524 12.24  12.550037202381 12.1727083333333  12.4157366071429 12.038125  C 12.2814360119048 11.9035416666667  12.2142857142857 11.7441666666666  12.2142857142857 11.5599999999999  L 12.2142857142857 8.84000000000003  L 9.83928571428566 8.84000000000003  C 9.14657738095241 8.84000000000003  8.52632068452385 8.86125000000004  7.978515625 8.90374999999995  C 7.43071056547615 8.94624999999996  6.88643973214289 9.02239583333335  6.345703125 9.13218749999999  C 5.80496651785711 9.24197916666662  5.33491443452385 9.39250000000004  4.935546875 9.58375000000001  C 4.53617931547615 9.77499999999998  4.16331845238096 10.0211458333333  3.81696428571433 10.3221875  C 3.47061011904759 10.6232291666666  3.18787202380952 10.9809375  2.96875 11.3953125  C 2.74962797619048 11.8096875  2.57821800595241 12.3002083333333  2.45452008928567 12.8668750000001  C 2.33082217261904 13.4335416666667  2.26897321428567 14.0745833333333  2.26897321428567 14.79  C 2.26897321428567 15.1795833333333  2.28664434523807 15.6152083333334  2.32198660714289 16.096875  C 2.32198660714289 16.139375  2.33082217261904 16.2226041666667  2.34849330357144 16.3465625  C 2.36616443452385 16.4705208333334  2.375 16.564375  2.375 16.628125  C 2.375 16.734375  2.34495907738096 16.8229166666666  2.28487723214289 16.89375  C 2.22479538690482 16.9645833333333  2.14174107142856 17  2.03571428571433 17  C 1.92261904761904 17  1.82366071428567 16.9397916666667  1.73883928571433 16.819375  C 1.68936011904759 16.755625  1.64341517857144 16.6777083333334  1.60100446428567 16.5856250000001  C 1.55859375 16.4935416666667  1.51088169642856 16.3872916666667  1.45786830357144 16.266875  C 1.40485491071433 16.1464583333334  1.36774553571433 16.0614583333333  1.34654017857144 16.011875  C 0.448846726190482 13.993125  0 12.3958333333334  0 11.22  C 0 9.8104166666667  0.187313988095184 8.63104166666665  0.561941964285666 7.68187499999999  C 1.70703125 4.82729166666661  4.79947916666663 3.39999999999998  9.83928571428566 3.39999999999998  L 12.2142857142857 3.39999999999998  L 12.2142857142857 0.67999999999995  C 12.2142857142857 0.49583333333328  12.2814360119048 0.336458333333326  12.4157366071429 0.201874999999973  C 12.550037202381 0.0672916666666197  12.7090773809524 0  12.8928571428571 0  C 13.0766369047619 0  13.2356770833334 0.0672916666666197  13.3699776785714 0.201874999999973  L 18.7985491071429 5.64187500000003  Z " fill-rule="nonzero" fill="#f2f2f2" stroke="none" transform="matrix(1 0 0 1 292 1707 )" />
  </g>
</svg>