<?xml version="1.0" encoding="utf-8"?>
<svg version="1.1" xmlns:xlink="http://www.w3.org/1999/xlink" width="10px" height="162px" preserveAspectRatio="xMidYMin meet" viewBox="600 123  8 162" xmlns="http://www.w3.org/2000/svg">
  <path d="M 465 291  L 465 285  A 5 5 0 0 1 470 280 L 599 280  A 5 5 0 0 0 604 275 L 604 133  A 5 5 0 0 1 609 128 L 1309 128  A 5 5 0 0 1 1314 133 L 1314 193  " stroke-width="2" stroke="#0000ff" fill="none" />
  <path d="M 1318.29289321881 187.892893218813  L 1314 192.185786437627  L 1309.70710678119 187.892893218813  L 1308.29289321881 189.307106781187  L 1313.29289321881 194.307106781187  L 1314 195.014213562373  L 1314.70710678119 194.307106781187  L 1319.70710678119 189.307106781187  L 1318.29289321881 187.892893218813  Z " fill-rule="nonzero" fill="#0000ff" stroke="none" />
</svg>