<?xml version="1.0" encoding="utf-8"?>
<svg version="1.1" xmlns:xlink="http://www.w3.org/1999/xlink" width="40px" height="40px" xmlns="http://www.w3.org/2000/svg">
  <defs>
    <filter x="160px" y="145px" width="40px" height="40px" filterUnits="userSpaceOnUse" id="filter15">
      <feOffset dx="1" dy="1" in="SourceAlpha" result="shadowOffsetInner" />
      <feGaussianBlur stdDeviation="2.5" in="shadowOffsetInner" result="shadowGaussian" />
      <feComposite in2="shadowGaussian" operator="atop" in="SourceAlpha" result="shadowComposite" />
      <feColorMatrix type="matrix" values="0 0 0 0 0  0 0 0 0 0  0 0 0 0 0  0 0 0 0.698039215686274 0  " in="shadowComposite" />
    </filter>
    <g id="widget16">
      <path d="M 179 149  C 187.4 149  194 155.6  194 164  C 194 172.4  187.4 179  179 179  C 170.6 179  164 172.4  164 164  C 164 155.6  170.6 149  179 149  Z " fill-rule="nonzero" fill="#f59a23" stroke="none" />
      <path d="M 179 149.5  C 187.12 149.5  193.5 155.88  193.5 164  C 193.5 172.12  187.12 178.5  179 178.5  C 170.88 178.5  164.5 172.12  164.5 164  C 164.5 155.88  170.88 149.5  179 149.5  Z " stroke-width="1" stroke="#ffffff" fill="none" />
    </g>
  </defs>
  <g transform="matrix(1 0 0 1 -160 -145 )">
    <use xlink:href="#widget16" filter="url(#filter15)" />
    <use xlink:href="#widget16" />
  </g>
</svg>