<?xml version="1.0" encoding="utf-8"?>
<svg version="1.1" xmlns:xlink="http://www.w3.org/1999/xlink" width="22px" height="20px" preserveAspectRatio="xMinYMid meet" viewBox="408 1491  22 18" xmlns="http://www.w3.org/2000/svg">
  <path d="M 419 1496.5  A 3 3 0 0 0 416 1499.5 A 3 3 0 0 0 419 1502.5 A 3 3 0 0 0 422 1499.5 A 3 3 0 0 0 419 1496.5 Z M 419 1497.5  A 2 2 0 0 1 421 1499.5 A 2 2 0 0 1 419 1501.5 A 2 2 0 0 1 417 1499.5 A 2 2 0 0 1 419 1497.5 Z " fill-rule="nonzero" fill="#0702f8" stroke="none" />
  <path d="M 421 1499.5  L 504 1499.5  " stroke-width="1" stroke="#0702f8" fill="none" />
</svg>