<?xml version="1.0" encoding="utf-8"?>
<svg version="1.1" xmlns:xlink="http://www.w3.org/1999/xlink" width="94px" height="6px" preserveAspectRatio="xMinYMid meet" viewBox="426 437  94 4" xmlns="http://www.w3.org/2000/svg">
  <path d="M 432 435.5  A 3 3 0 0 0 429 438.5 A 3 3 0 0 0 432 441.5 A 3 3 0 0 0 435 438.5 A 3 3 0 0 0 432 435.5 Z M 432 436.5  A 2 2 0 0 1 434 438.5 A 2 2 0 0 1 432 440.5 A 2 2 0 0 1 430 438.5 A 2 2 0 0 1 432 436.5 Z " fill-rule="nonzero" fill="#0702f8" stroke="none" />
  <path d="M 434 438.5  L 517 438.5  " stroke-width="1" stroke="#0702f8" fill="none" />
</svg>