<?xml version="1.0" encoding="utf-8"?>
<svg version="1.1" xmlns:xlink="http://www.w3.org/1999/xlink" width="142px" height="6px" preserveAspectRatio="xMinYMid meet" viewBox="364 1553  142 4" xmlns="http://www.w3.org/2000/svg">
  <path d="M 369 1552.5  A 3 3 0 0 0 366 1555.5 A 3 3 0 0 0 369 1558.5 A 3 3 0 0 0 372 1555.5 A 3 3 0 0 0 369 1552.5 Z M 369 1553.5  A 2 2 0 0 1 371 1555.5 A 2 2 0 0 1 369 1557.5 A 2 2 0 0 1 367 1555.5 A 2 2 0 0 1 369 1553.5 Z " fill-rule="nonzero" fill="#0702f8" stroke="none" />
  <path d="M 371 1555.5  L 504 1555.5  " stroke-width="1" stroke="#0702f8" fill="none" />
</svg>