<?xml version="1.0" encoding="utf-8"?>
<svg version="1.1" xmlns:xlink="http://www.w3.org/1999/xlink" width="24px" height="24.0000008170961px" preserveAspectRatio="xMidYMin meet" viewBox="987 651.999999182904  22 24.0000008170961" xmlns="http://www.w3.org/2000/svg">
  <g transform="matrix(0 -1 1 0 334.000000408548 1661.99999959146 )">
    <path d="M 998 660  A 3.5 3.5 0 0 0 994.5 663.5 A 3.5 3.5 0 0 0 998 667 A 3.5 3.5 0 0 0 1001.5 663.5 A 3.5 3.5 0 0 0 998 660 Z M 998 662  A 1.5 1.5 0 0 1 999.5 663.5 A 1.5 1.5 0 0 1 998 665 A 1.5 1.5 0 0 1 996.5 663.5 A 1.5 1.5 0 0 1 998 662 Z M 998 710  A 3.5 3.5 0 0 0 994.5 713.5 A 3.5 3.5 0 0 0 998 717 A 3.5 3.5 0 0 0 1001.5 713.5 A 3.5 3.5 0 0 0 998 710 Z M 998 712  A 1.5 1.5 0 0 1 999.5 713.5 A 1.5 1.5 0 0 1 998 715 A 1.5 1.5 0 0 1 996.5 713.5 A 1.5 1.5 0 0 1 998 712 Z " fill-rule="nonzero" fill="#797979" stroke="none" />
    <path d="M 998 666  L 998 711  " stroke-width="2" stroke="#797979" fill="none" />
  </g>
</svg>