<?xml version="1.0" encoding="utf-8"?>
<svg version="1.1" xmlns:xlink="http://www.w3.org/1999/xlink" width="4px" height="4px" preserveAspectRatio="xMinYMid meet" viewBox="996 773  4 2" xmlns="http://www.w3.org/2000/svg">
  <path d="M 998 824  A 3.5 3.5 0 0 0 994.5 827.5 A 3.5 3.5 0 0 0 998 831 A 3.5 3.5 0 0 0 1001.5 827.5 A 3.5 3.5 0 0 0 998 824 Z M 998 826  A 1.5 1.5 0 0 1 999.5 827.5 A 1.5 1.5 0 0 1 998 829 A 1.5 1.5 0 0 1 996.5 827.5 A 1.5 1.5 0 0 1 998 826 Z " fill-rule="nonzero" fill="#797979" stroke="none" />
  <path d="M 998 774  L 998 825  " stroke-width="2" stroke="#797979" fill="none" />
</svg>