<?xml version="1.0" encoding="utf-8"?>
<svg version="1.1" xmlns:xlink="http://www.w3.org/1999/xlink" width="64px" height="6px" preserveAspectRatio="xMinYMid meet" viewBox="966 857  64 4" xmlns="http://www.w3.org/2000/svg">
  <g transform="matrix(0 -1 1 0 139 1857 )">
    <path d="M 998 881  A 3.5 3.5 0 0 0 994.5 884.5 A 3.5 3.5 0 0 0 998 888 A 3.5 3.5 0 0 0 1001.5 884.5 A 3.5 3.5 0 0 0 998 881 Z M 998 883  A 1.5 1.5 0 0 1 999.5 884.5 A 1.5 1.5 0 0 1 998 886 A 1.5 1.5 0 0 1 996.5 884.5 A 1.5 1.5 0 0 1 998 883 Z " fill-rule="nonzero" fill="#797979" stroke="none" />
    <path d="M 998 831  L 998 882  " stroke-width="2" stroke="#797979" fill="none" />
  </g>
</svg>