<?xml version="1.0" encoding="utf-8"?>
<svg version="1.1" xmlns:xlink="http://www.w3.org/1999/xlink" width="24px" height="24.0000008170961px" preserveAspectRatio="xMidYMin meet" viewBox="987 984  22 24.0000008170961" xmlns="http://www.w3.org/2000/svg">
  <g transform="matrix(0 1 -1 0 1994.00000040855 -1.99999959145669 )">
    <path d="M 998 993  A 3.5 3.5 0 0 0 994.5 996.5 A 3.5 3.5 0 0 0 998 1000 A 3.5 3.5 0 0 0 1001.5 996.5 A 3.5 3.5 0 0 0 998 993 Z M 998 995  A 1.5 1.5 0 0 1 999.5 996.5 A 1.5 1.5 0 0 1 998 998 A 1.5 1.5 0 0 1 996.5 996.5 A 1.5 1.5 0 0 1 998 995 Z " fill-rule="nonzero" fill="#797979" stroke="none" />
    <path d="M 998 943  L 998 994  " stroke-width="2" stroke="#797979" fill="none" />
  </g>
</svg>