<?xml version="1.0" encoding="utf-8"?>
<svg version="1.1" xmlns:xlink="http://www.w3.org/1999/xlink" width="24px" height="24.0000008170961px" preserveAspectRatio="xMidYMin meet" viewBox="987 928  22 24.0000008170961" xmlns="http://www.w3.org/2000/svg">
  <g transform="matrix(0 1 -1 0 1938.00000040855 -57.9999995914567 )">
    <path d="M 998 937  A 3.5 3.5 0 0 0 994.5 940.5 A 3.5 3.5 0 0 0 998 944 A 3.5 3.5 0 0 0 1001.5 940.5 A 3.5 3.5 0 0 0 998 937 Z M 998 939  A 1.5 1.5 0 0 1 999.5 940.5 A 1.5 1.5 0 0 1 998 942 A 1.5 1.5 0 0 1 996.5 940.5 A 1.5 1.5 0 0 1 998 939 Z " fill-rule="nonzero" fill="#797979" stroke="none" />
    <path d="M 998 887  L 998 938  " stroke-width="2" stroke="#797979" fill="none" />
  </g>
</svg>