<?xml version="1.0" encoding="utf-8"?>
<svg version="1.1" xmlns:xlink="http://www.w3.org/1999/xlink" width="4px" height="4px" preserveAspectRatio="xMinYMid meet" viewBox="996 999  4 2" xmlns="http://www.w3.org/2000/svg">
  <path d="M 998 1050  A 3.5 3.5 0 0 0 994.5 1053.5 A 3.5 3.5 0 0 0 998 1057 A 3.5 3.5 0 0 0 1001.5 1053.5 A 3.5 3.5 0 0 0 998 1050 Z M 998 1052  A 1.5 1.5 0 0 1 999.5 1053.5 A 1.5 1.5 0 0 1 998 1055 A 1.5 1.5 0 0 1 996.5 1053.5 A 1.5 1.5 0 0 1 998 1052 Z " fill-rule="nonzero" fill="#797979" stroke="none" />
  <path d="M 998 1000  L 998 1051  " stroke-width="2" stroke="#797979" fill="none" />
</svg>