<?xml version="1.0" encoding="utf-8"?>
<svg version="1.1" xmlns:xlink="http://www.w3.org/1999/xlink" width="64px" height="6px" preserveAspectRatio="xMinYMid meet" viewBox="966 1139  64 4" xmlns="http://www.w3.org/2000/svg">
  <g transform="matrix(0 -1 1 0 -143 2139 )">
    <path d="M 998 1163  A 3.5 3.5 0 0 0 994.5 1166.5 A 3.5 3.5 0 0 0 998 1170 A 3.5 3.5 0 0 0 1001.5 1166.5 A 3.5 3.5 0 0 0 998 1163 Z M 998 1165  A 1.5 1.5 0 0 1 999.5 1166.5 A 1.5 1.5 0 0 1 998 1168 A 1.5 1.5 0 0 1 996.5 1166.5 A 1.5 1.5 0 0 1 998 1165 Z " fill-rule="nonzero" fill="#797979" stroke="none" />
    <path d="M 998 1113  L 998 1164  " stroke-width="2" stroke="#797979" fill="none" />
  </g>
</svg>