<?xml version="1.0" encoding="utf-8"?>
<svg version="1.1" xmlns:xlink="http://www.w3.org/1999/xlink" width="24px" height="24.0000008170962px" preserveAspectRatio="xMidYMin meet" viewBox="987 1210  22 24.0000008170962" xmlns="http://www.w3.org/2000/svg">
  <g transform="matrix(0 1 -1 0 2220.00000040855 224.000000408548 )">
    <path d="M 998 1219  A 3.5 3.5 0 0 0 994.5 1222.5 A 3.5 3.5 0 0 0 998 1226 A 3.5 3.5 0 0 0 1001.5 1222.5 A 3.5 3.5 0 0 0 998 1219 Z M 998 1221  A 1.5 1.5 0 0 1 999.5 1222.5 A 1.5 1.5 0 0 1 998 1224 A 1.5 1.5 0 0 1 996.5 1222.5 A 1.5 1.5 0 0 1 998 1221 Z " fill-rule="nonzero" fill="#797979" stroke="none" />
    <path d="M 998 1169  L 998 1220  " stroke-width="2" stroke="#797979" fill="none" />
  </g>
</svg>