<?xml version="1.0" encoding="utf-8"?>
<svg version="1.1" xmlns:xlink="http://www.w3.org/1999/xlink" width="25px" height="21px" xmlns="http://www.w3.org/2000/svg">
  <g transform="matrix(1 0 0 1 -679 -3653 )">
    <path d="M 6.77490234375 5.84802158273381  C 6.97835286458333 5.6423860911271  7.080078125 5.36750599520384  7.080078125 5.02338129496403  C 7.080078125 4.67925659472422  6.97835286458333 4.40227817745803  6.77490234375 4.19244604316547  C 6.57145182291667 3.9826139088729  6.30289713541667 3.87769784172662  5.96923828125 3.87769784172662  C 5.61930338541667 3.87769784172662  5.31005859375 3.98471223021583  5.04150390625 4.19874100719424  C 4.77294921875 4.41276978417266  4.638671875 4.68764988009592  4.638671875 5.02338129496403  C 4.638671875 5.35071942446043  4.77294921875 5.62140287769784  5.04150390625 5.83543165467626  C 5.31005859375 6.04946043165468  5.61930338541667 6.15647482014388  5.96923828125 6.15647482014388  C 6.30289713541667 6.15647482014388  6.57145182291667 6.05365707434053  6.77490234375 5.84802158273381  Z M 15.838623046875 12.0485611510791  C 16.046142578125 11.8639088729017  16.14990234375 11.6498800959233  16.14990234375 11.4064748201439  C 16.14990234375 11.1714628297362  16.046142578125 10.9616306954436  15.838623046875 10.7769784172662  C 15.631103515625 10.5923261390887  15.3645833333333 10.5  15.0390625 10.5  C 14.8193359375 10.5  14.617919921875 10.5944244604317  14.434814453125 10.783273381295  C 14.251708984375 10.9721223021583  14.16015625 11.1798561151079  14.16015625 11.4064748201439  C 14.16015625 11.6414868105516  14.251708984375 11.853417266187  14.434814453125 12.0422661870504  C 14.617919921875 12.2311151079137  14.8193359375 12.3255395683453  15.0390625 12.3255395683453  C 15.3645833333333 12.3255395683453  15.631103515625 12.2332134292566  15.838623046875 12.0485611510791  Z M 12.969970703125 5.84802158273381  C 13.1693522135417 5.6423860911271  13.26904296875 5.36750599520384  13.26904296875 5.02338129496403  C 13.26904296875 4.67925659472422  13.1693522135417 4.40227817745803  12.969970703125 4.19244604316547  C 12.7705891927083 3.9826139088729  12.5040690104167 3.87769784172662  12.17041015625 3.87769784172662  C 11.8204752604167 3.87769784172662  11.51123046875 3.98471223021583  11.24267578125 4.19874100719424  C 10.97412109375 4.41276978417266  10.83984375 4.68764988009592  10.83984375 5.02338129496403  C 10.83984375 5.35071942446043  10.97412109375 5.62140287769784  11.24267578125 5.83543165467626  C 11.51123046875 6.04946043165468  11.8204752604167 6.15647482014388  12.17041015625 6.15647482014388  C 12.5040690104167 6.15647482014388  12.7705891927083 6.05365707434053  12.969970703125 5.84802158273381  Z M 20.703125 12.0485611510791  C 20.9147135416667 11.8639088729017  21.0205078125 11.6498800959233  21.0205078125 11.4064748201439  C 21.0205078125 11.1714628297362  20.9147135416667 10.9616306954436  20.703125 10.7769784172662  C 20.4915364583333 10.5923261390887  20.22705078125 10.5  19.90966796875 10.5  C 19.68994140625 10.5  19.488525390625 10.5944244604317  19.305419921875 10.783273381295  C 19.122314453125 10.9721223021583  19.03076171875 11.1798561151079  19.03076171875 11.4064748201439  C 19.03076171875 11.6414868105516  19.122314453125 11.853417266187  19.305419921875 12.0422661870504  C 19.488525390625 12.2311151079137  19.68994140625 12.3255395683453  19.90966796875 12.3255395683453  C 20.22705078125 12.3255395683453  20.4915364583333 12.2332134292566  20.703125 12.0485611510791  Z M 16.107177734375 3.12859712230216  C 16.9657389322917 4.10641486810551  17.5211588541667 5.19964028776978  17.7734375 6.40827338129496  C 17.5211588541667 6.37470023980815  17.236328125 6.35791366906475  16.9189453125 6.35791366906475  C 15.5436197916667 6.35791366906475  14.2781575520833 6.6810551558753  13.12255859375 7.3273381294964  C 11.9669596354167 7.9736211031175  11.0575358072917 8.84862110311751  10.394287109375 9.9523381294964  C 9.73103841145833 11.0560551558753  9.3994140625 12.2625899280576  9.3994140625 13.5719424460432  C 9.3994140625 14.226618705036  9.49300130208333 14.8645083932854  9.68017578125 15.4856115107914  C 9.39534505208333 15.5107913669065  9.11865234375 15.523381294964  8.85009765625 15.523381294964  C 8.63850911458333 15.523381294964  8.43505859375 15.5170863309353  8.23974609375 15.5044964028777  C 8.04443359375 15.4919064748201  7.82063802083333 15.4646282973621  7.568359375 15.4226618705036  C 7.31608072916667 15.3806954436451  7.135009765625 15.3513189448441  7.025146484375 15.3345323741007  C 6.915283203125 15.3177458033573  6.69352213541667 15.2736810551559  6.35986328125 15.2023381294964  C 6.02620442708333 15.1309952038369  5.82275390625 15.0869304556355  5.74951171875 15.0701438848921  L 2.6611328125 16.6690647482014  L 3.5400390625 13.9244604316547  C 1.18001302083333 12.220623501199  0 10.1642685851319  0 7.75539568345324  C 0 6.33693045563549  0.396728515625 5.03177458033573  1.190185546875 3.83992805755396  C 1.983642578125 2.64808153477218  3.057861328125 1.71013189448441  4.412841796875 1.02607913669065  C 5.767822265625 0.342026378896881  7.24690755208333 0  8.85009765625 0  C 10.2823893229167 0  11.6353352864583 0.276978417266188  12.908935546875 0.830935251798561  C 14.1825358072917 1.38489208633094  15.2486165364583 2.1507793764988  16.107177734375 3.12859712230216  Z M 23.956298828125 10.1537769784173  C 24.652099609375 11.1735611510791  25 12.279376498801  25 13.4712230215827  C 25 14.4532374100719  24.7212727864583 15.3911870503597  24.163818359375 16.285071942446  C 23.6063639322917 17.1789568345324  22.8515625 17.9910071942446  21.8994140625 18.7212230215827  L 22.57080078125 21  L 20.1416015625 19.6276978417266  C 18.9208984375 19.9382494004796  18.0338541666667 20.0935251798561  17.48046875 20.0935251798561  C 16.1051432291667 20.0935251798561  14.8396809895833 19.7976618705036  13.68408203125 19.2059352517986  C 12.5284830729167 18.6142086330935  11.6190592447917 17.810551558753  10.955810546875 16.794964028777  C 10.2925618489583 15.779376498801  9.9609375 14.6714628297362  9.9609375 13.4712230215827  C 9.9609375 12.2709832134293  10.2925618489583 11.1630695443645  10.955810546875 10.1474820143885  C 11.6190592447917 9.13189448441247  12.5284830729167 8.32823741007194  13.68408203125 7.73651079136691  C 14.8396809895833 7.14478417266187  16.1051432291667 6.84892086330935  17.48046875 6.84892086330935  C 18.7906901041667 6.84892086330935  20.0236002604167 7.14478417266187  21.17919921875 7.73651079136691  C 22.3347981770833 8.32823741007194  23.260498046875 9.13399280575539  23.956298828125 10.1537769784173  Z " fill-rule="nonzero" fill="#000000" stroke="none" transform="matrix(1 0 0 1 679 3653 )" />
  </g>
</svg>