<?xml version="1.0" encoding="utf-8"?>
<svg version="1.1" xmlns:xlink="http://www.w3.org/1999/xlink" width="25px" height="20px" xmlns="http://www.w3.org/2000/svg">
  <g transform="matrix(1 0 0 1 -744 -3653 )">
    <path d="M 8.54015616285555 15.9986225895317  C 8.91662018962633 15.8746556473829  9.20710169176427 15.6565656565657  9.41160066926938 15.3443526170799  C 9.60680423870608 15.0321395775941  9.65792898308236 14.7153351698806  9.56497490239822 14.3939393939394  C 9.47202082171407 14.0725436179982  9.26287414017475 13.8429752066116  8.93753485778026 13.7052341597796  C 8.62149098345417 13.5766758494031  8.28220858895705 13.5720844811754  7.9196876742889 13.6914600550964  C 7.55716675962075 13.8108356290174  7.27830451756832 14.0220385674931  7.08310094813162 14.3250688705234  C 6.87860197062651 14.6372819100092  6.81818181818182 14.9517906336088  6.90184049079755 15.2685950413223  C 6.98549916341327 15.5853994490358  7.18535043688418 15.8172635445363  7.50139431121026 15.9641873278237  C 7.81743818553635 16.1111111111111  8.16369213608477 16.1225895316804  8.54015616285555 15.9986225895317  Z M 10.4155047406581 13.9325068870523  C 10.5549358616843 13.8820018365473  10.6571853504369 13.7970615243343  10.7222532069158 13.6776859504132  C 10.7966164714631 13.5583103764922  10.8128834355828 13.4366391184573  10.771054099275 13.3126721763085  C 10.7292247629671 13.1887052341598  10.6478899423685 13.1037649219467  10.5270496374791 13.0578512396694  C 10.3969139245213 13.0119375573921  10.2644543595464 13.014233241506  10.1296709425544 13.064738292011  C 9.99488752556237 13.1152433425161  9.89496188882692 13.2001836547291  9.82989403234802 13.3195592286501  C 9.67187209518498 13.6042240587695  9.73229224762967 13.8108356290174  10.0111544896821 13.9393939393939  C 10.1412902026399 13.9853076216713  10.2760736196319 13.9830119375574  10.4155047406581 13.9325068870523  Z M 13.1134969325153 12.5275482093664  C 13.555028815765 13.3585858585859  13.5666480758505 14.2332415059688  13.1483547127719 15.1515151515152  C 12.7300613496932 16.0881542699725  11.9957241122885 16.7768595041322  10.9453430005577 17.2176308539945  C 9.89496188882692 17.6584022038567  8.85387618516453 17.7134986225895  7.82208588957055 17.3829201101928  C 6.82747722625023 17.0707070707071  6.14194088120469 16.489898989899  5.76547685443391 15.6404958677686  C 5.38901282766313 14.7910927456382  5.41922290388548 13.9302112029385  5.85610708310095 13.0578512396694  C 6.29299126231642 12.2038567493113  6.99711842349879 11.5656565656566  7.96848856664808 11.1432506887052  C 8.93985870979736 10.7208448117539  9.91820040899796 10.633608815427  10.9035136642499 10.8815426997245  C 11.9353039598438 11.147842056933  12.6719650492657 11.6965105601469  13.1134969325153 12.5275482093664  Z M 15.6511433351924 16.5909090909091  C 17.0129206172151 15.5027548209366  17.6287414017475 14.2883379247016  17.4986056887897 12.9476584022039  C 17.414947016174 12.0661157024793  17.0013013571296 11.2855831037649  16.2576687116564 10.6060606060606  C 15.5140360661833 9.92653810835629  14.5449897750511 9.42607897153352  13.3505298382599 9.10468319559229  C 12.1560699014687 8.78328741965106  10.8802751440788 8.68686868686869  9.52314556609035 8.81542699724518  C 7.45026956683398 9.02662993572084  5.73294292619446 9.67630853994491  4.37116564417178 10.7644628099174  C 3.0093883621491 11.8526170798898  2.39356757761666 13.0670339761249  2.52370329057446 14.4077134986226  C 2.60736196319018 15.2892561983471  3.02100762223462 16.0697887970615  3.76464026770775 16.7493112947658  C 4.50827291318089 17.4288337924702  5.47731920431307 17.9292929292929  6.6717791411043 18.2506887052342  C 7.86623907789552 18.5720844811754  9.14203383528537 18.6685032139578  10.4991634132738 18.5399449035813  C 12.5720394125302 18.3287419651056  14.2893660531697 17.6790633608815  15.6511433351924 16.5909090909091  Z M 21.319018404908 11.3980716253444  C 21.6350622792341 11.8801652892562  21.7930842163971 12.415059687787  21.7930842163971 13.0027548209366  C 21.7930842163971 13.6271808999082  21.6211191671314 14.2676767676768  21.2771890686001 14.9242424242424  C 20.9332589700688 15.5808080808081  20.4266592303402 16.2098255280073  19.7573898494144 16.8112947658402  C 19.0881204684886 17.4127640036731  18.3049823387247 17.9522497704316  17.4079754601227 18.4297520661157  C 16.5109685815207 18.9072543617998  15.4605874697899 19.2883379247016  14.2568321249303 19.5730027548209  C 13.0530767800706 19.8576675849403  11.7958728388176 20  10.4852203011712 20  C 9.17456776352482 20  7.89644915411787 19.846189164371  6.65086447295036 19.538567493113  C 5.40527979178286 19.2309458218549  4.28750697155605 18.8039485766759  3.29754601226994 18.2575757575758  C 2.30758505298383 17.7112029384757  1.51050381111731 17.0179063360882  0.906302286670385 16.1776859504132  C 0.302100762223462 15.3374655647383  0 14.4214876033058  0 13.4297520661157  C 0 12.3737373737374  0.323015430377394 11.2488521579431  0.969046291132181 10.0550964187328  C 1.61507715188697 8.8613406795225  2.53299869864287 7.67676767676767  3.72281093139989 6.50137741046832  C 5.29373489496189 4.94949494949495  6.88092582264361 3.86593204775023  8.48438371444506 3.25068870523416  C 10.0878416062465 2.63544536271809  11.2335006506786 2.66758494031221  11.9213608477412 3.34710743801653  C 12.5255623721881 3.9348025711662  12.6185164528723 4.89439853076217  12.2002230897936 6.22589531680441  C 12.16304145752 6.3544536271809  12.1583937534858 6.44628099173554  12.186279977691 6.50137741046832  C 12.2141662018963 6.5564738292011  12.2606432422383 6.58861340679522  12.3257110987172 6.59779614325069  C 12.3907789551961 6.60697887970615  12.4581706636921 6.60468319559229  12.5278862242052 6.59090909090909  C 12.5976017847184 6.57713498622589  12.6603457891801 6.56106519742883  12.7161182375906 6.54269972451791  L 12.7997769102064 6.51515151515152  C 14.0918386317159 5.97337006427916  15.2351738241309 5.70247933884298  16.2297824874512 5.70247933884298  C 17.2243911507715 5.70247933884298  17.9354898680052 5.98255280073462  18.3630786391523 6.54269972451791  C 18.7813720022309 7.12121212121212  18.7813720022309 7.93847566574839  18.3630786391523 8.99449035812672  C 18.3444878230154 9.11386593204775  18.3235731548615 9.20569329660239  18.3003346346905 9.26997245179063  C 18.2770961145194 9.33425160697888  18.2980107826734 9.39164370982553  18.3630786391523 9.44214876033058  C 18.4281464956312 9.49265381083563  18.4839189440416 9.52708907254362  18.5303959843837 9.54545454545455  C 18.5768730247258 9.56382001836547  18.6558839933073 9.59136822773186  18.7674288901283 9.62809917355372  C 19.2972671500279 9.79338842975207  19.7759806655512 10.0091827364555  20.2035694366983 10.2754820936639  C 20.6311582078453 10.5417814508724  21.0029745305819 10.9159779614325  21.319018404908 11.3980716253444  Z M 19.3530395984384 3.50550964187328  C 19.9014686744748 3.67539026629936  20.3708867819297 3.97612488521579  20.7612939208031 4.40771349862259  C 21.1517010596765 4.83930211202938  21.4050009295408 5.33746556473829  21.521193530396 5.90220385674931  C 21.6373861312512 6.46694214876033  21.6071760550288 7.00642791551882  21.4305633017289 7.52066115702479  C 21.3562000371816 7.73186409550046  21.2190927681725 7.88797061524334  21.0192414947016 7.98898071625344  C 20.8193902212307 8.08999081726354  20.6125673917085 8.10835629017447  20.398773006135 8.04407713498622  C 20.1849786205614 7.97061524334252  20.0269566833984 7.83516988062442  19.9247071946458 7.63774104683196  C 19.8224577058933 7.44031221303949  19.8038668897565 7.23599632690542  19.8689347462354 7.02479338842975  C 20.0548429076036 6.44628099173554  19.9432980107827 5.9366391184573  19.5343000557724 5.49586776859504  C 19.1253021007622 5.05509641873278  18.6279977691021 4.89439853076217  18.042387060792 5.0137741046832  C 17.81929726715 5.05968778696051  17.6101505856107 5.02295684113866  17.414947016174 4.90358126721763  C 17.2197434467373 4.7842056932966  17.1035508458821 4.61432506887052  17.0663692136085 4.39393939393939  C 17.0198921732664 4.17355371900826  17.0570738055401 3.9692378328742  17.1779141104294 3.78099173553719  C 17.2987544153188 3.59274563820018  17.4707194645845 3.47566574839302  17.6938092582264 3.4297520661157  C 18.2515337423313 3.31037649219467  18.8046105224019 3.3356290174472  19.3530395984384 3.50550964187328  Z M 20.3848298940323 0.3099173553719  C 21.5095742703105 0.654269972451791  22.4762967094255 1.27180899908172  23.2849972113776 2.16253443526171  C 24.0936977133296 3.04407713498623  24.6165644171779 4.06565656565656  24.8535973229225 5.22727272727273  C 25.090630228667 6.38888888888889  25.0278862242052 7.49770431588613  24.6653653095371 8.55371900826446  C 24.5817066369214 8.80165289256198  24.4236846997583 8.98530762167126  24.191299498048 9.10468319559229  C 23.9589142963376 9.22405876951331  23.7172336865588 9.24242424242424  23.4662576687117 9.15977961432507  C 23.2152816508645 9.07713498622589  23.0293734894962 8.92102846648301  22.9085331846068 8.69146005509642  C 22.7876928797174 8.46189164370982  22.7644543595464 8.22314049586777  22.8388176240937 7.97520661157025  C 23.0990890500093 7.22222222222222  23.1455660903514 6.43250688705234  22.9782487451199 5.60606060606061  C 22.8109313998885 4.77961432506887  22.4391150771519 4.05417814508723  21.8627997769102 3.4297520661157  C 21.2864844766685 2.79614325068871  20.5986242796059 2.35766758494031  19.7992191857223 2.11432506887052  C 18.9998140918386 1.87098255280073  18.1957612939208 1.83195592286501  17.3870607919688 1.99724517906336  C 17.1267893660532 2.05234159779614  16.8851087562744 2.00872359963269  16.6620189626325 1.866391184573  C 16.4389291689905 1.72405876951331  16.2994980479643 1.52433425160698  16.2437255995538 1.26721763085399  C 16.1879531511433 1.01010101010101  16.2321063394683 0.773645546372816  16.3761851645287 0.557851239669422  C 16.5202639895891 0.342056932966024  16.7224391150772 0.206611570247934  16.9827105409927 0.151515151515151  C 18.1260457334077 -0.0872359963269087  19.2600855177542 -0.0344352617079879  20.3848298940323 0.3099173553719  Z " fill-rule="nonzero" fill="#000000" stroke="none" transform="matrix(1 0 0 1 744 3653 )" />
  </g>
</svg>