<?xml version="1.0" encoding="utf-8"?>
<svg version="1.1" xmlns:xlink="http://www.w3.org/1999/xlink" width="22px" height="20px" preserveAspectRatio="xMinYMid meet" viewBox="1306 821  22 18" xmlns="http://www.w3.org/2000/svg">
  <g transform="matrix(-1 0 0 -1 2634 1660 )">
    <path d="M 1233 827.5  A 3 3 0 0 0 1230 830.5 A 3 3 0 0 0 1233 833.5 A 3 3 0 0 0 1236 830.5 A 3 3 0 0 0 1233 827.5 Z M 1233 828.5  A 2 2 0 0 1 1235 830.5 A 2 2 0 0 1 1233 832.5 A 2 2 0 0 1 1231 830.5 A 2 2 0 0 1 1233 828.5 Z M 1311.94644660941 825.853553390593  L 1316.59289321881 830.5  L 1311.94644660941 835.146446609407  L 1312.65355339059 835.853553390593  L 1317.65355339059 830.853553390593  L 1318.00710678119 830.5  L 1317.65355339059 830.146446609407  L 1312.65355339059 825.146446609407  L 1311.94644660941 825.853553390593  Z " fill-rule="nonzero" fill="#0702f8" stroke="none" />
    <path d="M 1235 830.5  L 1317 830.5  " stroke-width="1" stroke="#0702f8" fill="none" />
  </g>
</svg>