<?xml version="1.0" encoding="utf-8"?>
<svg version="1.1" xmlns:xlink="http://www.w3.org/1999/xlink" width="92px" height="6px" preserveAspectRatio="xMinYMid meet" viewBox="1222 97  92 4" xmlns="http://www.w3.org/2000/svg">
  <path d="M 1227 95.5  A 3 3 0 0 0 1224 98.5 A 3 3 0 0 0 1227 101.5 A 3 3 0 0 0 1230 98.5 A 3 3 0 0 0 1227 95.5 Z M 1227 96.5  A 2 2 0 0 1 1229 98.5 A 2 2 0 0 1 1227 100.5 A 2 2 0 0 1 1225 98.5 A 2 2 0 0 1 1227 96.5 Z M 1305.94644660941 93.8535533905933  L 1310.59289321881 98.5  L 1305.94644660941 103.146446609407  L 1306.65355339059 103.853553390593  L 1311.65355339059 98.8535533905933  L 1312.00710678119 98.5  L 1311.65355339059 98.1464466094067  L 1306.65355339059 93.1464466094067  L 1305.94644660941 93.8535533905933  Z " fill-rule="nonzero" fill="#0702f8" stroke="none" />
  <path d="M 1229 98.5  L 1311 98.5  " stroke-width="1" stroke="#0702f8" fill="none" />
</svg>