<?xml version="1.0" encoding="utf-8"?>
<svg version="1.1" xmlns:xlink="http://www.w3.org/1999/xlink" width="23px" height="23px" xmlns="http://www.w3.org/2000/svg">
  <g transform="matrix(1 0 0 1 -940 -3651 )">
    <path d="M 14.9440104166667 14.7044270833333  C 15.8624131944444 13.8459201388889  16.9505208333333 13.4166666666667  18.2083333333333 13.4166666666667  C 19.5360243055556 13.4166666666667  20.6665581597222 13.8833550347222  21.5999348958333 14.8167317708333  C 22.5333116319444 15.7501085069444  23 16.8806423611111  23 18.2083333333333  C 23 19.5360243055556  22.5333116319444 20.6665581597222  21.5999348958333 21.5999348958333  C 20.6665581597222 22.5333116319444  19.5360243055556 23  18.2083333333333 23  C 16.8806423611111 23  15.7501085069444 22.5333116319444  14.8167317708333 21.5999348958333  C 13.8833550347222 20.6665581597222  13.4166666666667 19.5360243055556  13.4166666666667 18.2083333333333  C 13.4166666666667 18.0885416666667  13.4266493055556 17.9188368055556  13.4466145833333 17.69921875  L 8.05598958333333 15.00390625  C 7.13758680555556 15.8624131944444  6.04947916666667 16.2916666666667  4.79166666666667 16.2916666666667  C 3.46397569444444 16.2916666666667  2.33344184027778 15.8249782986111  1.40006510416667 14.8916015625  C 0.466688368055555 13.9582248263889  0 12.8276909722222  0 11.5  C 0 10.1723090277778  0.466688368055555 9.04177517361111  1.40006510416667 8.1083984375  C 2.33344184027778 7.17502170138889  3.46397569444444 6.70833333333333  4.79166666666667 6.70833333333333  C 6.04947916666667 6.70833333333333  7.13758680555556 7.13758680555555  8.05598958333333 7.99609375  L 13.4466145833333 5.30078125  C 13.4266493055556 5.08116319444444  13.4166666666667 4.91145833333333  13.4166666666667 4.79166666666667  C 13.4166666666667 3.46397569444444  13.8833550347222 2.33344184027778  14.8167317708333 1.40006510416667  C 15.7501085069444 0.466688368055554  16.8806423611111 0  18.2083333333333 0  C 19.5360243055556 0  20.6665581597222 0.466688368055554  21.5999348958333 1.40006510416667  C 22.5333116319444 2.33344184027778  23 3.46397569444444  23 4.79166666666667  C 23 6.11935763888889  22.5333116319444 7.24989149305555  21.5999348958333 8.18326822916667  C 20.6665581597222 9.11664496527778  19.5360243055556 9.58333333333333  18.2083333333333 9.58333333333333  C 16.9505208333333 9.58333333333333  15.8624131944444 9.15407986111111  14.9440104166667 8.29557291666667  L 9.55338541666667 10.9908854166667  C 9.57335069444444 11.2105034722222  9.58333333333333 11.3802083333333  9.58333333333333 11.5  C 9.58333333333333 11.6197916666667  9.57335069444444 11.7894965277778  9.55338541666667 12.0091145833333  L 14.9440104166667 14.7044270833333  Z " fill-rule="nonzero" fill="#000000" stroke="none" transform="matrix(1 0 0 1 940 3651 )" />
  </g>
</svg>