<?xml version="1.0" encoding="utf-8"?>
<svg version="1.1" xmlns:xlink="http://www.w3.org/1999/xlink" width="40px" height="40px" xmlns="http://www.w3.org/2000/svg">
  <defs>
    <filter x="1318px" y="80px" width="40px" height="40px" filterUnits="userSpaceOnUse" id="filter71">
      <feOffset dx="1" dy="1" in="SourceAlpha" result="shadowOffsetInner" />
      <feGaussianBlur stdDeviation="2.5" in="shadowOffsetInner" result="shadowGaussian" />
      <feComposite in2="shadowGaussian" operator="atop" in="SourceAlpha" result="shadowComposite" />
      <feColorMatrix type="matrix" values="0 0 0 0 0  0 0 0 0 0  0 0 0 0 0  0 0 0 0.698039215686274 0  " in="shadowComposite" />
    </filter>
    <g id="widget72">
      <path d="M 1337 84  C 1345.4 84  1352 90.6  1352 99  C 1352 107.4  1345.4 114  1337 114  C 1328.6 114  1322 107.4  1322 99  C 1322 90.6  1328.6 84  1337 84  Z " fill-rule="nonzero" fill="#009dd9" stroke="none" />
      <path d="M 1337 84.5  C 1345.12 84.5  1351.5 90.88  1351.5 99  C 1351.5 107.12  1345.12 113.5  1337 113.5  C 1328.88 113.5  1322.5 107.12  1322.5 99  C 1322.5 90.88  1328.88 84.5  1337 84.5  Z " stroke-width="1" stroke="#ffffff" fill="none" />
    </g>
  </defs>
  <g transform="matrix(1 0 0 1 -1318 -80 )">
    <use xlink:href="#widget72" filter="url(#filter71)" />
    <use xlink:href="#widget72" />
  </g>
</svg>