<?xml version="1.0" encoding="utf-8"?>
<svg version="1.1" xmlns:xlink="http://www.w3.org/1999/xlink" width="243px" height="19px" xmlns="http://www.w3.org/2000/svg">
  <g transform="matrix(1 0 0 1 -963 -3668 )">
    <path d="M 975 3674.5  A 3 3 0 0 0 972 3677.5 A 3 3 0 0 0 975 3680.5 A 3 3 0 0 0 978 3677.5 A 3 3 0 0 0 975 3674.5 Z M 975 3675.5  A 2 2 0 0 1 977 3677.5 A 2 2 0 0 1 975 3679.5 A 2 2 0 0 1 973 3677.5 A 2 2 0 0 1 975 3675.5 Z M 1190.94644660941 3672.85355339059  L 1195.59289321881 3677.5  L 1190.94644660941 3682.14644660941  L 1191.65355339059 3682.85355339059  L 1196.65355339059 3677.85355339059  L 1197.00710678119 3677.5  L 1196.65355339059 3677.14644660941  L 1191.65355339059 3672.14644660941  L 1190.94644660941 3672.85355339059  Z " fill-rule="nonzero" fill="#0702f8" stroke="none" />
    <path d="M 977 3677.5  L 1196 3677.5  " stroke-width="1" stroke="#0702f8" fill="none" />
  </g>
</svg>