<?xml version="1.0" encoding="utf-8"?>
<svg version="1.1" xmlns:xlink="http://www.w3.org/1999/xlink" width="22px" height="20px" preserveAspectRatio="xMinYMid meet" viewBox="150 1069  22 18" xmlns="http://www.w3.org/2000/svg">
  <path d="M 166.053553390593 1083.14644660941  L 161.407106781187 1078.5  L 166.053553390593 1073.85355339059  L 165.346446609407 1073.14644660941  L 160.346446609407 1078.14644660941  L 159.992893218813 1078.5  L 160.346446609407 1078.85355339059  L 165.346446609407 1083.85355339059  L 166.053553390593 1083.14644660941  Z M 245 1075.5  A 3 3 0 0 0 242 1078.5 A 3 3 0 0 0 245 1081.5 A 3 3 0 0 0 248 1078.5 A 3 3 0 0 0 245 1075.5 Z M 245 1076.5  A 2 2 0 0 1 247 1078.5 A 2 2 0 0 1 245 1080.5 A 2 2 0 0 1 243 1078.5 A 2 2 0 0 1 245 1076.5 Z " fill-rule="nonzero" fill="#0702f8" stroke="none" />
  <path d="M 161 1078.5  L 243 1078.5  " stroke-width="1" stroke="#0702f8" fill="none" />
</svg>