<svg t="1585379963774" class="icon" viewBox="0 0 1024 1024" version="1.1" xmlns="http://www.w3.org/2000/svg" p-id="7072" width="200" height="200"><path d="M969.660603 569.566945h-51.532247a405.613031 405.613031 0 0 1-81.719296 194.900384l35.258906 35.258906a54.244471 54.244471 0 1 1-76.701682 76.701682L759.327667 840.789299a404.121308 404.121308 0 0 1-196.364985 78.464628v50.501602a54.244471 54.244471 0 0 1-108.488942 0v-52.454403a405.613031 405.613031 0 0 1-191.916938-83.699219l-37.971129 37.97113a54.244471 54.244471 0 0 1-76.728805-76.728804l38.377964-38.350841c0.379711-0.379711 0.895034-0.4882 1.301867-0.867912a403.443253 403.443253 0 0 1-75.779526-193.056072c-1.003523 0-1.952801 0.298345-2.956324 0.298345h-54.244471a54.244471 54.244471 0 0 1 0-108.488942h54.244471a49.308224 49.308224 0 0 1 4.909125 0.4882A405.396054 405.396054 0 0 1 195.239414 265.526685a48.820024 48.820024 0 0 1-4.285313-2.847835L152.60326 224.32801a54.244471 54.244471 0 0 1 76.701682-76.701682l38.377963 38.350841a49.009879 49.009879 0 0 1 3.227546 4.882002 404.121308 404.121308 0 0 1 190.777804-78.410383c0-1.32899-0.379711-2.712224-0.379711-3.905602v-54.244471a54.244471 54.244471 0 0 1 108.488942 0v54.244471c0 1.32899-0.298345 2.712224-0.406834 3.905602a405.748643 405.748643 0 0 1 191.591471 79.007072c0.216978-0.216978 0.271222-0.515322 0.488201-0.7323l38.350841-38.377963a54.244471 54.244471 0 1 1 76.728804 76.728804L838.199128 267.425242a2.115534 2.115534 0 0 0-0.406834 0.271222A405.23332 405.23332 0 0 1 918.1826 461.078003h51.532248a54.244471 54.244471 0 0 1-0.054245 108.488942zM515.336037 216.977884a298.34459 298.34459 0 1 0 298.34459 298.34459A298.34459 298.34459 0 0 0 515.336037 216.977884z m135.611177 406.833532a54.244471 54.244471 0 1 1 54.244471-54.244471 54.244471 54.244471 0 0 1-54.244471 54.244471z m-108.488942-162.733413a54.244471 54.244471 0 1 1 54.244471-54.244471 54.244471 54.244471 0 0 1-54.244471 54.244471z m-27.122235 108.488942a54.244471 54.244471 0 1 1-54.244471-54.244471 54.244471 54.244471 0 0 1 54.244471 54.244471z" p-id="7073"></path></svg>