<svg t="1585380129439" class="icon" viewBox="0 0 1024 1024" version="1.1" xmlns="http://www.w3.org/2000/svg" p-id="10175" width="200" height="200"><path d="M211.358 796.688c0 17.183-13.928 31.108-31.122 31.108-17.182 0-31.122-13.926-31.122-31.108 0-17.195 13.939-31.134 31.122-31.134 17.194 0.001 31.122 13.939 31.122 31.134z" p-id="10176"></path><path d="M323.662 873.4c0 18.836-15.27 34.107-34.094 34.107-18.835 0-34.105-15.271-34.105-34.107 0-18.821 15.27-34.093 34.105-34.093 18.824 0.001 34.094 15.272 34.094 34.093z" p-id="10177"></path><path d="M641.97 827.514c0 17.015-13.798 30.799-30.811 30.799-17.015 0-30.813-13.784-30.813-30.799 0-17.028 13.798-30.825 30.813-30.825 17.013-0.001 30.811 13.796 30.811 30.825zM524.344 880.521c0 18.59-15.076 33.652-33.654 33.652-18.59 0-33.667-15.063-33.667-33.652 0-18.593 15.076-33.655 33.667-33.655 18.578-0.001 33.654 15.062 33.654 33.655z" p-id="10178"></path><path d="M7.484 906.629c0.4-131.864 3.423-263.805 0.09-395.578-1.614-64.232 21.95-85.471 84.813-82.836 96.543 4.07 193.409 2.3 290.095 0.479 37.271-0.711 54.517 5.8 36.405 46.676-9.702 21.884-13.358 46.379-22.09 68.78-5.388 13.798-1.874 42.425-34.636 16.886-29.52-23.011-42.348 3.757-44.221 31.432-2.364 34.905-16.149 62.217-53.407 62.836-37.336 0.62-52.58-25.579-54.131-61.132-0.917-20.979-6.343-41.469-32.994-39.635-22.479 1.537-26.613 19.856-26.006 38.731 1.085 33.82-16.963 54.283-47.296 62.579-17.764 4.843-19.986 13.718-16.691 28.396 9.844 58.444 3.721 117.329 4.198 175.993 0.542 67.347-19.341 77.5-84.129 46.393z" p-id="10179"></path><path d="M931.962 658.149c-36.396-9.393-56.563-30.579-55.151-70.474 0.698-19.431-9.392-36.095-30.877-34.959-20.039 1.048-30.967 15.942-30.114 36.381 1.523 36.328-13.758 63.276-50.357 64.361-40.668 1.189-56.248-27.659-56.132-66.157 0.051-19.728-7.429-35.618-30.09-34.791-22.735 0.8-28.021 17.596-28.06 37.052-0.064 28.551-8.861 50.849-38.821 59.118-4.186-5.402-8.319-8.27-8.655-11.512-21.847-209.868-21.782-212.039 187.724-208.705 73.471 1.188 149.41-19.611 220.733 15.554 13.435 146.63 2.312 293.583 5.762 440.354 0.594 25.554-15.696 34.776-37.891 35.333-25.838 0.658-39.814-10.787-41.173-39.055-3.529-74.14 9.443-148.797-6.898-222.5z" p-id="10180"></path><path d="M548.669 472.656c0.854 59.272-1.473 118.26 5.97 177.804 8.771 70.188-67.63 162.145-136.604 174.702-46.314 8.423-72.85-26.122-61.895-80.744 14.702-73.159 67.915-127.198 96.208-193.628 30.436-28.086 41.391-80.226 96.321-78.134z" p-id="10181"></path><path d="M548.669 472.656c-37.968 18.836-54.788 63.717-96.322 78.134 31.303-163.837 90.64-313.103 224.62-421.905 36.742-29.842 74.388-60.383 130.688-62.321-126.968 110.844-219.467 242.061-258.986 406.092z" p-id="10182"></path><path d="M268.045 683.816c18.758 5.142 30.153 17.222 27.491 37.478-2.222 16.886-14.856 29.196-31.121 27.893-18.164-1.461-33.925-13.785-32.13-34.3 1.641-18.837 14.198-31.057 35.76-31.071z" p-id="10183"></path><path d="M840.662 730.364c-1.395 13.099-11.846 22.49-29.842 22-21.68-0.594-31.729-14.341-30.489-34.301 1.073-17.413 13.914-29.042 30.682-28.085 19.495 1.137 31.511 13.656 29.649 40.386z" p-id="10184"></path><path d="M899.677 823.728c-4.64 17.997-12.957 33.111-34.443 31.07-20.412-1.925-30.048-15.632-28.344-35.476 1.461-17.13 12.377-27.491 29.66-27.827 21.009-0.413 30.026 13.319 33.127 32.233z" p-id="10185"></path><path d="M776.237 868.26c-0.646 17.57-10.156 27.712-27.816 29.402-18.112 1.732-30.357-7.906-32.231-24.907-2.233-20.386 8.681-33.356 30.449-32.981 17.661 0.296 27.865 10.011 29.598 28.486z" p-id="10186"></path><path d="M697.908 708.981c0.285 18.15-8.372 29.702-25.85 31.794-17.015 2.016-30.696-5.634-33.009-23.551-2.584-19.986 6.538-33.888 28.307-34.933 18.242-0.891 27.259 10.154 30.552 26.69z" p-id="10187"></path></svg>