<svg t="1585379992592" class="icon" viewBox="0 0 1057 1024" version="1.1" xmlns="http://www.w3.org/2000/svg" p-id="7863" width="200" height="200"><path d="M817.223784 347.509793S980.067591 120.15627 993.882708 100.180584c13.831904-19.9589 23.047577-51.718562-19.455311-78.34162-42.502888-27.647021-54.253292-32.263251-88.56447 4.599444C851.031373 63.804692 526.367722 446.851062 526.367722 446.851062h211.490478l29.711735-34.814767s88.581257 4.599444 88.581257 39.430997c0 34.814767-228.897862 44.047227-319.543833 44.047227-91.149559 0-305.191554-14.855867-305.191553-49.670634 0-34.831554 206.353873-49.670635 256.041294-49.670635l58.869522-69.125945s-501.826165 8.712085-511.562214 123.41281c-9.736049 114.717512 35.838731 327.231954 274.976231 449.604014 0 0 11.800762 17.390597 14.335492 34.831553 3.088678 17.407384 8.728871 89.605221 216.123495 89.101632 235.041644-0.503589 224.802007-81.950672 230.929003-103.940713 6.647371-22.023614 3.592266-20.512847 24.088327-29.728521 20.479275-9.736049 233.497306-76.293692 260.640738-429.628328 2.551516 0.486802 20.982864-72.23141-238.63391-113.189959" p-id="7864"></path></svg>