<svg t="1585380764192" class="icon" viewBox="0 0 1024 1024" version="1.1" xmlns="http://www.w3.org/2000/svg" p-id="13421" width="200" height="200"><path d="M399.819 933.139c-17.602 0-35.201-6.694-48.591-20.101L110.961 672.763c-12.986-12.97-20.135-30.227-20.135-48.591s7.148-35.62 20.135-48.599l421.827-421.828c13.423-13.423 35.168-13.423 48.591 0 13.423 13.415 13.423 35.176 0 48.591L159.552 624.172 399.82 864.447l421.827-421.836c13.423-13.423 35.168-13.423 48.591 0 13.423 13.415 13.423 35.177 0 48.591L448.41 913.038c-13.389 13.406-30.99 20.101-48.591 20.101z" fill="#75757F" p-id="13422"></path><path d="M99.652 958.709c-8.792 0-17.583-3.355-24.295-10.067-13.423-13.423-13.423-35.168 0-48.591l148.941-148.958c13.424-13.423 35.168-13.423 48.592 0 13.422 13.414 13.422 35.168 0 48.59L123.947 948.642c-6.711 6.712-15.502 10.067-24.295 10.067z m824.696-379.042c-8.793 0-17.584-3.355-24.296-10.067L454.399 123.948c-13.423-13.415-13.423-35.176 0-48.59 13.423-13.423 35.168-13.423 48.591 0l445.651 445.651c13.423 13.415 13.423 35.177 0 48.591-6.71 6.712-15.502 10.067-24.293 10.067z" fill="#75757F" p-id="13423"></path><path d="M718.006 340.339c-8.792 0-17.584-3.355-24.295-10.067-13.423-13.415-13.423-35.176 0-48.59l89.479-89.471c13.423-13.423 35.168-13.423 48.591 0 13.423 13.414 13.423 35.176 0 48.59l-89.48 89.471c-6.711 6.712-15.504 10.067-24.295 10.067zM543.746 793.903l-29.203 29.202c-10.693 10.695-28.192 10.695-38.886 0L367.053 714.502c-10.736-10.736-10.736-28.148 0-38.885l29.202-29.202 147.491 147.488z m0 0M646.873 702.488L617.67 731.69c-10.693 10.695-28.192 10.695-38.886 0L470.18 623.087c-10.736-10.736-10.736-28.148 0-38.885L499.382 555l147.491 147.488z m0 0" fill="#75757F" p-id="13424"></path></svg>