<svg t="1585380732057" class="icon" viewBox="0 0 1024 1024" version="1.1" xmlns="http://www.w3.org/2000/svg" p-id="13053" width="200" height="200"><path d="M857.088 868.010667c77.482667-97.792 70.144-238.08-17.578667-325.802667l-154.794666 153.429333 172.373333 172.373334z m-363.690667 20.48c87.722667 87.722667 229.376 96.426667 325.802667 17.578666l-172.373333-172.373333-153.429334 154.794667z m134.485334-211.797334l18.944-18.944 148.992-150.528 58.368-57.002666c49.664-49.664 68.608-121.173333 51.2-188.416-17.578667-67.242667-70.144-119.808-138.752-138.922667-68.608-17.578667-140.288 1.536-189.952 51.2L123.733333 627.029333c-49.664 49.664-70.144 121.173333-52.565333 189.952 17.578667 68.608 71.509333 121.173333 138.752 138.752 68.608 17.578667 140.288-1.536 189.952-52.565333l14.677333-14.677333 213.333334-211.797334z m-423.765334 27.648c-32.085333 33.621333-32.085333 86.186667 0 119.808 4.437333 4.437333 7.338667 11.605333 7.338667 18.944s-2.901333 14.677333-7.338667 18.944c-4.437333 4.437333-11.605333 7.338667-18.944 7.338667s-14.677333-2.901333-18.944-7.338667c-54.101333-54.101333-54.101333-141.653333 0-195.754666L617.642667 215.04c54.272-52.906667 140.970667-52.394667 194.56 1.194667 53.589333 53.589333 54.101333 140.288 1.194666 194.56L586.922667 635.733333l-157.696-156.330666-225.109334 224.938666z m0 0" p-id="13054"></path></svg>