<svg t="1585380832436" class="icon" viewBox="0 0 1024 1024" version="1.1" xmlns="http://www.w3.org/2000/svg" p-id="14204" width="200" height="200"><path d="M965.672532 502.484668a24.008693 24.008693 0 0 0-17.152162-7.20333H75.47963a23.987018 23.987018 0 0 0-23.958117 25.388668c2.796077 48.075185 9.551457 91.967092 20.30949 132.232047h875.490016c23.539067-72.755803 25.135793-129.89837 25.193593-133.113497a24.044818 24.044818 0 0 0-6.84208-17.303888zM128.128244 782.641473c35.640951 55.415791 83.188711 99.040373 141.321103 129.63827 68.586975 36.125026 152.736612 54.43319 250.108009 54.43319 0.368475 0 0.751401-0.007225 1.119875-0.021675 100.384224-4.667353 186.766387-31.096423 256.755013-78.535807 56.297241-38.169703 101.887025-89.741791 135.490525-153.285713a487.695082 487.695082 0 0 0 12.304184-25.171918H90.637691a432.850067 432.850067 0 0 0 37.490553 72.943653zM434.793593 452.791082c70.349877 0 123.251365-49.751386 125.158767-51.608213l392.310562-297.121118c0.578-0.4913 14.13211-12.145234 14.666761-25.424793 0.2312-5.628279-1.827926-10.664108-6.191829-15.028011-4.920229-4.689028-10.685783-7.07328-17.144938-7.073281-11.690059 0-21.386016 7.961956-21.675016 8.207606L552.192704 346.843604H277.086178l1.177676 4.530078c0.2601 1.004276 27.87407 101.417399 156.529739 101.4174z" fill="" p-id="14205"></path></svg>