<svg t="1585381229162" class="icon" viewBox="0 0 1024 1024" version="1.1" xmlns="http://www.w3.org/2000/svg" p-id="17587" width="200" height="200"><path d="M967.040427 28.373333H56.960427A56.96 56.96 0 0 0 0.000427 85.333333v628.266667a56.96 56.96 0 0 0 56.96 57.173333h910.08A56.96 56.96 0 0 0 1024.000427 713.6V85.333333a56.96 56.96 0 0 0-56.96-56.96zM938.667093 365.653333q-118.4 118.4-236.586666 237.226667a43.946667 43.946667 0 0 1-54.4-1.28 233.386667 233.386667 0 0 0-270.08 0 43.946667 43.946667 0 0 1-54.4 1.28Q204.160427 484.266667 85.33376 365.653333c-13.866667-13.013333 9.6-59.946667 58.026667-94.293333a635.306667 635.306667 0 0 1 736 0c49.066667 34.346667 72.533333 81.28 59.306666 94.293333z" p-id="17588"></path><path d="M85.33376 852.906667m27.733333 0l797.866667 0q27.733333 0 27.733333 27.733333l0 87.253333q0 27.733333-27.733333 27.733334l-797.866667 0q-27.733333 0-27.733333-27.733334l0-87.253333q0-27.733333 27.733333-27.733333Z" p-id="17589"></path><path d="M378.880427 339.84a42.666667 42.666667 0 0 1-8.32-49.493333 22.613333 22.613333 0 0 1 23.253333-12.8c10.026667 1.706667 13.44 9.173333 14.933333 18.133333a67.84 67.84 0 0 0 16.64 32.213333c2.133333 2.346667 5.76 5.12 1.92 8.32s-6.186667 0-8.106666-3.2a80.64 80.64 0 0 1-18.56-35.626666c0-5.12-1.493333-10.666667-7.893334-11.52a13.866667 13.866667 0 0 0-14.933333 8.106666 27.52 27.52 0 0 0 1.92 32.426667c3.84 5.12 4.906667 9.386667-1.066667 13.44z" p-id="17590"></path><path d="M668.160427 218.666667a90.88 90.88 0 0 0-120.533334 44.373333 33.28 33.28 0 0 1-17.493333 17.493333 12.586667 12.586667 0 0 0-8.32 14.72A23.893333 23.893333 0 0 1 512.000427 320a11.52 11.52 0 0 0 0-10.88 49.066667 49.066667 0 0 1-4.053334-21.333333c0-10.453333 0-21.333333-14.08-20.053334 0 0-1.706667-1.066667-2.133333-1.92a14.506667 14.506667 0 0 0-18.986667-4.906666 21.333333 21.333333 0 0 0-14.72 18.986666 157.013333 157.013333 0 0 0 0 21.333334c0 3.413333 0 4.906667-3.626666 5.973333a26.453333 26.453333 0 0 0-21.333334 29.653333c0 8.746667 2.133333 17.706667 3.413334 28.8a108.16 108.16 0 0 0-56.32-27.306666h-4.906667a83.413333 83.413333 0 0 1-42.666667-23.04 21.333333 21.333333 0 0 0-26.666666-6.4 28.373333 28.373333 0 0 0-15.36 25.813333 42.666667 42.666667 0 0 0 18.986666 35.413333 149.333333 149.333333 0 0 0 27.093334 15.573334 49.066667 49.066667 0 0 1 28.586666 37.12c1.28 6.4 2.346667 12.8 4.053334 18.986666A104.96 104.96 0 0 0 448.000427 523.093333a106.666667 106.666667 0 0 0 109.013333-29.44 159.36 159.36 0 0 0 34.986667-57.813333 28.16 28.16 0 0 1 21.333333-18.56 139.946667 139.946667 0 0 1 18.773333-4.053333 239.786667 239.786667 0 0 0 37.12-7.893334 94.08 94.08 0 0 0 60.586667-61.44 104.106667 104.106667 0 0 0-61.653333-125.226666z m-140.586667 157.013333c-4.053333 5.76-12.16 4.906667-18.773333 2.133333a37.12 37.12 0 0 1-19.84-36.48 38.4 38.4 0 0 0 0-10.88 11.306667 11.306667 0 0 0-10.88-11.52c-10.453333 0-14.293333-5.546667-13.866667-16.64v-19.2a15.146667 15.146667 0 0 1 9.386667-13.653333c5.546667-2.773333 8.746667 0 11.306666 5.12A5.546667 5.546667 0 0 0 490.667093 277.333333c11.52-1.493333 8.106667 6.4 8.96 12.586667 1.493333 11.306667 0 24.106667 11.946667 31.36a32 32 0 0 0 9.386667 41.386667c4.053333 2.56 10.88 7.253333 6.613333 13.013333z m39.04-84.266667c0 4.266667-6.186667 2.56-8.533333 2.133334-5.546667-1.493333-8.746667-4.053333-8.32-8.746667s4.266667-4.48 4.906666-2.56c2.56 5.546667 13.653333 0.64 11.946667 9.173333z" p-id="17591"></path></svg>