<svg t="1585380882062" class="icon" viewBox="0 0 1024 1024" version="1.1" xmlns="http://www.w3.org/2000/svg" p-id="14624" width="200" height="200"><path d="M998.154664 834.079098c-1.582879-19.749666-10.565488-36.978184-23.731932-49.803905L974.422732 336.879069l2.893589-1.094816c28.947145-11.060713 43.46011-43.493875 32.409629-72.453298-11.053551-28.960446-43.5082-43.476481-72.44102-32.42293l-167.813835 64.059025c-28.966585 11.058667-43.476481 43.501038-32.415768 72.4666 11.061736 28.944075 43.494899 43.470342 72.451252 32.393258l75.117692-28.657581 0 393.211932L82.652995 830.435509c-43.274912 3.444067-75.555619 41.306289-72.088019 84.580178 1.666781 20.986705 11.550822 39.294692 26.130295 52.294356 4.849933 32.032071 32.235686 56.689992 65.642928 56.689992 28.294348 0 52.342446-17.736022 62.00957-42.611883l688.433722-56.693061c-5.48022 9.689635-8.84857 20.711467-8.84857 32.638824 0 36.806288 29.843462 66.654865 66.644633 66.654865 36.817543 0 66.658958-29.848577 66.658958-66.654865 0-18.790934-7.822308-35.687938-20.354372-47.808679C983.548588 895.218954 1000.70753 866.168467 998.154664 834.079098L998.154664 834.079098zM531.564468 132.636504c35.927365-9.636429 57.368368-46.711816 47.727847-82.680109-9.646661-35.99285-46.699538-57.267072-82.636112-47.642922-36.083914 9.676333-57.332557 46.622799-47.70329 82.556303C458.599573 120.860579 495.494879 142.293397 531.564468 132.636504L531.564468 132.636504zM262.885319 605.563333c21.443049-13.158258 28.639164-39.301855 28.639164-39.301855l60.627237-119.359521 126.468664 70.616667 7.822308 192.045084c-0.071623 3.61494 0.456344 7.259552 1.462142 11.03411 6.20771 23.162013 30.153489 36.872795 53.362569 30.668155 20.19987-5.411666 33.330502-24.313105 32.144622-44.598923l-9.642568-233.918223c1.390519-37.308675-21.794005-49.638148-21.794005-49.638148l-96.273224-55.557317 58.479556-117.981281 14.699186 56.709432c0 0 8.452595 36.094146 51.732623 24.796052l142.704686-38.240804c7.3455-2.716577 13.70362-7.825378 17.958055-15.188272 9.720331-16.640183 4.184858-38.001377-12.558667-47.801517-7.390521-4.341407-15.921902-6.427697-23.701236-4.939974l-117.832918 31.562425-24.865629-92.789253c-9.727493-5.209074-132.378625-51.312091-132.378625-51.312091l-157.925701 42.383711c-10.103005 2.707368-17.869037 9.733632-21.947483 18.571971L164.713049 328.115423c-5.232607 7.762963-7.142908 17.595845-4.513303 27.35608 4.845841 18.131998 23.300144 28.85915 41.49558 23.996938 10.131654-2.716577 18.047073-9.766374 22.041617-18.751029l69.778673-143.892613 58.37212-15.261942L198.365857 519.385951c0 0-128.465936 127.597246-134.507889 131.93149-19.509215 13.991137-28.226817 42.199537-15.644616 62.673623 12.428722 20.226473 36.797079 27.778659 66.522873 13.890864L262.885319 605.563333z" p-id="14625"></path></svg>