<?xml version="1.0" encoding="utf-8"?>
<svg version="1.1" xmlns:xlink="http://www.w3.org/1999/xlink" width="92px" height="6px" preserveAspectRatio="xMinYMid meet" viewBox="426 2077  92 4" xmlns="http://www.w3.org/2000/svg">
  <path d="M 431 2075.5  A 3 3 0 0 0 428 2078.5 A 3 3 0 0 0 431 2081.5 A 3 3 0 0 0 434 2078.5 A 3 3 0 0 0 431 2075.5 Z M 431 2076.5  A 2 2 0 0 1 433 2078.5 A 2 2 0 0 1 431 2080.5 A 2 2 0 0 1 429 2078.5 A 2 2 0 0 1 431 2076.5 Z " fill-rule="nonzero" fill="#0702f8" stroke="none" />
  <path d="M 433 2078.5  L 516 2078.5  " stroke-width="1" stroke="#0702f8" fill="none" />
</svg>