<?xml version="1.0" encoding="utf-8"?>
<svg version="1.1" xmlns:xlink="http://www.w3.org/1999/xlink" width="4px" height="4px" preserveAspectRatio="xMinYMid meet" viewBox="514 2253  4 2" xmlns="http://www.w3.org/2000/svg">
  <path d="M 480 2250.5  A 3 3 0 0 0 477 2253.5 A 3 3 0 0 0 480 2256.5 A 3 3 0 0 0 483 2253.5 A 3 3 0 0 0 480 2250.5 Z M 480 2251.5  A 2 2 0 0 1 482 2253.5 A 2 2 0 0 1 480 2255.5 A 2 2 0 0 1 478 2253.5 A 2 2 0 0 1 480 2251.5 Z " fill-rule="nonzero" fill="#0702f8" stroke="none" />
  <path d="M 482 2253.5  L 516 2253.5  " stroke-width="1" stroke="#0702f8" fill="none" />
</svg>