<?xml version="1.0" encoding="utf-8"?>
<svg version="1.1" xmlns:xlink="http://www.w3.org/1999/xlink" width="29px" height="16px" xmlns="http://www.w3.org/2000/svg">
  <g transform="matrix(1 0 0 1 -141 -1523 )">
    <path d="M 28.4619140625 12.9722222222222  C 28.8206380208333 13.3240740740741  29 13.7407407407407  29 14.2222222222222  C 29 14.7037037037037  28.8206380208333 15.1203703703704  28.4619140625 15.4722222222222  C 28.1031901041667 15.8240740740741  27.6783854166667 16  27.1875 16  L 1.8125 16  C 1.32161458333333 16  0.896809895833333 15.8240740740741  0.5380859375 15.4722222222222  C 0.179361979166667 15.1203703703704  0 14.7037037037037  0 14.2222222222222  C 0 13.7407407407407  0.179361979166667 13.3240740740741  0.5380859375 12.9722222222222  L 13.2255859375 0.527777777777779  C 13.5843098958333 0.175925925925924  14.0091145833333 0  14.5 0  C 14.9908854166667 0  15.4156901041667 0.175925925925924  15.7744140625 0.527777777777779  L 28.4619140625 12.9722222222222  Z " fill-rule="nonzero" fill="#f2f2f2" stroke="none" transform="matrix(1 0 0 1 141 1523 )" />
  </g>
</svg>