<?xml version="1.0" encoding="utf-8"?>
<svg version="1.1" xmlns:xlink="http://www.w3.org/1999/xlink" width="12px" height="12px" viewBox="142 2275.5  12 12" xmlns="http://www.w3.org/2000/svg">
  <path d="M 148 2275.5  C 151.36 2275.5  154 2278.14  154 2281.5  C 154 2284.86  151.36 2287.5  148 2287.5  C 144.64 2287.5  142 2284.86  142 2281.5  C 142 2278.14  144.64 2275.5  148 2275.5  Z " fill-rule="nonzero" fill="#ffffff" stroke="none" />
  <path d="M 148 2276  C 151.08 2276  153.5 2278.42  153.5 2281.5  C 153.5 2284.58  151.08 2287  148 2287  C 144.92 2287  142.5 2284.58  142.5 2281.5  C 142.5 2278.42  144.92 2276  148 2276  Z " stroke-width="1" stroke="#797979" fill="none" />
  <path d="M 148 2284.5  C 146.32 2284.5  145 2283.18  145 2281.5  C 145 2279.82  146.32 2278.5  148 2278.5  C 149.68 2278.5  151 2279.82  151 2281.5  C 151 2283.18  149.68 2284.5  148 2284.5  " fill-rule="nonzero" fill="#797979" stroke="none" />
</svg>