<?xml version="1.0" encoding="utf-8"?>
<svg version="1.1" xmlns:xlink="http://www.w3.org/1999/xlink" width="12px" height="12px" viewBox="142 2257.5  12 12" xmlns="http://www.w3.org/2000/svg">
  <path d="M 148 2257.5  C 151.36 2257.5  154 2260.14  154 2263.5  C 154 2266.86  151.36 2269.5  148 2269.5  C 144.64 2269.5  142 2266.86  142 2263.5  C 142 2260.14  144.64 2257.5  148 2257.5  Z " fill-rule="nonzero" fill="#ffffff" stroke="none" />
  <path d="M 148 2258  C 151.08 2258  153.5 2260.42  153.5 2263.5  C 153.5 2266.58  151.08 2269  148 2269  C 144.92 2269  142.5 2266.58  142.5 2263.5  C 142.5 2260.42  144.92 2258  148 2258  Z " stroke-width="1" stroke="#797979" fill="none" />
  <path d="M 148 2266.5  C 146.32 2266.5  145 2265.18  145 2263.5  C 145 2261.82  146.32 2260.5  148 2260.5  C 149.68 2260.5  151 2261.82  151 2263.5  C 151 2265.18  149.68 2266.5  148 2266.5  " fill-rule="nonzero" fill="#797979" stroke="none" />
</svg>