<?xml version="1.0" encoding="utf-8"?>
<svg version="1.1" xmlns:xlink="http://www.w3.org/1999/xlink" width="15px" height="16px" xmlns="http://www.w3.org/2000/svg">
  <g transform="matrix(1 0 0 1 -177 -1006 )">
    <path d="M 2.314453125 13.3557692307692  C 2.43815104166667 13.2339743589744  2.5 13.0897435897436  2.5 12.9230769230769  C 2.5 12.7564102564103  2.43815104166667 12.6121794871795  2.314453125 12.4903846153846  C 2.19075520833333 12.3685897435897  2.04427083333333 12.3076923076923  1.875 12.3076923076923  C 1.70572916666667 12.3076923076923  1.55924479166667 12.3685897435897  1.435546875 12.4903846153846  C 1.31184895833333 12.6121794871795  1.25 12.7564102564103  1.25 12.9230769230769  C 1.25 13.0897435897436  1.31184895833333 13.2339743589744  1.435546875 13.3557692307692  C 1.55924479166667 13.4775641025641  1.70572916666667 13.5384615384615  1.875 13.5384615384615  C 2.04427083333333 13.5384615384615  2.19075520833333 13.4775641025641  2.314453125 13.3557692307692  Z M 13.5400390625 8.16346153846154  C 13.6800130208333 7.86858974358974  13.75 7.60897435897436  13.75 7.38461538461539  C 13.75 7.05769230769231  13.623046875 6.77083333333333  13.369140625 6.52403846153846  C 13.115234375 6.27724358974359  12.8255208333333 6.15384615384615  12.5 6.15384615384615  L 9.0625 6.15384615384615  C 9.0625 5.78205128205128  9.21875 5.27083333333333  9.53125 4.62019230769231  C 9.84375 3.96955128205128  10 3.4551282051282  10 3.07692307692308  C 10 2.44871794871795  9.89583333333333 1.98397435897436  9.6875 1.68269230769231  C 9.47916666666667 1.38141025641026  9.0625 1.23076923076923  8.4375 1.23076923076923  C 8.26822916666667 1.3974358974359  8.14453125 1.66987179487179  8.06640625 2.04807692307692  C 7.98828125 2.42628205128205  7.88899739583333 2.82852564102564  7.7685546875 3.25480769230769  C 7.64811197916667 3.68108974358974  7.45442708333333 4.03205128205128  7.1875 4.30769230769231  C 7.04427083333333 4.4551282051282  6.79361979166667 4.74679487179487  6.435546875 5.18269230769231  C 6.40950520833333 5.21474358974359  6.33463541666667 5.31089743589743  6.2109375 5.47115384615385  C 6.08723958333333 5.63141025641026  5.98470052083333 5.76282051282051  5.9033203125 5.86538461538461  C 5.82194010416667 5.96794871794872  5.70963541666667 6.10416666666667  5.56640625 6.27403846153846  C 5.42317708333333 6.44391025641026  5.29296875 6.5849358974359  5.17578125 6.69711538461539  C 5.05859375 6.80929487179487  4.93326822916667 6.92307692307692  4.7998046875 7.03846153846154  C 4.66634114583333 7.15384615384615  4.5361328125 7.24038461538461  4.4091796875 7.29807692307692  C 4.2822265625 7.35576923076923  4.16666666666667 7.38461538461539  4.0625 7.38461538461539  L 3.75 7.38461538461539  L 3.75 13.5384615384615  L 4.0625 13.5384615384615  C 4.14713541666667 13.5384615384615  4.24967447916667 13.5480769230769  4.3701171875 13.5673076923077  C 4.49055989583333 13.5865384615385  4.59798177083333 13.6073717948718  4.6923828125 13.6298076923077  C 4.78678385416667 13.6522435897436  4.91048177083333 13.6875  5.0634765625 13.7355769230769  C 5.21647135416667 13.7836538461538  5.33040364583333 13.8205128205128  5.4052734375 13.8461538461538  C 5.48014322916667 13.8717948717949  5.595703125 13.911858974359  5.751953125 13.9663461538462  C 5.908203125 14.0208333333333  6.00260416666667 14.0544871794872  6.03515625 14.0673076923077  C 7.40885416666667 14.5352564102564  8.52213541666667 14.7692307692308  9.375 14.7692307692308  L 10.556640625 14.7692307692308  C 11.806640625 14.7692307692308  12.431640625 14.2339743589744  12.431640625 13.1634615384615  C 12.431640625 12.9967948717949  12.4153645833333 12.8173076923077  12.3828125 12.625  C 12.578125 12.5224358974359  12.7327473958333 12.3541666666667  12.8466796875 12.1201923076923  C 12.9606119791667 11.8862179487179  13.017578125 11.650641025641  13.017578125 11.4134615384615  C 13.017578125 11.1762820512821  12.958984375 10.9551282051282  12.841796875 10.75  C 13.1868489583333 10.4294871794872  13.359375 10.0480769230769  13.359375 9.60576923076923  C 13.359375 9.44551282051282  13.3268229166667 9.2676282051282  13.26171875 9.07211538461539  C 13.1966145833333 8.87660256410256  13.115234375 8.72435897435897  13.017578125 8.61538461538461  C 13.2259114583333 8.60897435897436  13.4000651041667 8.45833333333333  13.5400390625 8.16346153846154  Z M 14.2578125 5.65384615384615  C 14.7526041666667 6.14102564102564  15 6.71474358974359  15 7.375  C 15 7.94551282051282  14.8404947916667 8.46794871794872  14.521484375 8.94230769230769  C 14.580078125 9.15384615384615  14.609375 9.375  14.609375 9.60576923076923  C 14.609375 10.099358974359  14.4856770833333 10.5608974358974  14.23828125 10.9903846153846  C 14.2578125 11.125  14.267578125 11.2628205128205  14.267578125 11.4038461538462  C 14.267578125 12.0512820512821  14.072265625 12.6217948717949  13.681640625 13.1153846153846  C 13.6881510416667 14.0064102564103  13.4114583333333 14.7099358974359  12.8515625 15.2259615384615  C 12.2916666666667 15.7419871794872  11.552734375 16  10.634765625 16  L 10.283203125 16  L 9.375 16  C 8.75 16  8.13313802083333 15.9278846153846  7.5244140625 15.7836538461538  C 6.91569010416667 15.6394230769231  6.2109375 15.4294871794872  5.41015625 15.1538461538462  C 4.65494791666667 14.8974358974359  4.20572916666667 14.7692307692308  4.0625 14.7692307692308  L 1.25 14.7692307692308  C 0.904947916666667 14.7692307692308  0.6103515625 14.6490384615385  0.3662109375 14.4086538461538  C 0.1220703125 14.1682692307692  0 13.8782051282051  0 13.5384615384615  L 0 7.38461538461539  C 0 7.04487179487179  0.1220703125 6.75480769230769  0.3662109375 6.51442307692308  C 0.6103515625 6.27403846153846  0.904947916666667 6.15384615384615  1.25 6.15384615384615  L 3.92578125 6.15384615384615  C 4.16015625 6  4.60611979166667 5.50320512820513  5.263671875 4.66346153846154  C 5.64127604166667 4.18269230769231  5.98958333333333 3.7724358974359  6.30859375 3.43269230769231  C 6.46484375 3.2724358974359  6.58040364583333 2.99839743589743  6.6552734375 2.61057692307692  C 6.73014322916667 2.22275641025641  6.82942708333333 1.81730769230769  6.953125 1.39423076923077  C 7.07682291666667 0.971153846153847  7.27864583333333 0.625  7.55859375 0.35576923076923  C 7.8125 0.118589743589745  8.10546875 0  8.4375 0  C 8.984375 0  9.47591145833334 0.104166666666668  9.912109375 0.3125  C 10.3483072916667 0.520833333333332  10.6803385416667 0.846153846153847  10.908203125 1.28846153846154  C 11.1360677083333 1.73076923076923  11.25 2.32692307692308  11.25 3.07692307692308  C 11.25 3.67307692307692  11.09375 4.28846153846154  10.78125 4.92307692307692  L 12.5 4.92307692307692  C 13.1770833333333 4.92307692307692  13.7630208333333 5.16666666666667  14.2578125 5.65384615384615  Z " fill-rule="nonzero" fill="#000000" stroke="none" transform="matrix(1 0 0 1 177 1006 )" />
  </g>
</svg>