<?xml version="1.0" encoding="utf-8"?>
<svg version="1.1" xmlns:xlink="http://www.w3.org/1999/xlink" width="46px" height="50px" xmlns="http://www.w3.org/2000/svg">
  <g transform="matrix(1 0 0 1 -315 -1902 )">
    <path d="M 11.9247159090909 38.1184895833333  C 12.3385416666667 38.5308159722222  12.5454545454545 39.0190972222222  12.5454545454545 39.5833333333333  C 12.5454545454545 40.1475694444444  12.3385416666667 40.6358506944444  11.9247159090909 41.0481770833333  C 11.5108901515152 41.4605034722222  11.0208333333333 41.6666666666667  10.4545454545455 41.6666666666667  C 9.88825757575758 41.6666666666667  9.39820075757576 41.4605034722222  8.984375 41.0481770833333  C 8.57054924242424 40.6358506944444  8.36363636363636 40.1475694444444  8.36363636363636 39.5833333333333  C 8.36363636363636 39.0190972222222  8.57054924242424 38.5308159722222  8.984375 38.1184895833333  C 9.39820075757576 37.7061631944444  9.88825757575758 37.5  10.4545454545455 37.5  C 11.0208333333333 37.5  11.5108901515152 37.7061631944444  11.9247159090909 38.1184895833333  Z M 45.8203125 37.3046875  C 45.9401041666667 38.671875  46 40.0933159722222  46 41.5690104166667  C 46 44.1948784722222  45.2050189393939 46.2565104166667  43.6150568181818 47.75390625  C 42.0250946969697 49.2513020833333  39.9124053030303 50  37.2769886363636 50  L 8.72301136363636 50  C 6.0875946969697 50  3.9749053030303 49.2513020833333  2.38494318181818 47.75390625  C 0.794981060606061 46.2565104166667  0 44.1948784722222  0 41.5690104166667  C 0 40.0933159722222  0.0598958333333333 38.671875  0.1796875 37.3046875  C 0.299479166666667 35.9375  0.560842803030303 34.4401041666667  0.963778409090909 32.8125  C 1.36671401515152 31.1848958333333  1.88399621212121 29.7471788194444  2.515625 28.4993489583333  C 3.14725378787879 27.2515190972222  4.02935606060606 26.1338975694444  5.16193181818182 25.146484375  C 6.29450757575758 24.1590711805556  7.60132575757576 23.5026041666667  9.08238636363636 23.1770833333333  C 8.6032196969697 24.3055555555556  8.36363636363636 25.6076388888889  8.36363636363636 27.0833333333333  L 8.36363636363636 33.69140625  C 7.10037878787879 34.1254340277778  6.0875946969697 34.8849826388889  5.32528409090909 35.9700520833333  C 4.56297348484849 37.0551215277778  4.18181818181818 38.2595486111111  4.18181818181818 39.5833333333333  C 4.18181818181818 41.3194444444444  4.79166666666667 42.7951388888889  6.01136363636364 44.0104166666667  C 7.23106060606061 45.2256944444444  8.71212121212121 45.8333333333333  10.4545454545455 45.8333333333333  C 12.1969696969697 45.8333333333333  13.6780303030303 45.2256944444444  14.8977272727273 44.0104166666667  C 16.1174242424242 42.7951388888889  16.7272727272727 41.3194444444444  16.7272727272727 39.5833333333333  C 16.7272727272727 38.2595486111111  16.3406723484848 37.0551215277778  15.5674715909091 35.9700520833333  C 14.7942708333333 34.8849826388889  13.7869318181818 34.1254340277778  12.5454545454545 33.69140625  L 12.5454545454545 27.0833333333333  C 12.5454545454545 25.7378472222222  12.8177083333333 24.7287326388889  13.3622159090909 24.0559895833333  C 16.2372159090909 26.3129340277778  19.4498106060606 27.44140625  23 27.44140625  C 26.5501893939394 27.44140625  29.7627840909091 26.3129340277778  32.6377840909091 24.0559895833333  C 33.1822916666667 24.7287326388889  33.4545454545455 25.7378472222222  33.4545454545455 27.0833333333333  L 33.4545454545455 29.1666666666667  C 31.1458333333333 29.1666666666667  29.1747159090909 29.98046875  27.5411931818182 31.6080729166667  C 25.9076704545455 33.2356770833333  25.0909090909091 35.1996527777778  25.0909090909091 37.5  L 25.0909090909091 40.3971354166667  C 24.3939393939394 41.0264756944444  24.0454545454545 41.796875  24.0454545454545 42.7083333333333  C 24.0454545454545 43.5763888888889  24.3503787878788 44.3142361111111  24.9602272727273 44.921875  C 25.5700757575758 45.5295138888889  26.3106060606061 45.8333333333333  27.1818181818182 45.8333333333333  C 28.0530303030303 45.8333333333333  28.7935606060606 45.5295138888889  29.4034090909091 44.921875  C 30.0132575757576 44.3142361111111  30.3181818181818 43.5763888888889  30.3181818181818 42.7083333333333  C 30.3181818181818 41.796875  29.969696969697 41.0264756944444  29.2727272727273 40.3971354166667  L 29.2727272727273 37.5  C 29.2727272727273 36.3715277777778  29.686553030303 35.3949652777778  30.5142045454545 34.5703125  C 31.3418560606061 33.7456597222222  32.3219696969697 33.3333333333333  33.4545454545455 33.3333333333333  C 34.5871212121212 33.3333333333333  35.5672348484849 33.7456597222222  36.3948863636364 34.5703125  C 37.2225378787879 35.3949652777778  37.6363636363636 36.3715277777778  37.6363636363636 37.5  L 37.6363636363636 40.3971354166667  C 36.9393939393939 41.0264756944444  36.5909090909091 41.796875  36.5909090909091 42.7083333333333  C 36.5909090909091 43.5763888888889  36.8958333333333 44.3142361111111  37.5056818181818 44.921875  C 38.1155303030303 45.5295138888889  38.8560606060606 45.8333333333333  39.7272727272727 45.8333333333333  C 40.5984848484849 45.8333333333333  41.3390151515152 45.5295138888889  41.9488636363636 44.921875  C 42.5587121212121 44.3142361111111  42.8636363636364 43.5763888888889  42.8636363636364 42.7083333333333  C 42.8636363636364 41.796875  42.5151515151515 41.0264756944444  41.8181818181818 40.3971354166667  L 41.8181818181818 37.5  C 41.8181818181818 36.0243055555556  41.4424715909091 34.6408420138889  40.6910511363636 33.349609375  C 39.9396306818182 32.0583767361111  38.9214015151515 31.0438368055555  37.6363636363636 30.3059895833333  C 37.6363636363636 30.0889756944444  37.6418087121212 29.6278211805556  37.6526988636364 28.9225260416667  C 37.6635890151515 28.2172309027778  37.6635890151515 27.6963975694444  37.6526988636364 27.3600260416667  C 37.6418087121212 27.0236545138889  37.6145833333333 26.5733506944444  37.5710227272727 26.0091145833333  C 37.5274621212121 25.4448784722222  37.4512310606061 24.9348958333333  37.3423295454545 24.4791666666667  C 37.233428030303 24.0234375  37.0918560606061 23.5894097222222  36.9176136363636 23.1770833333333  C 38.3986742424242 23.5026041666667  39.7054924242424 24.1590711805556  40.8380681818182 25.146484375  C 41.9706439393939 26.1338975694444  42.8527462121212 27.2515190972222  43.484375 28.4993489583333  C 44.1160037878788 29.7471788194444  44.6332859848485 31.1848958333333  45.0362215909091 32.8125  C 45.4391571969697 34.4401041666667  45.7005208333333 35.9375  45.8203125 37.3046875  Z M 31.8700284090909 3.662109375  C 34.3203125 6.103515625  35.5454545454545 9.04947916666667  35.5454545454545 12.5  C 35.5454545454545 15.9505208333333  34.3203125 18.896484375  31.8700284090909 21.337890625  C 29.4197443181818 23.779296875  26.4630681818182 25  23 25  C 19.5369318181818 25  16.5802556818182 23.779296875  14.1299715909091 21.337890625  C 11.6796875 18.896484375  10.4545454545455 15.9505208333333  10.4545454545455 12.5  C 10.4545454545455 9.04947916666667  11.6796875 6.103515625  14.1299715909091 3.662109375  C 16.5802556818182 1.220703125  19.5369318181818 0  23 0  C 26.4630681818182 0  29.4197443181818 1.220703125  31.8700284090909 3.662109375  Z " fill-rule="nonzero" fill="#aaaaaa" stroke="none" transform="matrix(1 0 0 1 315 1902 )" />
  </g>
</svg>