<?xml version="1.0" encoding="utf-8"?>
<svg version="1.1" xmlns:xlink="http://www.w3.org/1999/xlink" width="33px" height="40px" xmlns="http://www.w3.org/2000/svg">
  <defs>
    <filter x="1330px" y="207px" width="33px" height="40px" filterUnits="userSpaceOnUse" id="filter82">
      <feOffset dx="1" dy="1" in="SourceAlpha" result="shadowOffsetInner" />
      <feGaussianBlur stdDeviation="2.5" in="shadowOffsetInner" result="shadowGaussian" />
      <feComposite in2="shadowGaussian" operator="atop" in="SourceAlpha" result="shadowComposite" />
      <feColorMatrix type="matrix" values="0 0 0 0 0  0 0 0 0 0  0 0 0 0 0  0 0 0 0.698039215686274 0  " in="shadowComposite" />
    </filter>
    <g id="widget83">
      <path d="M 1345.5 240.051074642438  C 1341.1 232.916045933808  1334.5 228.63502870863  1334.5 221.5  C 1334.5 217.785714285714  1336.7 211.5  1345.5 211.5  C 1354.3 211.5  1356.5 217.785714285714  1356.5 221.5  C 1356.5 228.63502870863  1349.9 232.916045933808  1345.5 240.051074642438  Z " fill-rule="nonzero" fill="#ff0000" stroke="none" />
      <path d="M 1345.5 241  C 1340.9 233.5  1334 229  1334 221.5  C 1334 217.6  1336.3 211  1345.5 211  C 1354.7 211  1357 217.6  1357 221.5  C 1357 229  1350.1 233.5  1345.5 241  Z M 1345.5 239.102149284875  C 1349.7 232.332091867616  1356 228.27005741726  1356 221.5  C 1356 217.971428571429  1353.9 212  1345.5 212  C 1337.1 212  1335 217.971428571429  1335 221.5  C 1335 228.27005741726  1341.3 232.332091867616  1345.5 239.102149284875  Z " fill-rule="nonzero" fill="#ffffff" stroke="none" />
    </g>
  </defs>
  <g transform="matrix(1 0 0 1 -1330 -207 )">
    <use xlink:href="#widget83" filter="url(#filter82)" />
    <use xlink:href="#widget83" />
  </g>
</svg>