<?xml version="1.0" encoding="utf-8"?>
<svg version="1.1" xmlns:xlink="http://www.w3.org/1999/xlink" width="30px" height="36px" xmlns="http://www.w3.org/2000/svg">
  <defs>
    <filter x="1467px" y="228px" width="30px" height="36px" filterUnits="userSpaceOnUse" id="filter84">
      <feOffset dx="1" dy="1" in="SourceAlpha" result="shadowOffsetInner" />
      <feGaussianBlur stdDeviation="2.5" in="shadowOffsetInner" result="shadowGaussian" />
      <feComposite in2="shadowGaussian" operator="atop" in="SourceAlpha" result="shadowComposite" />
      <feColorMatrix type="matrix" values="0 0 0 0 0  0 0 0 0 0  0 0 0 0 0  0 0 0 0.698039215686274 0  " in="shadowComposite" />
    </filter>
    <g id="widget85">
      <path d="M 1481 257.05319656855  C 1477.2 250.917351734493  1471.5 247.235844834058  1471.5 241.1  C 1471.5 237.905714285714  1473.4 232.5  1481 232.5  C 1488.6 232.5  1490.5 237.905714285714  1490.5 241.1  C 1490.5 247.235844834058  1484.8 250.917351734493  1481 257.05319656855  Z " fill-rule="nonzero" fill="#ff0000" stroke="none" />
      <path d="M 1481 258  C 1477 251.5  1471 247.6  1471 241.1  C 1471 237.72  1473 232  1481 232  C 1489 232  1491 237.72  1491 241.1  C 1491 247.6  1485 251.5  1481 258  Z M 1481 256.106393137101  C 1484.6 250.334703468985  1490 246.871689668116  1490 241.1  C 1490 238.091428571429  1488.2 233  1481 233  C 1473.8 233  1472 238.091428571429  1472 241.1  C 1472 246.871689668116  1477.4 250.334703468985  1481 256.106393137101  Z " fill-rule="nonzero" fill="#ffffff" stroke="none" />
    </g>
  </defs>
  <g transform="matrix(1 0 0 1 -1467 -228 )">
    <use xlink:href="#widget85" filter="url(#filter84)" />
    <use xlink:href="#widget85" />
  </g>
</svg>