<?xml version="1.0" encoding="utf-8"?>
<svg version="1.1" xmlns:xlink="http://www.w3.org/1999/xlink" width="22px" height="20px" preserveAspectRatio="xMinYMid meet" viewBox="1234 753  22 18" xmlns="http://www.w3.org/2000/svg">
  <path d="M 1245 758.5  A 3 3 0 0 0 1242 761.5 A 3 3 0 0 0 1245 764.5 A 3 3 0 0 0 1248 761.5 A 3 3 0 0 0 1245 758.5 Z M 1245 759.5  A 2 2 0 0 1 1247 761.5 A 2 2 0 0 1 1245 763.5 A 2 2 0 0 1 1243 761.5 A 2 2 0 0 1 1245 759.5 Z M 1323.94644660941 756.853553390593  L 1328.59289321881 761.5  L 1323.94644660941 766.146446609407  L 1324.65355339059 766.853553390593  L 1329.65355339059 761.853553390593  L 1330.00710678119 761.5  L 1329.65355339059 761.146446609407  L 1324.65355339059 756.146446609407  L 1323.94644660941 756.853553390593  Z " fill-rule="nonzero" fill="#0702f8" stroke="none" />
  <path d="M 1247 761.5  L 1329 761.5  " stroke-width="1" stroke="#0702f8" fill="none" />
</svg>