<?xml version="1.0" encoding="utf-8"?>
<svg version="1.1" xmlns:xlink="http://www.w3.org/1999/xlink" width="36px" height="36px" xmlns="http://www.w3.org/2000/svg">
  <g transform="matrix(1 0 0 1 -1211 -2401 )">
    <path d="M 29.671875 19.03125  C 29.953125 18.75  30.09375 18.3984375  30.09375 17.9765625  C 30.09375 17.5546875  29.953125 17.203125  29.671875 16.921875  L 21.1875 8.4375  L 19.0546875 6.3046875  C 18.7734375 6.0234375  18.421875 5.8828125  18 5.8828125  C 17.578125 5.8828125  17.2265625 6.0234375  16.9453125 6.3046875  L 14.8125 8.4375  L 6.328125 16.921875  C 6.046875 17.203125  5.90625 17.5546875  5.90625 17.9765625  C 5.90625 18.3984375  6.046875 18.75  6.328125 19.03125  L 8.4609375 21.1640625  C 8.7421875 21.4453125  9.09375 21.5859375  9.515625 21.5859375  C 9.9375 21.5859375  10.2890625 21.4453125  10.5703125 21.1640625  L 15 16.734375  L 15 28.5  C 15 28.90625  15.1484375 29.2578125  15.4453125 29.5546875  C 15.7421875 29.8515625  16.09375 30  16.5 30  L 19.5 30  C 19.90625 30  20.2578125 29.8515625  20.5546875 29.5546875  C 20.8515625 29.2578125  21 28.90625  21 28.5  L 21 16.734375  L 25.4296875 21.1640625  C 25.7265625 21.4609375  26.078125 21.609375  26.484375 21.609375  C 26.890625 21.609375  27.2421875 21.4609375  27.5390625 21.1640625  L 29.671875 19.03125  Z M 33.5859375 8.96484375  C 35.1953125 11.72265625  36 14.734375  36 18  C 36 21.265625  35.1953125 24.27734375  33.5859375 27.03515625  C 31.9765625 29.79296875  29.79296875 31.9765625  27.03515625 33.5859375  C 24.27734375 35.1953125  21.265625 36  18 36  C 14.734375 36  11.72265625 35.1953125  8.96484375 33.5859375  C 6.20703125 31.9765625  4.0234375 29.79296875  2.4140625 27.03515625  C 0.8046875 24.27734375  0 21.265625  0 18  C 0 14.734375  0.8046875 11.72265625  2.4140625 8.96484375  C 4.0234375 6.20703125  6.20703125 4.0234375  8.96484375 2.4140625  C 11.72265625 0.804687499999997  14.734375 0  18 0  C 21.265625 0  24.27734375 0.804687499999997  27.03515625 2.4140625  C 29.79296875 4.0234375  31.9765625 6.20703125  33.5859375 8.96484375  Z " fill-rule="nonzero" fill="#000000" stroke="none" transform="matrix(1 0 0 1 1211 2401 )" />
  </g>
</svg>