<svg t="1585379231785" class="icon" viewBox="0 0 1024 1024" version="1.1" xmlns="http://www.w3.org/2000/svg" p-id="4691" width="200" height="200"><path d="M698.166303 977.454545l-501.806545-0.015515a901.957818 901.957818 0 0 1-24.669091-51.758545c-49.803636-113.415758 27.725576-278.000485 37.686303-311.699394 9.991758-33.683394 1.349818-77.28097-37.670788-260.545939-28.051394-131.816727 4.887273-250.445576 25.6-306.65697C210.695758 46.545455 209.392485 46.545455 209.392485 46.545455l175.848727 0.06206s40.323879 26.949818 68.732121 42.775273c172.280242 91.136 160.364606 194.389333 112.702061 247.389091a3.723636 3.723636 0 0 0-1.489455 3.009939c0 1.551515 0.977455 2.978909 2.404849 3.490909 62.308848 24.188121 271.235879 95.790545 310.613333 305.958788 21.302303 113.462303-21.209212 185.406061-60.540121 224.038788-27.089455-16.601212-56.056242-13.156848-90.034424 3.956364-63.488-60.509091-193.473939-192.620606-255.332849-254.029576a71.214545 71.214545 0 0 1-17.408-43.706182c-14.661818-115.324121-34.831515-306.905212-35.731394-345.025939C414.564848 46.607515 146.990545 74.472727 225.792 310.721939c22.915879 68.825212 84.309333 289.233455 101.701818 329.231516 17.408 39.998061 22.000485 63.239758 76.955152 104.153212 30.875152 23.07103 251.655758 167.486061 291.172848 222.688969 1.086061 3.258182 4.173576 9.029818 2.544485 10.658909" p-id="4692"></path></svg>