<svg t="1585379875989" class="icon" viewBox="0 0 1194 1024" version="1.1" xmlns="http://www.w3.org/2000/svg" p-id="5511" width="200" height="200"><path d="M597.343004 824.888889c-157.098667 0-284.444444-89.144889-284.444444-199.111111 0-15.701333 25.457778-28.444444 56.888889-28.444445s56.888889 12.743111 56.888889 28.444445c0 47.132444 76.401778 85.333333 170.666666 85.333333s170.666667-38.200889 170.666667-85.333333c0-15.701333 25.457778-28.444444 56.888889-28.444445s56.888889 12.743111 56.888889 28.444445c0 109.966222-127.345778 199.111111-284.444445 199.111111z m-142.222222-455.111111a56.888889 56.888889 0 1 1-56.888889 56.888889 56.888889 56.888889 0 0 1 56.888889-56.888889z m284.444445 0a56.888889 56.888889 0 1 1-56.888889 56.888889 56.888889 56.888889 0 0 1 56.888889-56.888889z m332.430222 333.653333a511.687111 511.687111 0 0 1-949.304889 0 169.955556 169.955556 0 0 1-20.679111-319.032889 511.345778 511.345778 0 0 1 990.663111 0 169.955556 169.955556 0 0 1-20.679111 319.032889zM1024.009671 483.555556h-29.866667a397.795556 397.795556 0 0 0-793.6 0H170.676338a56.888889 56.888889 0 0 0 0 113.777777h37.831111a398.051556 398.051556 0 0 0 777.671111 0H1024.009671a56.888889 56.888889 0 0 0 0-113.777777z" p-id="5512"></path></svg>