<svg t="1585379913901" class="icon" viewBox="0 0 1024 1024" version="1.1" xmlns="http://www.w3.org/2000/svg" p-id="6300" width="200" height="200"><path d="M372.653479 249.903831a35.717295 35.717295 0 0 0-35.717295 35.717296v34.818501a35.717295 35.717295 0 1 0 71.395512 0V285.621127a35.717295 35.717295 0 0 0-35.678217-35.717296z" p-id="6301"></path><path d="M651.279643 249.903831a35.717295 35.717295 0 0 0-35.717295 35.717296v34.818501a35.717295 35.717295 0 1 0 71.395512 0V285.621127a35.717295 35.717295 0 0 0-35.678217-35.717296z" p-id="6302"></path><path d="M599.6576 411.139673a35.717295 35.717295 0 0 0-49.31644 10.824607 52.755305 52.755305 0 0 1-38.843535 22.235384 50.371546 50.371546 0 0 1-38.022897-22.11815 35.717295 35.717295 0 0 0-60.453672 37.98382 121.14181 121.14181 0 0 0 98.476569 55.529842 123.330179 123.330179 0 0 0 98.945504-55.099984 35.717295 35.717295 0 0 0-10.785529-49.355519z" p-id="6303"></path><path d="M781.370316 71.747214a91.442528 91.442528 0 0 1 61.899557 25.478858 150.294001 150.294001 0 0 1 35.834529 71.43459 503.637307 503.637307 0 0 1 13.638224 126.886277c0 26.768432-1.289574 55.647077-3.907801 85.971608a35.678217 35.678217 0 0 0 32.317509 38.765379h3.282552a35.717295 35.717295 0 0 0 35.521905-32.473821c2.93085-32.434743 4.376736-63.579911 4.298581-92.341322a573.391543 573.391543 0 0 0-15.943826-144.979392 215.866891 215.866891 0 0 0-56.858495-106.214013l-0.937872-0.820638A162.408182 162.408182 0 0 0 782.347266 0.234468h-2.383758a337.594871 337.594871 0 0 0-160.219814 59.984735 652.876202 652.876202 0 0 1-92.536712 46.659136 78.546787 78.546787 0 0 1-26.455808 4.923829 177.257823 177.257823 0 0 1-92.732102-42.985804l-5.666311-3.9078A254.671348 254.671348 0 0 0 254.364363 5.001984a191.99023 191.99023 0 0 0-19.890704 1.328653l-4.10319 0.429858A173.740803 173.740803 0 0 0 71.518385 156.429247 927.829034 927.829034 0 0 0 59.794984 330.443596c0 18.40574 0.508014 37.163181 1.484964 55.803389a35.678217 35.678217 0 1 0 71.278278-3.9078 928.649672 928.649672 0 0 1-1.36773-51.973745 876.871317 876.871317 0 0 1 9.925813-159.047473 102.345291 102.345291 0 0 1 95.89742-93.787208l4.572127-0.468936c4.68936-0.468936 9.144253-0.937872 12.817585-0.937872a193.201649 193.201649 0 0 1 107.112807 47.206228l6.018012 4.181346a233.49107 233.49107 0 0 0 132.865212 55.256297 150.294001 150.294001 0 0 0 51.07495-9.261487 707.077393 707.077393 0 0 0 103.752099-51.895589 293.085025 293.085025 0 0 1 124.619753-50.410624" p-id="6304"></path><path d="M915.56418 479.252633a35.756373 35.756373 0 0 0-41.813464 28.292475 1444.948252 1444.948252 0 0 1-35.482827 143.963364c-3.595176 11.957869-7.346665 24.580064-11.176309 37.632117a1510.716532 1510.716532 0 0 1-64.908564 189.528317c-33.724317 73.427568-55.139063 73.818348-57.561899 73.544802-34.154175-3.12624-62.173103-98.515646-78.937566-155.491376a412.429247 412.429247 0 0 0-40.3285-105.901389 91.833308 91.833308 0 0 0-116.413372-33.333536 234.46802 234.46802 0 0 0-100.977561 134.467409c-3.165318 7.581133-6.330637 15.123187-9.652266 22.665242l-3.087163 7.112197a529.506946 529.506946 0 0 1-30.558998 63.384521c-9.144253 14.497939-13.833613 16.529995-13.872691 16.569073a17.311555 17.311555 0 0 1-4.962907-1.875744c-16.647229-7.385743-64.674096-73.232178-105.510609-198.789803a1356.006717 1356.006717 0 0 1-49.980766-192.96718 35.717295 35.717295 0 1 0-70.340406 12.426805 1424.940314 1424.940314 0 0 0 52.44268 202.853915c32.669211 100.352313 87.730118 216.570295 143.416273 241.267593a80.930545 80.930545 0 0 0 35.170203 8.440849 92.419478 92.419478 0 0 0 73.97466-49.941689 572.375515 572.375515 0 0 0 35.600061-72.958632l3.009006-6.916807c3.438864-7.815601 6.760495-15.631201 10.121203-23.720348a178.352007 178.352007 0 0 1 66.74523-98.04671 20.398718 20.398718 0 0 1 25.986872 9.691345 415.672722 415.672722 0 0 1 30.676233 85.658983c27.354602 93.201038 58.617005 198.867959 140.91528 206.449092 2.696382 0.234468 5.314608 0.39078 7.8156 0.39078 96.757136 0 145.995421-166.74584 189.567395-314.343459 3.9078-12.934819 7.502977-25.400702 11.059075-37.241337a1518.610289 1518.610289 0 0 0 37.241337-151.114639 35.717295 35.717295 0 0 0-28.17524-41.69623z" p-id="6305"></path></svg>