<svg t="1585380035309" class="icon" viewBox="0 0 1024 1024" version="1.1" xmlns="http://www.w3.org/2000/svg" p-id="8651" width="200" height="200"><path d="M513 214C265.6 214 65 347.8 65 512.7c0 165 200.6 298.7 448 298.7s448-133.7 448-298.7C961 347.8 760.4 214 513 214z m0 522.7c-219.9 0-398.2-100.3-398.2-224s178.3-224 398.2-224c219.9 0 398.2 100.3 398.2 224s-178.3 224-398.2 224z m0-423.1c-110 0-199.1 89.1-199.1 199.1S403 711.8 513 711.8s199.1-89.1 199.1-199.1S623 313.6 513 313.6z m-54.6 186.3c-27.5 0-49.8-22.3-49.8-49.8s22.3-49.8 49.8-49.8c27.5 0 49.8 22.3 49.8 49.8s-22.3 49.8-49.8 49.8z" p-id="8652"></path></svg>