<svg t="1585380220187" class="icon" viewBox="0 0 1024 1024" version="1.1" xmlns="http://www.w3.org/2000/svg" p-id="11048" width="200" height="200"><path d="M128.1204 1023.692964a39.50533 39.50533 0 0 1-37.526652-28.690832A890.405117 890.405117 0 0 1 102.329355 552.801706a291.991471 291.991471 0 0 1 183.710022-187.974414 119.198294 119.198294 0 0 1-2.592751-3.752665l-1.19403-1.808102a255.249467 255.249467 0 0 1-9.518123-232.972282c51.78678-117.014925 199.880597-126.226013 244.059701-126.226013a356.946695 356.946695 0 0 1 57.995736 4.537314c169.313433 28.008529 310.10661 168.187633 358.823028 357.083155a674.52452 674.52452 0 0 1-52.77612 480.375267 305.19403 305.19403 0 0 1-223.488273 152.801706 332.452026 332.452026 0 0 1-49.910448 3.820895 324.434968 324.434968 0 0 1-222.089552-85.594883 250.814499 250.814499 0 0 1-67.104477-120.869936 293.697228 293.697228 0 0 1-2.012794-141.918976 207.556503 207.556503 0 0 0-20.91258 48.818763 488.085288 488.085288 0 0 0 4.469084 262.686567 39.061834 39.061834 0 0 1-0.682303 30.260128 38.447761 38.447761 0 0 1-21.526653 20.469083 40.938166 40.938166 0 0 1-14.260128 2.695096 38.481876 38.481876 0 0 1-36.298507-25.211087 562.081023 562.081023 0 0 1-6.345416-313.859275c18.319829-61.61194 46.840085-101.219616 84.605544-117.765459a99.923241 99.923241 0 0 1 40.69936-8.460554 119.982942 119.982942 0 0 1 34.45629 5.287847l61.953092-126.942431a39.130064 39.130064 0 0 1-18.251599 2.046908h-3.002132a37.936034 37.936034 0 0 1-7.471216 0.648188 171.394456 171.394456 0 0 1-31.385927-2.865672 209.33049 209.33049 0 0 0-206.703625 151.505331 819.889126 819.889126 0 0 0-9.791045 393.688699 39.641791 39.641791 0 0 1-26.780384 48.648188 43.223881 43.223881 0 0 1-10.882729 1.739872z m503.334755-554.029851a141.100213 141.100213 0 0 0-80.034115 20.469083 95.795309 95.795309 0 0 0-41.961621 67.206823 101.628998 101.628998 0 0 0 21.867804 77.646056 263.744136 263.744136 0 0 0 175.897655 86.379531l10.780384-93.816632c-70.550107-8.358209-113.876333-43.462687-115.991472-55.948827a22.481876 22.481876 0 0 1 0.614073-2.183369c1.535181-1.296375 7.812367-5.321962 27.292111-5.321961a392.869936 392.869936 0 0 1 92.110874 15.283582l23.471215-91.462687a468.230277 468.230277 0 0 0-114.046908-18.149254z m25.791045-238.567164a39.50533 39.50533 0 0 0-21.663113 6.481876c-51.172708 33.296375-136.460554 89.006397-96.341152 164.196162a93.236674 93.236674 0 0 0 90.029851 47.385928 267.906183 267.906183 0 0 0 92.759062-19.65032 39.471215 39.471215 0 0 0 21.185501-51.343284 39.027719 39.027719 0 0 0-50.831556-21.560767 177.603412 177.603412 0 0 1-62.567165 13.646055c-12.076759 0-19.991471-2.422175-22.379531-6.823028 1.26226-14.396588 50.968017-46.942431 69.697229-59.189765l0.784648-0.545842 1.125799-0.784648a39.130064 39.130064 0 0 0-21.799573-71.641791z" p-id="11049"></path></svg>