<svg t="1585380614970" class="icon" viewBox="0 0 1024 1024" version="1.1" xmlns="http://www.w3.org/2000/svg" p-id="11871" width="200" height="200"><path d="M510.733659 45.37442c-256.130472 0-463.769532 207.640084-463.769532 463.771579 0 256.137635 207.639061 463.781812 463.769532 463.781812 256.137635 0 463.775672-207.644177 463.775672-463.781812C974.508307 253.014504 766.87027 45.37442 510.733659 45.37442zM535.565207 203.750497c72.375377 6.642281 120.841206 41.37534 120.841206 41.37534l-88.528266 200.751187c0 0-16.802688-18.305925-54.279231-21.021779-16.815991-1.210571-52.345182 12.892635-52.345182 12.892635l-73.014944-204.151633C388.23879 233.595222 463.193923 197.117426 535.565207 203.750497zM317.812811 750.870366c0 0-63.36619-55.655578-88.462774-127.20924-25.098631-71.560826-15.790638-132.376936-15.790638-132.376936l210.758098-1.418302c0 0-8.633634 23.75196 4.988618 60.507072 6.112208 16.486486 33.397644 44.219107 33.397644 44.219107L317.812811 750.870366zM507.975848 568.101739c-27.813462 0-50.353828-23.663956-50.353828-52.857858 0-29.192879 22.540366-52.857858 50.353828-52.857858 27.810393 0 50.360991 23.664979 50.360991 52.857858C558.33684 544.437783 535.786241 568.101739 507.975848 568.101739zM785.684778 644.156926c-30.463826 69.220524-78.013795 105.319697-78.013795 105.319697L557.68704 594.053808c0 0 22.109554-10.388605 37.234019-46.483684 6.779404-16.190751 6.175653-56.05569 6.175653-56.05569l207.731158-2.970658C808.827871 488.543775 816.149627 574.929238 785.684778 644.156926z" p-id="11872"></path></svg>