<svg t="1585380675162" class="icon" viewBox="0 0 1024 1024" version="1.1" xmlns="http://www.w3.org/2000/svg" p-id="12541" width="200" height="200"><path d="M283.2 570.9l-94.6 94.8 0.3 0.3c-20.8 20.9-32.5 49.2-32.5 78.8 0 29.8 11.9 58.4 33 79.3 20.9 21.2 49.5 33.1 79.3 33.1 29.5 0 57.7-11.7 78.6-32.5l0.6 0.6 253.6-254.4H283.2z m180.9-66.8c18.6 0 33.6-15.1 33.6-33.7s-15-33.7-33.6-33.7-33.6 15.1-33.6 33.7c0 18.7 15.1 33.7 33.6 33.7z m124-61.4c12.5 7.6 28.1 7.6 40.6 0s19.7-21.5 18.8-36.1c0.9-14.6-6.3-28.5-18.8-36.1-12.5-7.6-28.1-7.6-40.6 0s-19.7 21.5-18.8 36.1c-0.9 14.6 6.3 28.5 18.8 36.1zM570.7 96.8l-24.4 25.5 48.7 48.8L139 628v0.2c-49.3 50.3-63.8 125.2-36.9 190.3 27 65.1 90.2 107.8 160.5 108.3 46-0.2 90.1-18.6 122.7-51.2l-24.1-24.7c-54.9 52.7-141.8 51.8-195.5-2C111.9 795 111 708 163.7 653l456-457.1L817.4 394l-456 456.9 23.9 24.7 456.8-456.9 38.8 38.9 24.4-25.5L570.7 96.8z m-1.6 429.3c7.5 4.6 17 4.6 24.5 0s11.8-13.1 11.1-21.9c-1-12.2-11.2-21.5-23.3-21.5-12.2 0-22.3 9.4-23.3 21.5-0.9 8.8 3.4 17.2 11 21.9z" p-id="12542"></path></svg>