<svg t="1585380800668" class="icon" viewBox="0 0 1024 1024" version="1.1" xmlns="http://www.w3.org/2000/svg" p-id="13786" width="200" height="200"><path d="M416 957.866667c-12.8 0-27.733333-8.533333-32-21.333334-49.066667-125.866667-64-138.666667-155.733333-162.133333-10.666667-2.133333-23.466667-4.266667-32-6.4-53.333333-10.666667-106.666667-21.333333-123.733334-96-8.533333-40.533333 12.8-85.333333 32-125.866667 6.4-14.933333 17.066667-34.133333 19.2-44.8-2.133333-4.266667-6.4-8.533333-10.666666-14.933333-8.533333-12.8-21.333333-27.733333-29.866667-38.4-8.533333-12.8-12.8-27.733333-8.533333-42.666667 4.266667-14.933333 12.8-27.733333 27.733333-34.133333 72.533333-36.266667 113.066667-57.6 130.133333-66.133333v-4.266667c2.133333-8.533333 4.266667-21.333333 8.533334-38.4C292.266667 106.666667 462.933333 53.333333 610.133333 68.266667c215.466667 21.333333 352 174.933333 345.6 392.533333-2.133333 100.266667-42.666667 275.2-279.466666 345.6 6.4 21.333333 29.866667 61.866667 57.6 98.133333 10.666667 14.933333 8.533333 36.266667-6.4 46.933334-14.933333 10.666667-36.266667 8.533333-46.933334-6.4-32-42.666667-85.333333-119.466667-70.4-168.533334 6.4-17.066667 19.2-29.866667 38.4-34.133333 194.133333-53.333333 236.8-183.466667 238.933334-283.733333 4.266667-181.333333-104.533333-305.066667-283.733334-322.133334-119.466667-12.8-258.133333 29.866667-298.666666 147.2-4.266667 10.666667-4.266667 19.2-6.4 27.733334-2.133333 12.8-4.266667 27.733333-14.933334 40.533333-6.4 4.266667-6.4 4.266667-134.4 70.4 6.4 6.4 10.666667 14.933333 17.066667 21.333333 6.4 8.533333 12.8 17.066667 14.933333 21.333334 21.333333 29.866667 2.133333 68.266667-17.066666 108.8-12.8 25.6-32 61.866667-27.733334 81.066666 6.4 29.866667 17.066667 34.133333 70.4 44.8 10.666667 2.133333 23.466667 4.266667 36.266667 8.533334 119.466667 29.866667 149.333333 59.733333 202.666667 202.666666 6.4 17.066667-2.133333 38.4-19.2 44.8-4.266667 2.133333-8.533333 2.133333-10.666667 2.133334z" fill="#434343" p-id="13787"></path><path d="M620.8 605.866667c-34.133333 0-72.533333-17.066667-98.133333-46.933334-19.2-21.333333-27.733333-49.066667-27.733334-74.666666-44.8-10.666667-100.266667-40.533333-123.733333-78.933334-12.8-21.333333-17.066667-42.666667-10.666667-64-10.666667-23.466667-8.533333-53.333333 4.266667-74.666666 12.8-23.466667 34.133333-38.4 55.466667-40.533334 21.333333-27.733333 55.466667-46.933333 91.733333-49.066666 27.733333-2.133333 55.466667 4.266667 76.8 19.2 29.866667-10.666667 66.133333-4.266667 93.866667 8.533333 23.466667 12.8 42.666667 29.866667 51.2 49.066667 34.133333 8.533333 66.133333 34.133333 83.2 64 8.533333 17.066667 12.8 34.133333 8.533333 49.066666 23.466667 36.266667 21.333333 83.2 6.4 119.466667-17.066667 42.666667-51.2 70.4-91.733333 70.4l-44.8-2.133333c-6.4 21.333333-21.333333 38.4-42.666667 44.8-10.666667 4.266667-21.333333 6.4-32 6.4z m-83.2-183.466667c12.8 0 23.466667 6.4 29.866667 17.066667 6.4 10.666667 6.4 23.466667 0 34.133333-4.266667 8.533333-10.666667 23.466667 6.4 42.666667 17.066667 19.2 44.8 25.6 55.466666 21.333333 2.133333 0 4.266667-2.133333 4.266667-12.8 0-19.2 14.933333-34.133333 32-34.133333l70.4-4.266667h4.266667c17.066667 0 25.6-19.2 27.733333-25.6 8.533333-23.466667 6.4-51.2-6.4-61.866667-6.4-6.4-10.666667-14.933333-10.666667-25.6 0-6.4 2.133333-14.933333 6.4-19.2-2.133333-4.266667-8.533333-14.933333-19.2-23.466666-8.533333-6.4-19.2-10.666667-25.6-10.666667-10.666667 2.133333-21.333333-2.133333-29.866666-8.533333-8.533333-8.533333-12.8-19.2-10.666667-29.866667 0-2.133333-10.666667-14.933333-32-21.333333-14.933333-4.266667-27.733333-2.133333-29.866667 0-6.4 6.4-17.066667 10.666667-25.6 10.666666-10.666667 0-19.2-4.266667-25.6-12.8-8.533333-10.666667-23.466667-14.933333-40.533333-12.8-21.333333 2.133333-40.533333 14.933333-49.066667 32-8.533333 14.933333-23.466667 21.333333-38.4 17.066667-4.266667 2.133333-8.533333 12.8-6.4 19.2 10.666667 10.666667 14.933333 27.733333 6.4 40.533333-2.133333 6.4-4.266667 10.666667 0 17.066667 14.933333 25.6 76.8 51.2 106.666667 51.2z" fill="#444444" p-id="13788"></path><path d="M576 727.466667l-83.2-17.066667c14.933333-76.8 57.6-117.333333 96-155.733333 23.466667-21.333333 44.8-42.666667 57.6-68.266667l74.666667 40.533333c-21.333333 38.4-49.066667 66.133333-74.666667 89.6-34.133333 36.266667-59.733333 61.866667-70.4 110.933334z" fill="#C30D23" p-id="13789"></path></svg>