<?xml version="1.0" encoding="utf-8"?>
<svg version="1.1" xmlns:xlink="http://www.w3.org/1999/xlink" width="22px" height="20px" preserveAspectRatio="xMinYMid meet" viewBox="1320 243  22 18" xmlns="http://www.w3.org/2000/svg">
  <g transform="matrix(-1 0 0 -1 2662 504 )">
    <path d="M 1247 249.5  A 3 3 0 0 0 1244 252.5 A 3 3 0 0 0 1247 255.5 A 3 3 0 0 0 1250 252.5 A 3 3 0 0 0 1247 249.5 Z M 1247 250.5  A 2 2 0 0 1 1249 252.5 A 2 2 0 0 1 1247 254.5 A 2 2 0 0 1 1245 252.5 A 2 2 0 0 1 1247 250.5 Z M 1325.94644660941 247.853553390593  L 1330.59289321881 252.5  L 1325.94644660941 257.146446609407  L 1326.65355339059 257.853553390593  L 1331.65355339059 252.853553390593  L 1332.00710678119 252.5  L 1331.65355339059 252.146446609407  L 1326.65355339059 247.146446609407  L 1325.94644660941 247.853553390593  Z " fill-rule="nonzero" fill="#0702f8" stroke="none" />
    <path d="M 1249 252.5  L 1331 252.5  " stroke-width="1" stroke="#0702f8" fill="none" />
  </g>
</svg>