<?xml version="1.0" encoding="utf-8"?>
<svg version="1.1" xmlns:xlink="http://www.w3.org/1999/xlink" width="22px" height="20px" preserveAspectRatio="xMinYMid meet" viewBox="1236 497  22 18" xmlns="http://www.w3.org/2000/svg">
  <path d="M 1247 502.5  A 3 3 0 0 0 1244 505.5 A 3 3 0 0 0 1247 508.5 A 3 3 0 0 0 1250 505.5 A 3 3 0 0 0 1247 502.5 Z M 1247 503.5  A 2 2 0 0 1 1249 505.5 A 2 2 0 0 1 1247 507.5 A 2 2 0 0 1 1245 505.5 A 2 2 0 0 1 1247 503.5 Z M 1325.94644660941 500.853553390593  L 1330.59289321881 505.5  L 1325.94644660941 510.146446609407  L 1326.65355339059 510.853553390593  L 1331.65355339059 505.853553390593  L 1332.00710678119 505.5  L 1331.65355339059 505.146446609407  L 1326.65355339059 500.146446609407  L 1325.94644660941 500.853553390593  Z " fill-rule="nonzero" fill="#0702f8" stroke="none" />
  <path d="M 1249 505.5  L 1331 505.5  " stroke-width="1" stroke="#0702f8" fill="none" />
</svg>