<?xml version="1.0" encoding="utf-8"?>
<svg version="1.1" xmlns:xlink="http://www.w3.org/1999/xlink" width="92px" height="6px" preserveAspectRatio="xMinYMid meet" viewBox="432 1217  92 4" xmlns="http://www.w3.org/2000/svg">
  <path d="M 437 1215.5  A 3 3 0 0 0 434 1218.5 A 3 3 0 0 0 437 1221.5 A 3 3 0 0 0 440 1218.5 A 3 3 0 0 0 437 1215.5 Z M 437 1216.5  A 2 2 0 0 1 439 1218.5 A 2 2 0 0 1 437 1220.5 A 2 2 0 0 1 435 1218.5 A 2 2 0 0 1 437 1216.5 Z " fill-rule="nonzero" fill="#0702f8" stroke="none" />
  <path d="M 439 1218.5  L 522 1218.5  " stroke-width="1" stroke="#0702f8" fill="none" />
</svg>