<?xml version="1.0" encoding="utf-8"?>
<svg version="1.1" xmlns:xlink="http://www.w3.org/1999/xlink" width="142px" height="6px" preserveAspectRatio="xMinYMid meet" viewBox="382 1273  142 4" xmlns="http://www.w3.org/2000/svg">
  <path d="M 387 1271.5  A 3 3 0 0 0 384 1274.5 A 3 3 0 0 0 387 1277.5 A 3 3 0 0 0 390 1274.5 A 3 3 0 0 0 387 1271.5 Z M 387 1272.5  A 2 2 0 0 1 389 1274.5 A 2 2 0 0 1 387 1276.5 A 2 2 0 0 1 385 1274.5 A 2 2 0 0 1 387 1272.5 Z " fill-rule="nonzero" fill="#0702f8" stroke="none" />
  <path d="M 389 1274.5  L 522 1274.5  " stroke-width="1" stroke="#0702f8" fill="none" />
</svg>