<?xml version="1.0" encoding="utf-8"?>
<svg version="1.1" xmlns:xlink="http://www.w3.org/1999/xlink" width="8px" height="12px" xmlns="http://www.w3.org/2000/svg">
  <g transform="matrix(1 0 0 1 -458 -1516 )">
    <path d="M 7.86254295532646 5.72344689378758  C 7.95418098510882 5.80360721442886  8 5.89579158316633  8 6  C 8 6.10420841683367  7.95418098510882 6.19639278557114  7.86254295532646 6.27655310621242  L 1.45704467353952 11.8797595190381  C 1.36540664375716 11.9599198396794  1.26002290950745 12  1.14089347079038 12  C 1.02176403207331 12  0.916380297823597 11.9599198396794  0.824742268041237 11.8797595190381  L 0.13745704467354 11.2785571142285  C 0.0458190148911799 11.1983967935872  0 11.1062124248497  0 11.002004008016  C 0 10.8977955911824  0.0458190148911799 10.8056112224449  0.13745704467354 10.7254509018036  L 5.53951890034364 6  L 0.13745704467354 1.27454909819639  C 0.0458190148911799 1.19438877755511  0 1.10220440881763  0 0.997995991983968  C 0 0.893787575150299  0.0458190148911799 0.801603206412824  0.13745704467354 0.721442885771542  L 0.824742268041237 0.120240480961924  C 0.916380297823597 0.0400801603206409  1.02176403207331 0  1.14089347079038 0  C 1.26002290950745 0  1.36540664375716 0.0400801603206409  1.45704467353952 0.120240480961924  L 7.86254295532646 5.72344689378758  Z " fill-rule="nonzero" fill="#2c51ee" stroke="none" transform="matrix(1 0 0 1 458 1516 )" />
  </g>
</svg>