<?xml version="1.0" encoding="utf-8"?>
<svg version="1.1" xmlns:xlink="http://www.w3.org/1999/xlink" width="23px" height="13px" xmlns="http://www.w3.org/2000/svg">
  <g transform="matrix(1 0 0 1 -147 -3889 )">
    <path d="M 22.5732421875 10.5399305555556  C 22.8577473958333 10.8258101851852  23 11.1643518518518  23 11.5555555555556  C 23 11.9467592592593  22.8577473958333 12.2853009259259  22.5732421875 12.5711805555556  C 22.2887369791667 12.8570601851852  21.9518229166667 13  21.5625 13  L 1.4375 13  C 1.04817708333333 13  0.711263020833333 12.8570601851852  0.4267578125 12.5711805555556  C 0.142252604166667 12.2853009259259  0 11.9467592592593  0 11.5555555555556  C 0 11.1643518518518  0.142252604166667 10.8258101851852  0.4267578125 10.5399305555556  L 10.4892578125 0.428819444444445  C 10.7737630208333 0.142939814814813  11.1106770833333 0  11.5 0  C 11.8893229166667 0  12.2262369791667 0.142939814814813  12.5107421875 0.428819444444445  L 22.5732421875 10.5399305555556  Z " fill-rule="nonzero" fill="#ffffff" stroke="none" transform="matrix(1 0 0 1 147 3889 )" />
  </g>
</svg>