<?xml version="1.0" encoding="utf-8"?>
<svg version="1.1" xmlns:xlink="http://www.w3.org/1999/xlink" width="33px" height="40px" xmlns="http://www.w3.org/2000/svg">
  <defs>
    <filter x="31px" y="352px" width="33px" height="40px" filterUnits="userSpaceOnUse" id="filter96">
      <feOffset dx="1" dy="1" in="SourceAlpha" result="shadowOffsetInner" />
      <feGaussianBlur stdDeviation="2.5" in="shadowOffsetInner" result="shadowGaussian" />
      <feComposite in2="shadowGaussian" operator="atop" in="SourceAlpha" result="shadowComposite" />
      <feColorMatrix type="matrix" values="0 0 0 0 0  0 0 0 0 0  0 0 0 0 0  0 0 0 0.698039215686274 0  " in="shadowComposite" />
    </filter>
    <g id="widget97">
      <path d="M 46.5 385.051074642438  C 42.1 377.916045933808  35.5 373.63502870863  35.5 366.5  C 35.5 362.785714285714  37.7 356.5  46.5 356.5  C 55.3 356.5  57.5 362.785714285714  57.5 366.5  C 57.5 373.63502870863  50.9 377.916045933808  46.5 385.051074642438  Z " fill-rule="nonzero" fill="#ff0000" stroke="none" />
      <path d="M 46.5 386  C 41.9 378.5  35 374  35 366.5  C 35 362.6  37.3 356  46.5 356  C 55.7 356  58 362.6  58 366.5  C 58 374  51.1 378.5  46.5 386  Z M 46.5 384.102149284875  C 50.7 377.332091867616  57 373.27005741726  57 366.5  C 57 362.971428571429  54.9 357  46.5 357  C 38.1 357  36 362.971428571429  36 366.5  C 36 373.27005741726  42.3 377.332091867616  46.5 384.102149284875  Z " fill-rule="nonzero" fill="#ffffff" stroke="none" />
    </g>
  </defs>
  <g transform="matrix(1 0 0 1 -31 -352 )">
    <use xlink:href="#widget97" filter="url(#filter96)" />
    <use xlink:href="#widget97" />
  </g>
</svg>