<?xml version="1.0" encoding="utf-8"?>
<svg version="1.1" xmlns:xlink="http://www.w3.org/1999/xlink" width="4px" height="4px" preserveAspectRatio="xMinYMid meet" viewBox="500 551  4 2" xmlns="http://www.w3.org/2000/svg">
  <path d="M 417 548.5  A 3 3 0 0 0 414 551.5 A 3 3 0 0 0 417 554.5 A 3 3 0 0 0 420 551.5 A 3 3 0 0 0 417 548.5 Z M 417 549.5  A 2 2 0 0 1 419 551.5 A 2 2 0 0 1 417 553.5 A 2 2 0 0 1 415 551.5 A 2 2 0 0 1 417 549.5 Z " fill-rule="nonzero" fill="#0702f8" stroke="none" />
  <path d="M 419 551.5  L 502 551.5  " stroke-width="1" stroke="#0702f8" fill="none" />
</svg>