<?xml version="1.0" encoding="utf-8"?>
<svg version="1.1" xmlns:xlink="http://www.w3.org/1999/xlink" width="14px" height="14px" xmlns="http://www.w3.org/2000/svg">
  <g transform="matrix(1 0 0 1 -742 -546 )">
    <path d="M 13.8268229166667 0.173177083333485  C 13.9422743055554 0.288628472222626  14 0.425347222222626  14 0.583333333333485  L 14 13.4166666666665  C 14 13.5746527777774  13.9422743055554 13.7113715277774  13.8268229166667 13.8268229166665  C 13.7113715277778 13.9422743055557  13.5746527777778 14  13.4166666666667 14  L 8.75 14  C 8.59201388888869 14  8.45529513888869 13.9422743055557  8.33984375 13.8268229166665  C 8.22439236111131 13.7113715277774  8.16666666666674 13.5746527777774  8 13.4166666666665  L 8 0.583333333333485  C 8.16666666666674 0.425347222222626  8.22439236111131 0.288628472222626  8.33984375 0.173177083333485  C 8.45529513888869 0.0577256944443434  8.59201388888869 0  8.75 0  L 13.4166666666667 0  C 13.5746527777778 0  13.7113715277778 0.0577256944443434  13.8268229166667 0.173177083333485  Z M 5.66015625 0.173177083333485  C 5.77560763888869 0.288628472222626  5.83333333333326 0.425347222222626  6 0.583333333333485  L 6 13.4166666666665  C 5.83333333333326 13.5746527777774  5.77560763888869 13.7113715277774  5.66015625 13.8268229166665  C 5.54470486111131 13.9422743055557  5.40798611111131 14  5.25 14  L 0.583333333333258 14  C 0.425347222222172 14  0.288628472222172 13.9422743055557  0.173177083333258 13.8268229166665  C 0.0577256944445708 13.7113715277774  0 13.5746527777774  0 13.4166666666665  L 0 0.583333333333485  C 0 0.425347222222626  0.0577256944445708 0.288628472222626  0.173177083333258 0.173177083333485  C 0.288628472222172 0.0577256944443434  0.425347222222172 0  0.583333333333258 0  L 5.25 0  C 5.40798611111131 0  5.54470486111131 0.0577256944443434  5.66015625 0.173177083333485  Z " fill-rule="nonzero" fill="#000000" stroke="none" transform="matrix(1 0 0 1 742 546 )" />
  </g>
</svg>