<?xml version="1.0" encoding="utf-8"?>
<svg version="1.1" xmlns:xlink="http://www.w3.org/1999/xlink" width="14px" height="14px" xmlns="http://www.w3.org/2000/svg">
  <g transform="matrix(1 0 0 1 -1054 -546 )">
    <path d="M 6.79036458333333 8.24869791666667  C 6.85112847222222 8.30946180555556  6.88151041666667 8.37934027777778  6.88151041666667 8.45833333333333  C 6.88151041666667 8.53732638888889  6.85112847222222 8.60720486111111  6.79036458333333 8.66796875  L 3.76432291666667 11.6940104166667  L 5.07682291666667 13.0065104166667  C 5.19227430555556 13.1219618055556  5.25 13.2586805555556  5.25 13.4166666666667  C 5.25 13.5746527777778  5.19227430555556 13.7113715277778  5.07682291666667 13.8268229166667  C 4.96137152777778 13.9422743055556  4.82465277777778 14  4.66666666666667 14  L 0.583333333333333 14  C 0.425347222222222 14  0.288628472222222 13.9422743055556  0.173177083333333 13.8268229166667  C 0.0577256944444444 13.7113715277778  0 13.5746527777778  0 13.4166666666667  L 0 9.33333333333333  C 0 9.17534722222222  0.0577256944444444 9.03862847222222  0.173177083333333 8.92317708333333  C 0.288628472222222 8.80772569444444  0.425347222222222 8.75  0.583333333333333 8.75  C 0.741319444444445 8.75  0.878038194444445 8.80772569444444  0.993489583333333 8.92317708333333  L 2.30598958333333 10.2356770833333  L 5.33203125 7.20963541666667  C 5.39279513888889 7.14887152777778  5.46267361111111 7.11848958333333  5.54166666666667 7.11848958333333  C 5.62065972222222 7.11848958333333  5.69053819444444 7.14887152777778  5.75130208333333 7.20963541666667  L 6.79036458333333 8.24869791666667  Z M 13.8268229166667 0.173177083333333  C 13.9422743055556 0.28862847222222  14 0.42534722222222  14 0.583333333333333  L 14 4.66666666666667  C 14 4.82465277777778  13.9422743055556 4.96137152777778  13.8268229166667 5.07682291666667  C 13.7113715277778 5.19227430555555  13.5746527777778 5.25  13.4166666666667 5.25  C 13.2586805555556 5.25  13.1219618055556 5.19227430555555  13.0065104166667 5.07682291666667  L 11.6940104166667 3.76432291666667  L 8.66796875 6.79036458333333  C 8.60720486111111 6.85112847222222  8.53732638888889 6.88151041666667  8.45833333333333 6.88151041666667  C 8.37934027777778 6.88151041666667  8.30946180555556 6.85112847222222  8.24869791666667 6.79036458333333  L 7.20963541666667 5.75130208333333  C 7.14887152777778 5.69053819444444  7.11848958333333 5.62065972222222  7.11848958333333 5.54166666666667  C 7.11848958333333 5.46267361111111  7.14887152777778 5.39279513888889  7.20963541666667 5.33203125  L 10.2356770833333 2.30598958333333  L 8.92317708333333 0.993489583333333  C 8.80772569444444 0.878038194444444  8.75 0.741319444444444  8.75 0.583333333333333  C 8.75 0.42534722222222  8.80772569444444 0.28862847222222  8.92317708333333 0.173177083333333  C 9.03862847222222 0.0577256944444438  9.17534722222222 0  9.33333333333333 0  L 13.4166666666667 0  C 13.5746527777778 0  13.7113715277778 0.0577256944444438  13.8268229166667 0.173177083333333  Z " fill-rule="nonzero" fill="#000000" stroke="none" transform="matrix(1 0 0 1 1054 546 )" />
  </g>
</svg>