<?xml version="1.0" encoding="utf-8"?>
<svg version="1.1" xmlns:xlink="http://www.w3.org/1999/xlink" width="17px" height="14px" xmlns="http://www.w3.org/2000/svg">
  <g transform="matrix(1 0 0 1 -773 -546 )">
    <path d="M 7.32753801431113 1.20112517580856  C 7.45145721526524 1.32583216127523  7.5134168157424 1.47351148616963  7.5134168157424 1.6441631504922  L 7.5134168157424 12.3558368495078  C 7.5134168157424 12.5264885138304  7.45145721526524 12.6741678387248  7.32753801431113 12.7988748241914  C 7.20361881335725 12.9235818096577  7.05687239117469 12.9859353023912  6.88729874776391 12.9859353023912  C 6.71772510435289 12.9859353023912  6.57097868217056 12.9235818096577  6.44705948121646 12.7988748241914  L 3.18928890876555 9.52039381153327  L 0.626118067978496 9.52039381153327  C 0.45654442456771 9.52039381153327  0.309798002385151 9.4580403187997  0.185878801431045 9.33333333333348  C 0.0619596004769392 9.20862634786681  0 9.06094702297241  0 8.89029535864984  L 0 5.10970464135016  C 0 4.93905297702759  0.0619596004769392 4.79137365213319  0.185878801431045 4.66666666666652  C 0.309798002385151 4.5419596812003  0.45654442456771 4.47960618846673  0.626118067978496 4.47960618846673  L 3.18928890876555 4.47960618846673  L 6.44705948121646 1.20112517580856  C 6.57097868217056 1.07641819034234  6.71772510435289 1.01406469760923  6.88729874776391 1.01406469760923  C 7.05687239117469 1.01406469760923  7.20361881335725 1.07641819034234  7.32753801431113 1.20112517580856  Z M 10.8543436940965 5.60196905766543  C 11.1315313804412 6.03516174402239  11.2701252236136 6.50117205813422  11.2701252236136 7  C 11.2701252236136 7.49882794186578  11.1315313804412 7.96319737458998  10.8543436940965 8.39310829817168  C 10.5771560077519 8.82301922175338  10.2102899522956 9.1298640412565  9.75374552772814 9.31364275668057  C 9.68852489564688 9.34646038443498  9.60699910554558 9.36286919831218  9.50916815742403 9.36286919831218  C 9.33959451401302 9.36286919831218  9.19284809183068 9.3021565869667  9.06892889087658 9.18073136427574  C 8.94500968992247 9.05930614158478  8.88305008944531 8.9099859353023  8.88305008944531 8.73277074542875  C 8.88305008944531 8.59493670886059  8.92218246869402 8.47843413033297  9.00044722719144 8.38326300984545  C 9.07871198568864 8.28809188935793  9.17328190220633 8.2060478199719  9.28415697674404 8.13713080168782  C 9.39503205128199 8.06821378340373  9.50590712581993 7.99273323956868  9.61678220035765 7.91068917018265  C 9.72765727489559 7.82864510079708  9.82222719141328 7.71050164088138  9.90049194991047 7.556258790436  C 9.9787567084079 7.40201593999063  10.0178890876564 7.21659634317848  10.0178890876564 7  C 10.0178890876564 6.78340365682152  9.9787567084079 6.59798406000937  9.90049194991047 6.443741209564  C 9.82222719141328 6.28949835911862  9.72765727489559 6.17135489920292  9.61678220035765 6.08931082981735  C 9.50590712581993 6.00726676043132  9.39503205128199 5.93178621659627  9.28415697674404 5.86286919831218  C 9.17328190220633 5.7939521800281  9.07871198568864 5.71190811064207  9.00044722719144 5.61673699015455  C 8.92218246869402 5.52156586966703  8.88305008944531 5.40506329113941  8.88305008944531 5.26722925457125  C 8.88305008944531 5.0900140646977  8.94500968992247 4.94069385841522  9.06892889087658 4.81926863572426  C 9.19284809183068 4.6978434130333  9.33959451401302 4.63713080168782  9.50916815742403 4.63713080168782  C 9.60699910554558 4.63713080168782  9.68852489564688 4.65353961556502  9.75374552772814 4.68635724331943  C 10.2102899522956 4.86357243319253  10.5771560077519 5.16877637130801  10.8543436940965 5.60196905766543  Z M 12.9430344364937 4.21870604781998  C 13.497409809183 5.06868260665715  13.7745974955276 5.99578059071746  13.7745974955276 7  C 13.7745974955276 8.00421940928254  13.497409809183 8.93131739334285  12.9430344364937 9.78129395218002  C 12.3886590638044 10.6312705110172  11.6549269528921 11.2498827941868  10.7418381037567 11.6371308016878  C 10.6570512820513 11.6699484294422  10.57552549195 11.6863572433194  10.4972607334525 11.6863572433194  C 10.3211650268336 11.6863572433194  10.1711575730471 11.6240037505859  10.047238372093 11.4992967651197  C 9.92331917113893 11.374589779653  9.86135957066176 11.2269104547586  9.86135957066176 11.056258790436  C 9.86135957066176 10.8002812939521  9.98853980321996 10.6066572902014  10.2429002683364 10.4753867791842  C 10.6081358079905 10.2850445382091  10.8559742098985 10.14064697609  10.9864154740608 10.0421940928272  C 11.4690481514608 9.68776371308013  11.8456973017292 9.24308485700885  12.1163629248658 8.7081575246134  C 12.3870285480023 8.17323019221749  12.5223613595706 7.60384435067999  12.5223613595706 7  C 12.5223613595706 6.39615564932001  12.3870285480023 5.82676980778251  12.1163629248658 5.2918424753866  C 11.8456973017292 4.75691514299115  11.4690481514608 4.31223628691987  10.9864154740608 3.95780590717277  C 10.8559742098985 3.85935302390999  10.6081358079905 3.71495546179085  10.2429002683364 3.52461322081581  C 9.98853980321996 3.39334270979862  9.86135957066176 3.19971870604786  9.86135957066176 2.943741209564  C 9.86135957066176 2.77308954524142  9.92331917113893 2.62541022034702  10.047238372093 2.50070323488035  C 10.1711575730471 2.37599624941413  10.3179039952295 2.31364275668057  10.4874776386405 2.31364275668057  C 10.5722644603459 2.31364275668057  10.6570512820513 2.33005157055777  10.7418381037567 2.36286919831218  C 11.6549269528921 2.75011720581324  12.3886590638044 3.36872948898281  12.9430344364937 4.21870604781998  Z M 15.0366167262969 2.84036568213787  C 15.8649187537269 4.10384435067999  16.2790697674418 5.4903891233007  16.2790697674418 7  C 16.2790697674418 8.5096108766993  15.8649187537269 9.89615564932001  15.0366167262969 11.1596343178621  C 14.2083146988671 12.4231129864042  13.1060860166965 13.3534927332394  11.7299306797852 13.9507735583684  C 11.6451438580798 13.9835911861228  11.5603570363744 14  11.475570214669 14  C 11.3059965712582 14  11.1592501490757 13.9376465072669  11.0353309481216 13.8129395218002  C 10.9114117471674 13.688232536334  10.8494521466905 13.5405532114391  10.8494521466905 13.3699015471166  C 10.8494521466905 13.1336146272856  10.9766323792487 12.9399906235349  11.2309928443649 12.7890295358648  C 11.2766472868216 12.7627754336613  11.350020497913 12.7283169245193  11.4511124776386 12.6856540084386  C 11.5522044573643 12.642991092358  11.6255776684554 12.6085325832159  11.6712321109123 12.5822784810125  C 11.9712470184854 12.4181903422409  12.2386516100178 12.250820440694  12.4734458855098 12.0801687763715  C 13.2756596601073 11.4828879512424  13.9017777280858 10.737927801219  14.3518000894453 9.84528832630076  C 14.801822450805 8.95264885138295  15.0268336314848 8.00421940928254  15.0268336314848 7  C 15.0268336314848 5.99578059071746  14.801822450805 5.04735114861705  14.3518000894453 4.15471167369924  C 13.9017777280858 3.26207219878097  13.2756596601073 2.51711204875755  12.4734458855098 1.91983122362853  C 12.2386516100178 1.74917955930596  11.9712470184854 1.58180965775909  11.6712321109123 1.41772151898749  C 11.6255776684554 1.39146741678405  11.5522044573643 1.35700890764201  11.4511124776386 1.31434599156137  C 11.350020497913 1.27168307548072  11.2766472868216 1.23722456633868  11.2309928443649 1.21097046413524  C 10.9766323792487 1.06000937646513  10.8494521466905 0.866385372714376  10.8494521466905 0.630098452883431  C 10.8494521466905 0.459446788560854  10.9114117471674 0.311767463666001  11.0353309481216 0.187060478199783  C 11.1592501490757 0.0623534927331093  11.3059965712582 0  11.475570214669 0  C 11.5603570363744 0  11.6451438580798 0.0164088138772058  11.7299306797852 0.0492264416316175  C 13.1060860166965 0.646507266760636  14.2083146988671 1.57688701359575  15.0366167262969 2.84036568213787  Z " fill-rule="nonzero" fill="#000000" stroke="none" transform="matrix(1 0 0 1 773 546 )" />
  </g>
</svg>