<?xml version="1.0" encoding="utf-8"?>
<svg version="1.1" xmlns:xlink="http://www.w3.org/1999/xlink" width="4px" height="4px" preserveAspectRatio="xMinYMid meet" viewBox="500 1199  4 2" xmlns="http://www.w3.org/2000/svg">
  <path d="M 417 1196.5  A 3 3 0 0 0 414 1199.5 A 3 3 0 0 0 417 1202.5 A 3 3 0 0 0 420 1199.5 A 3 3 0 0 0 417 1196.5 Z M 417 1197.5  A 2 2 0 0 1 419 1199.5 A 2 2 0 0 1 417 1201.5 A 2 2 0 0 1 415 1199.5 A 2 2 0 0 1 417 1197.5 Z " fill-rule="nonzero" fill="#0702f8" stroke="none" />
  <path d="M 419 1199.5  L 502 1199.5  " stroke-width="1" stroke="#0702f8" fill="none" />
</svg>