<?xml version="1.0" encoding="utf-8"?>
<svg version="1.1" xmlns:xlink="http://www.w3.org/1999/xlink" width="4px" height="4px" preserveAspectRatio="xMinYMid meet" viewBox="500 1717  4 2" xmlns="http://www.w3.org/2000/svg">
  <path d="M 466 1714.5  A 3 3 0 0 0 463 1717.5 A 3 3 0 0 0 466 1720.5 A 3 3 0 0 0 469 1717.5 A 3 3 0 0 0 466 1714.5 Z M 466 1715.5  A 2 2 0 0 1 468 1717.5 A 2 2 0 0 1 466 1719.5 A 2 2 0 0 1 464 1717.5 A 2 2 0 0 1 466 1715.5 Z " fill-rule="nonzero" fill="#0702f8" stroke="none" />
  <path d="M 468 1717.5  L 502 1717.5  " stroke-width="1" stroke="#0702f8" fill="none" />
</svg>