<?xml version="1.0" encoding="utf-8"?>
<svg version="1.1" xmlns:xlink="http://www.w3.org/1999/xlink" width="33px" height="33px" xmlns="http://www.w3.org/2000/svg">
  <g transform="matrix(1 0 0 1 -288 -935 )">
    <path d="M 24.75 15.318359375  C 25.2083333333333 15.576171875  25.4375 15.9700520833333  25.4375 16.5  C 25.4375 17.0299479166667  25.2083333333333 17.423828125  24.75 17.681640625  L 13.0625 24.556640625  C 12.84765625 24.685546875  12.6184895833333 24.75  12.375 24.75  C 12.1458333333333 24.75  11.9166666666667 24.6927083333333  11.6875 24.578125  C 11.2291666666667 24.3059895833333  11 23.9049479166667  11 23.375  L 11 9.625  C 11 9.09505208333333  11.2291666666667 8.69401041666666  11.6875 8.421875  C 12.16015625 8.1640625  12.6184895833333 8.17122395833333  13.0625 8.443359375  L 24.75 15.318359375  Z M 26.619140625 22.365234375  C 27.6647135416667 20.5748697916667  28.1875 18.6197916666667  28.1875 16.5  C 28.1875 14.3802083333333  27.6647135416667 12.4251302083333  26.619140625 10.634765625  C 25.5735677083333 8.84440104166666  24.1555989583333 7.42643229166666  22.365234375 6.380859375  C 20.5748697916667 5.33528645833333  18.6197916666667 4.8125  16.5 4.8125  C 14.3802083333333 4.8125  12.4251302083333 5.33528645833333  10.634765625 6.380859375  C 8.84440104166667 7.42643229166666  7.42643229166667 8.84440104166666  6.380859375 10.634765625  C 5.33528645833333 12.4251302083333  4.8125 14.3802083333333  4.8125 16.5  C 4.8125 18.6197916666667  5.33528645833333 20.5748697916667  6.380859375 22.365234375  C 7.42643229166667 24.1555989583333  8.84440104166667 25.5735677083333  10.634765625 26.619140625  C 12.4251302083333 27.6647135416667  14.3802083333333 28.1875  16.5 28.1875  C 18.6197916666667 28.1875  20.5748697916667 27.6647135416667  22.365234375 26.619140625  C 24.1555989583333 25.5735677083333  25.5735677083333 24.1555989583333  26.619140625 22.365234375  Z M 30.787109375 8.2177734375  C 32.2623697916667 10.7457682291667  33 13.5065104166667  33 16.5  C 33 19.4934895833333  32.2623697916667 22.2542317708333  30.787109375 24.7822265625  C 29.3118489583333 27.3102213541667  27.3102213541667 29.3118489583333  24.7822265625 30.787109375  C 22.2542317708333 32.2623697916667  19.4934895833333 33  16.5 33  C 13.5065104166667 33  10.7457682291667 32.2623697916667  8.2177734375 30.787109375  C 5.68977864583333 29.3118489583333  3.68815104166667 27.3102213541667  2.212890625 24.7822265625  C 0.737630208333333 22.2542317708333  0 19.4934895833333  0 16.5  C 0 13.5065104166667  0.737630208333333 10.7457682291667  2.212890625 8.2177734375  C 3.68815104166667 5.68977864583333  5.68977864583333 3.68815104166666  8.2177734375 2.212890625  C 10.7457682291667 0.73763020833333  13.5065104166667 0  16.5 0  C 19.4934895833333 0  22.2542317708333 0.73763020833333  24.7822265625 2.212890625  C 27.3102213541667 3.68815104166666  29.3118489583333 5.68977864583333  30.787109375 8.2177734375  Z " fill-rule="nonzero" fill="#aaaaaa" stroke="none" transform="matrix(1 0 0 1 288 935 )" />
  </g>
</svg>