<?xml version="1.0" encoding="utf-8"?>
<svg version="1.1" xmlns:xlink="http://www.w3.org/1999/xlink" width="4px" height="2px" preserveAspectRatio="xMinYMid meet" viewBox="514 395  4 0" xmlns="http://www.w3.org/2000/svg">
  <path d="M 431 391.5  A 3 3 0 0 0 428 394.5 A 3 3 0 0 0 431 397.5 A 3 3 0 0 0 434 394.5 A 3 3 0 0 0 431 391.5 Z M 431 392.5  A 2 2 0 0 1 433 394.5 A 2 2 0 0 1 431 396.5 A 2 2 0 0 1 429 394.5 A 2 2 0 0 1 431 392.5 Z " fill-rule="nonzero" fill="#0702f8" stroke="none" />
  <path d="M 433 394.5  L 516 394.5  " stroke-width="1" stroke="#0702f8" fill="none" />
</svg>