<?xml version="1.0" encoding="utf-8"?>
<svg version="1.1" xmlns:xlink="http://www.w3.org/1999/xlink" width="92px" height="6px" preserveAspectRatio="xMinYMid meet" viewBox="426 1617  92 4" xmlns="http://www.w3.org/2000/svg">
  <path d="M 431 1615.5  A 3 3 0 0 0 428 1618.5 A 3 3 0 0 0 431 1621.5 A 3 3 0 0 0 434 1618.5 A 3 3 0 0 0 431 1615.5 Z M 431 1616.5  A 2 2 0 0 1 433 1618.5 A 2 2 0 0 1 431 1620.5 A 2 2 0 0 1 429 1618.5 A 2 2 0 0 1 431 1616.5 Z " fill-rule="nonzero" fill="#0702f8" stroke="none" />
  <path d="M 433 1618.5  L 516 1618.5  " stroke-width="1" stroke="#0702f8" fill="none" />
</svg>