<?xml version="1.0" encoding="utf-8"?>
<svg version="1.1" xmlns:xlink="http://www.w3.org/1999/xlink" width="4px" height="2px" preserveAspectRatio="xMinYMid meet" viewBox="514 2227  4 0" xmlns="http://www.w3.org/2000/svg">
  <path d="M 431 2223.5  A 3 3 0 0 0 428 2226.5 A 3 3 0 0 0 431 2229.5 A 3 3 0 0 0 434 2226.5 A 3 3 0 0 0 431 2223.5 Z M 431 2224.5  A 2 2 0 0 1 433 2226.5 A 2 2 0 0 1 431 2228.5 A 2 2 0 0 1 429 2226.5 A 2 2 0 0 1 431 2224.5 Z " fill-rule="nonzero" fill="#0702f8" stroke="none" />
  <path d="M 433 2226.5  L 516 2226.5  " stroke-width="1" stroke="#0702f8" fill="none" />
</svg>