<?xml version="1.0" encoding="utf-8"?>
<svg version="1.1" xmlns:xlink="http://www.w3.org/1999/xlink" width="44px" height="6px" preserveAspectRatio="xMinYMid meet" viewBox="474 2399  44 4" xmlns="http://www.w3.org/2000/svg">
  <path d="M 480 2398.5  A 3 3 0 0 0 477 2401.5 A 3 3 0 0 0 480 2404.5 A 3 3 0 0 0 483 2401.5 A 3 3 0 0 0 480 2398.5 Z M 480 2399.5  A 2 2 0 0 1 482 2401.5 A 2 2 0 0 1 480 2403.5 A 2 2 0 0 1 478 2401.5 A 2 2 0 0 1 480 2399.5 Z " fill-rule="nonzero" fill="#0702f8" stroke="none" />
  <path d="M 482 2401.5  L 516 2401.5  " stroke-width="1" stroke="#0702f8" fill="none" />
</svg>