<svg t="1585379112023" class="icon" viewBox="0 0 1024 1024" version="1.1" xmlns="http://www.w3.org/2000/svg" p-id="2425" width="200" height="200"><path d="M417.757 812.081z m522.275-477.914c-23.609-32.543-53.399-60.405-86.879-82.742-29.281-19.536-60.69-34.291-89.803-42.708-17.18-4.967-28.407-13.615-36.251-27.389-9.501-16.686-14.617-41.845-14.045-75.826 0.476-28.273-22.058-51.578-50.331-52.054s-51.578 22.059-52.054 50.331c-0.857 50.96 7.857 93.816 27.445 128.218 21.246 37.313 54.368 62.825 96.796 75.092 18.883 5.459 40.743 15.728 61.412 29.518 23.743 15.841 44.647 35.392 60.825 57.691 18.009 24.823 29.864 52.556 34.684 83.192 5.523 35.104 1.852 74.065-12.501 117.262-29.871 89.898-69.581 146.397-118.857 178.345-40.603 26.325-88.918 37.2-153.33 37.2-38.018 0-64.698-14.674-95.736-47.331-4.115-4.33-8.23-8.863-13.655-14.996-1.582-1.788-7.475-8.482-6.868-7.793a975.023 975.023 0 0 0-7.02-7.896c-12.806-14.216-22.448-23.543-33.721-31.41-15.469-10.795-32.261-17.093-50.999-17.093-27.218 0-51.195 11.613-69.182 31.875-13.764 15.504-23.57 35.313-30.685 59.167-11.091 37.188-15.971 85.786-15.971 144.539 0 28.277 22.923 51.2 51.2 51.2s51.2-22.923 51.2-51.2c0-49.704 3.987-89.415 11.699-115.273 1.179-3.953 2.412-7.461 3.671-10.499a301.138 301.138 0 0 1 6.704 7.229 872.246 872.246 0 0 1 6.288 7.074l3.69 4.19c1.3 1.476 2.297 2.606 3.297 3.736 6.165 6.969 11.027 12.326 16.128 17.693 21.389 22.505 42.051 39.651 66.469 53.081 30.947 17.021 65.257 26.106 103.491 26.106 38.087 0 72.259-3.165 104.661-10.458 37.878-8.525 72.585-22.609 104.376-43.22 70.328-45.597 123.564-121.341 160.326-231.977 37.382-112.505 21.6-212.824-36.474-292.874zM401.144 591.335c65.609-11.592 117.515-50.486 141.655-104.431 24.571-54.907 16.597-117.546-23.115-165.135-29.193-34.984-51.215-107.793-62.337-216.919-2.867-28.131-27.996-48.612-56.128-45.745-28.131 2.867-48.612 27.996-45.745 56.128 13.011 127.657 40.297 217.869 85.588 272.143 14.371 17.222 17.031 38.12 8.269 57.701-9.954 22.244-33.133 39.612-66.004 45.42-24.411 4.313-45.924 3.497-90.378-1.805-25.349-3.023-33.6-3.901-46.559-4.66-18.818-1.103-35.442-0.637-51.59 1.919-40.999 6.491-75.518 26.396-103.554 62.007-54.381 69.076-72.508 189.522-60.353 364.175 1.963 28.209 26.422 49.485 54.631 47.522 28.209-1.963 49.485-26.422 47.522-54.631-10.529-151.289 4.349-250.143 38.659-293.724 11.91-15.129 23.323-21.709 39.107-24.208 15.158-2.4 29.368-1.567 70.01 3.28 25.032 2.985 38.811 4.315 55.384 4.944 22.791 0.864 43.957-0.274 64.938-3.981z m312.65 129.74c30.065-14.7 56.031-37.674 77.832-68.119 21.309-29.757 35.476-62.221 42.198-96.983 5.368-27.763-12.786-54.621-40.549-59.989-27.763-5.368-54.621 12.786-59.989 40.549-3.886 20.096-12.089 38.894-24.915 56.805-12.334 17.224-25.497 28.87-39.555 35.744-25.403 12.421-35.928 43.083-23.507 68.486 12.42 25.403 43.082 35.927 68.485 23.507z" fill="#333333" p-id="2426"></path></svg>