<svg t="1585379194025" class="icon" viewBox="0 0 1024 1024" version="1.1" xmlns="http://www.w3.org/2000/svg" p-id="3892" width="200" height="200"><path d="M582.9 382.012c-0.2 0.5-0.2 1.1 0 1.7l60.3 52.2h1.1L871.8 173.212c0.2-0.5 0.2-1.1 0-1.7l-59.5-51.7h-1.7L582.9 382.012z m60.4 109.7c-13.7 0-27-5.1-37.2-14.3l-59.5-51.7c-23-20.7-25.7-55.6-6.1-79.6L768.6 83.412c11-12.4 26.8-19.5 43.3-19.5 13.1 0 26 4.5 36.3 12.8l60.1 52.2c22.9 20.6 25.7 55.6 6.3 79.6l-228.3 264c-9.9 11.1-24.1 17.9-39 18.6l-4 0.6zM489 496.912c-4 0.3-7.8 2.2-10.4 5.2l-324.3 373c-2 1.9-2.9 4.6-2.4 7.2 0.4 2.3 0.4 2.3 3.5 2.9l1.7 0.3c6.3 1.1 12.8 1.7 19.2 1.7 2.3 0 4.6-0.1 6.8-0.2 43.7-3.2 103.8-29.2 160.6-69.5 78-56.2 187.3-191.5 208.8-258.6 1.9-5.9 0.2-12.3-4.5-16.4l-48-41.9c-2.8-2.4-6.3-3.8-10-3.8l-1 0.1z m-313.4 446c-9.8 0-19.8-0.9-29.6-2.8-22-3.9-40-19.4-47.1-40.5-6.5-21.1-1.4-44.3 13.4-60.6l352.2-406.6c4.8-5.5 11.7-9 18.9-9.4 0.6 0 1.1-0.1 1.7-0.1 6.8 0 13.3 2.5 18.3 7.1L603.8 517.212c7.1 6 10.6 15.1 9.5 24.4l-1.7 10.8c-9.5 78.5-142.6 244.3-235 310.9-31.1 22.2-111.7 74.4-189.1 79.8h-11.9z" p-id="3893"></path><path d="M383.715 959.85c-15.4 0-27.9-12.5-27.9-27.9 0-15.4 12.5-27.9 27.9-27.9h111.6c15.4 0 27.9 12.5 27.9 27.9 0 15.4-12.5 27.9-27.9 27.9H383.715z m195.3 0c-15.4 0-27.9-12.5-27.9-27.9 0-15.4 12.5-27.9 27.9-27.9h111.6c15.4 0 27.9 12.5 27.9 27.9 0 15.4-12.5 27.9-27.9 27.9H579.015z m195.2 0c-15.4 0-27.9-12.5-27.9-27.9 0-15.4 12.5-27.9 27.9-27.9h111.6c15.4 0 27.9 12.5 27.9 27.9 0 15.4-12.5 27.9-27.9 27.9H774.215z" p-id="3894"></path></svg>