<svg t="1585380082703" class="icon" viewBox="0 0 1024 1024" version="1.1" xmlns="http://www.w3.org/2000/svg" p-id="9341" width="200" height="200"><path d="M525.695 10.033c177.272 2.152 355.343 122.285 368.215 314.578 1.386 20.698 0.518 41.256-2.358 61.472 9.145 51.554-46.588 184.756-59.564 193.156-12.978 8.4-14.881 43.896-14.881 43.896v392.863H573.563l1.938-315.105S563.269 554.1 655.075 530.565c57.354-22.604 59.783-43.184 59.783-43.184s14.494-51.787-35.53-54.25c-31.935 3.152-58.687 48.691-144.25 59.647-70.665 0.601-98.093-41.374-118.05-48.231-19.949-6.853-91.894-45.741-179.36 7.409-80.854 49.125-104.494 104.134-124.512 182.875l-0.447-1.372s-64.282-1.048-35.004-72.477c55.083-105.046 71.016-178.105 70.49-196.624l1.438-0.281c-1.569-16.77-1.876-33.767-0.745-50.918C162.25 111.809 348.414 7.884 525.695 10.033z m80.854 387.996c-1.99-21.649 7.857-47.201 25.552-67.408 8.313-9.492 18.405-17.918 29.839-24.284 11.583-6.449 24.578-10.816 38.538-12.101 25.937-2.385 54.82 5.831 83.599 31.041a74.483 74.483 0 0 1 1.438 1.491c14.223 17.309 19.923 43.82 21.019 71.213 1.675 42.015-7.427 87.624-12.407 101.478-0.868 2.407-1.736 6.3-2.815 11.197-8.718 39.252-29.166 131.344-148.786 133.496-6.357 0.105-12.724 0.219-12.916-12.5-0.202-12.727 6.164-12.842 12.521-12.951 99.619-1.789 117.007-80.121 124.416-113.508 1.377-6.168 2.464-11.083 3.612-14.279 4.419-12.28 12.46-53.313 10.917-91.946-0.886-22.123-4.866-42.913-14.512-55.312-22.623-19.51-44.526-25.937-63.8-24.161-10.224 0.934-19.843 4.195-28.497 9.009-8.804 4.902-16.617 11.434-23.079 18.822-13.293 15.178-20.755 33.535-19.387 48.415 0.578 6.34 1.157 12.67-11.47 13.811-12.624 1.148-13.203-5.192-13.782-11.523z m-121.505 617.969H375s-1.754-24.779 0-71.42c1.753-46.635-12.557-41.52-31.304-41.076-18.738 0.439-65.185 1.898-112 1.334-50.393-12.598-43.378-50.793-43.378-50.793 1.464-23.504 0.535-37.787 2.894-51.334-12.407-4.051-33.127-8.396-31.251-30.326 2.175-25.35 52.83-38.209 21.843-39.889-55.163-10.814-54.663-31.018-52.138-38.852l48.981-95.402s71.665-83.783 171.038-29.805c99.365 53.979 120.698 128.934 120.698 128.934s8.593 14.721 11.04 92.016c2.131 67.078 3.341 194.183 3.621 226.613z" p-id="9342"></path></svg>