<svg t="1585380540817" class="icon" viewBox="0 0 1024 1024" version="1.1" xmlns="http://www.w3.org/2000/svg" p-id="11476" width="200" height="200"><path d="M804.213501 806.076492H218.785335V501.743228c0-73.750707 30.421973-142.913605 85.805961-194.999945S433.442157 225.958624 511.496838 225.958624s151.66605 28.698319 206.910701 80.784659c55.383989 52.08634 85.805962 121.249238 85.805962 194.999945v304.333264z m-528.036689-54.093829h470.640051v-250.239435c0-122.250402-105.607338-221.830112-235.320025-221.830112S276.176812 379.348328 276.176812 501.743228v250.239435z m549.990052 198.875586H197.115807c-29.126652 0-52.948167-23.821514-52.948167-52.948167s23.821514-52.948167 52.948167-52.948167h628.906559c29.126652 0 52.948167 23.816354 52.948167 52.948167 0.144498 29.126652-23.821514 52.948167-52.803669 52.948167zM511.496838 190.515348c-15.781237 0-28.698319-12.911921-28.69832-28.698319V101.840071c0-15.781237 12.911921-28.698319 28.69832-28.69832s28.698319 12.911921 28.698319 28.69832v59.976958c0 15.6419-12.911921 28.698319-28.698319 28.698319z m-258.991881 86.956785c-10.331601 11.910757-28.409323 13.345415-40.464579 3.158312L163.396185 242.034018c-11.910757-10.331601-13.345415-28.409323-3.158312-40.464579 10.331601-11.910757 28.409323-13.345415 40.464579-3.158311l48.644193 38.596426c12.050094 10.187103 13.345415 28.553821 3.158312 40.464579z m520.140909-0.433494c10.331601 11.910757 28.409323 13.345415 40.464579 3.158312l48.644193-38.596427c11.910757-10.331601 13.345415-28.409323 3.158311-40.464578-10.331601-11.910757-28.409323-13.345415-40.464578-3.158312l-48.644193 38.596427c-12.055255 10.187103-13.345415 28.553821-3.158312 40.464578z" fill="#A94859" p-id="11477"></path><path d="M564.445004 367.148575L410.337972 479.929202c-4.303974 3.013814-4.737468 8.324112-0.861827 11.76626l95.564732 80.929157c3.158312 2.869316 3.442147 7.17329 0.717329 10.187103l-90.398932 109.193983c-6.455961 7.317788 4.303974 16.498566 13.629251 11.766259l183.662018-112.496792c5.021303-2.58032 6.311463-8.179614 2.724818-11.910757L525.559582 486.963155c-2.151987-2.296485-9.898108-7.462285-8.46345-10.042606l63.563603-100.152541c3.875641-8.329273-8.179614-15.213567-16.214731-9.619433z" fill="#A94859" p-id="11478"></path><path d="M805.075328 804.641834H219.642001V500.30857c0-73.750707 30.421973-142.913605 85.805962-194.999945s128.850861-80.784659 206.910701-80.784659 151.66605 28.698319 206.910702 80.784659c55.383989 52.08634 85.805962 121.388575 85.805962 194.999945v304.333264z m-528.036689-54.093828h470.640051v-250.239436c0-122.250402-105.607338-221.830112-235.320026-221.830112S277.038639 377.91367 277.038639 500.30857v250.239436z m549.990052 198.875585H197.977634c-29.126652 0-52.948167-23.816354-52.948167-52.948167 0-29.126652 23.821514-52.948167 52.948167-52.948167h628.906559c29.126652 0 52.948167 23.816354 52.948167 52.948167 0.144498 29.126652-23.821514 52.948167-52.803669 52.948167z" fill="#083761" p-id="11479"></path><path d="M565.306831 365.713917l-154.251531 112.63613c-4.303974 3.013814-4.737468 8.324112-0.861826 11.766259l95.564732 80.929157c3.158312 2.869316 3.442147 7.17329 0.717329 10.187103l-90.398932 109.193983c-6.455961 7.317788 4.303974 16.498566 13.629251 11.766259l183.662018-112.496792c5.021303-2.58032 6.311463-8.179614 2.724818-11.910757l-89.82094-92.406421c-2.151987-2.296485-9.898108-7.462285-8.46345-10.042605l63.563604-100.152541c4.020139-8.179614-8.029956-15.063908-16.065073-9.469775z" fill="#A94859" p-id="11480"></path></svg>