<svg t="1585380710741" class="icon" viewBox="0 0 1024 1024" version="1.1" xmlns="http://www.w3.org/2000/svg" p-id="12863" width="200" height="200"><path d="M512 0a512 512 0 1 0 512 512A512 512 0 0 0 512 0zM302.260182 446.810597L187.470146 536.496639a48.588375 48.588375 0 0 1-59.72321-76.52669L242.941874 370.283907a48.588375 48.588375 0 1 1 59.723211 76.52669zM543.379992 858.394622l-140.096481 40.490313a48.588375 48.588375 0 1 1-26.723606-93.33017l139.894029-40.490313a48.588375 48.588375 0 0 1 26.926058 93.33017zM443.571372 607.354686l7.693159-145.562673a48.588375 48.588375 0 1 1 96.974299 5.061289l-7.69316 145.562673a48.588375 48.588375 0 0 1-96.974298-5.061289z m191.114275-323.922499a48.790826 48.790826 0 0 1-66.809016 16.601028l-124.710162-75.10953A48.588375 48.588375 0 1 1 493.172005 141.716093l124.912613 74.907078a48.790826 48.790826 0 0 1 16.601029 66.809016z m239.095294 240.107552L796.646896 647.844998a48.588375 48.588375 0 1 1-82.397786-51.625148l77.134045-123.495453a48.588375 48.588375 0 0 1 82.397786 51.422697z" p-id="12864"></path></svg>