<svg t="1585380912372" class="icon" viewBox="0 0 1024 1024" version="1.1" xmlns="http://www.w3.org/2000/svg" p-id="15387" width="200" height="200"><path d="M511.8 64c-247.4 0-448 200.6-448 448s200.6 448 448 448 448-200.6 448-448-200.6-448-448-448z m0 824c-207.7 0-376-168.3-376-376s168.3-376 376-376 376 168.3 376 376-168.4 376-376 376z" fill="" p-id="15388"></path><path d="M291.8 512.8m-55 0a55 55 0 1 0 110 0 55 55 0 1 0-110 0Z" fill="" p-id="15389"></path><path d="M511.8 512.8m-55 0a55 55 0 1 0 110 0 55 55 0 1 0-110 0Z" fill="" p-id="15390"></path><path d="M731.8 512.8m-55 0a55 55 0 1 0 110 0 55 55 0 1 0-110 0Z" fill="" p-id="15391"></path></svg>