<?xml version="1.0" encoding="utf-8"?>
<svg version="1.1" xmlns:xlink="http://www.w3.org/1999/xlink" width="20px" height="20px" preserveAspectRatio="xMinYMid meet" viewBox="295 3667  20 18" xmlns="http://www.w3.org/2000/svg">
  <path d="M 499 3425  L 505 3425  A 5 5 0 0 1 510 3430 L 510 3624  A 5 5 0 0 1 505 3629 L 310 3629  A 5 5 0 0 0 305 3634 L 305 3676  " stroke-width="2" stroke="#0099cc" fill="none" />
  <path d="M 496.5 3421.5  A 3.5 3.5 0 0 0 493 3425 A 3.5 3.5 0 0 0 496.5 3428.5 A 3.5 3.5 0 0 0 500 3425 A 3.5 3.5 0 0 0 496.5 3421.5 Z M 496.5 3423.5  A 1.5 1.5 0 0 1 498 3425 A 1.5 1.5 0 0 1 496.5 3426.5 A 1.5 1.5 0 0 1 495 3425 A 1.5 1.5 0 0 1 496.5 3423.5 Z M 309.292893218813 3670.89289321881  L 305 3675.18578643763  L 300.707106781187 3670.89289321881  L 299.292893218813 3672.30710678119  L 304.292893218813 3677.30710678119  L 305 3678.01421356237  L 305.707106781187 3677.30710678119  L 310.707106781187 3672.30710678119  L 309.292893218813 3670.89289321881  Z " fill-rule="nonzero" fill="#0099cc" stroke="none" />
</svg>