<?xml version="1.0" encoding="utf-8"?>
<svg version="1.1" xmlns:xlink="http://www.w3.org/1999/xlink" width="24px" height="23px" xmlns="http://www.w3.org/2000/svg">
  <g transform="matrix(1 0 0 1 -875 -890 )">
    <path d="M 23.1923076923077 8.2463768115942  C 23.7307692307692 8.33333333333333  24 8.55555555555556  24 8.91304347826087  C 24 9.1256038647343  23.875 9.35748792270531  23.625 9.60869565217391  L 18.3894230769231 14.7391304347826  L 19.6298076923077 21.9855072463768  C 19.6394230769231 22.0531400966184  19.6442307692308 22.1497584541063  19.6442307692308 22.2753623188406  C 19.6442307692308 22.4782608695652  19.59375 22.6497584541063  19.4927884615385 22.7898550724638  C 19.3918269230769 22.9299516908213  19.2451923076923 23  19.0528846153846 23  C 18.8701923076923 23  18.6778846153846 22.9420289855072  18.4759615384615 22.8260869565217  L 12 19.4057971014493  L 5.52403846153846 22.8260869565217  C 5.3125 22.9420289855072  5.12019230769231 23  4.94711538461538 23  C 4.74519230769231 23  4.59375 22.9299516908213  4.49278846153846 22.7898550724638  C 4.39182692307692 22.6497584541063  4.34134615384615 22.4782608695652  4.34134615384615 22.2753623188406  C 4.34134615384615 22.2173913043478  4.35096153846154 22.1207729468599  4.37019230769231 21.9855072463768  L 5.61057692307692 14.7391304347826  L 0.360576923076923 9.60869565217391  C 0.120192307692308 9.34782608695652  0 9.11594202898551  0 8.91304347826087  C 0 8.55555555555556  0.269230769230769 8.33333333333333  0.807692307692308 8.2463768115942  L 8.04807692307692 7.18840579710145  L 11.2932692307692 0.594202898550724  C 11.4759615384615 0.19806763285024  11.7115384615385 0  12 0  C 12.2884615384615 0  12.5240384615385 0.19806763285024  12.7067307692308 0.594202898550724  L 15.9519230769231 7.18840579710145  L 23.1923076923077 8.2463768115942  Z " fill-rule="nonzero" fill="#000000" stroke="none" transform="matrix(1 0 0 1 875 890 )" />
  </g>
</svg>