<?xml version="1.0" encoding="utf-8"?>
<svg version="1.1" xmlns:xlink="http://www.w3.org/1999/xlink" width="24px" height="24px" xmlns="http://www.w3.org/2000/svg">
  <g transform="matrix(1 0 0 1 -944 -141 )">
    <path d="M 15.59375 15.34375  C 16.5520833333333 14.4479166666667  17.6875 14  19 14  C 20.3854166666667 14  21.5651041666667 14.4869791666667  22.5390625 15.4609375  C 23.5130208333333 16.4348958333333  24 17.6145833333333  24 19  C 24 20.3854166666667  23.5130208333333 21.5651041666667  22.5390625 22.5390625  C 21.5651041666667 23.5130208333333  20.3854166666667 24  19 24  C 17.6145833333333 24  16.4348958333333 23.5130208333333  15.4609375 22.5390625  C 14.4869791666667 21.5651041666667  14 20.3854166666667  14 19  C 14 18.875  14.0104166666667 18.6979166666667  14.03125 18.46875  L 8.40625 15.65625  C 7.44791666666667 16.5520833333333  6.3125 17  5 17  C 3.61458333333333 17  2.43489583333333 16.5130208333333  1.4609375 15.5390625  C 0.486979166666667 14.5651041666667  0 13.3854166666667  0 12  C 0 10.6145833333333  0.486979166666667 9.43489583333333  1.4609375 8.4609375  C 2.43489583333333 7.48697916666666  3.61458333333333 7  5 7  C 6.3125 7  7.44791666666667 7.44791666666667  8.40625 8.34375  L 14.03125 5.53125  C 14.0104166666667 5.30208333333333  14 5.125  14 5  C 14 3.61458333333333  14.4869791666667 2.43489583333333  15.4609375 1.4609375  C 16.4348958333333 0.486979166666665  17.6145833333333 0  19 0  C 20.3854166666667 0  21.5651041666667 0.486979166666665  22.5390625 1.4609375  C 23.5130208333333 2.43489583333333  24 3.61458333333333  24 5  C 24 6.38541666666666  23.5130208333333 7.56510416666667  22.5390625 8.5390625  C 21.5651041666667 9.51302083333333  20.3854166666667 10  19 10  C 17.6875 10  16.5520833333333 9.55208333333333  15.59375 8.65625  L 9.96875 11.46875  C 9.98958333333333 11.6979166666667  10 11.875  10 12  C 10 12.125  9.98958333333333 12.3020833333333  9.96875 12.53125  L 15.59375 15.34375  Z " fill-rule="nonzero" fill="#000000" stroke="none" transform="matrix(1 0 0 1 944 141 )" />
  </g>
</svg>