<?xml version="1.0" encoding="utf-8"?>
<svg version="1.1" xmlns:xlink="http://www.w3.org/1999/xlink" width="18px" height="20px" xmlns="http://www.w3.org/2000/svg">
  <g transform="matrix(1 0 0 1 -531 -251 )">
    <path d="M 16.1207386363636 8.0859375  C 16.2826704545455 7.92100694444444  16.3636363636364 7.72569444444444  16.3636363636364 7.5  C 16.3636363636364 7.27430555555555  16.2826704545455 7.07899305555555  16.1207386363636 6.9140625  C 15.9588068181818 6.74913194444444  15.7670454545455 6.66666666666667  15.5454545454545 6.66666666666667  C 15.3238636363636 6.66666666666667  15.1321022727273 6.74913194444444  14.9701704545455 6.9140625  C 14.8082386363636 7.07899305555555  14.7272727272727 7.27430555555555  14.7272727272727 7.5  C 14.7272727272727 7.72569444444444  14.8082386363636 7.92100694444444  14.9701704545455 8.0859375  C 15.1321022727273 8.25086805555556  15.3238636363636 8.33333333333333  15.5454545454545 8.33333333333333  C 15.7670454545455 8.33333333333333  15.9588068181818 8.25086805555556  16.1207386363636 8.0859375  Z M 17.2840909090909 5.72916666666667  C 17.7613636363636 6.21527777777778  18 6.80555555555555  18 7.5  C 18 8.03819444444444  17.8487215909091 8.51996527777778  17.5461647727273 8.9453125  C 17.2436079545455 9.37065972222222  16.8494318181818 9.67447916666667  16.3636363636364 9.85677083333333  L 16.3636363636364 15  C 16.3636363636364 16.3802083333333  15.8032670454545 17.55859375  14.6825284090909 18.53515625  C 13.5617897727273 19.51171875  12.2130681818182 20  10.6363636363636 20  C 9.05965909090909 20  7.7109375 19.51171875  6.59019886363636 18.53515625  C 5.46946022727273 17.55859375  4.90909090909091 16.3802083333333  4.90909090909091 15  L 4.90909090909091 13.28125  C 3.51136363636364 13.1076388888889  2.34375 12.5520833333333  1.40625 11.6145833333333  C 0.46875 10.6770833333333  0 9.58333333333333  0 8.33333333333333  L 0 1.66666666666667  C 0 1.44097222222222  0.0809659090909093 1.24565972222222  0.242897727272727 1.08072916666667  C 0.404829545454546 0.915798611111109  0.596590909090909 0.833333333333333  0.818181818181818 0.833333333333333  C 0.869318181818182 0.833333333333333  0.9375 0.842013888888886  1.02272727272727 0.859375  C 1.16761363636364 0.598958333333333  1.36789772727273 0.390625  1.62357954545455 0.234375  C 1.87926136363636 0.078125  2.15625 0  2.45454545454545 0  C 2.90625 0  3.29190340909091 0.162760416666667  3.61150568181818 0.48828125  C 3.93110795454545 0.813802083333333  4.09090909090909 1.20659722222222  4.09090909090909 1.66666666666667  C 4.09090909090909 2.12673611111111  3.93110795454545 2.51953125  3.61150568181818 2.84505208333333  C 3.29190340909091 3.17057291666667  2.90625 3.33333333333333  2.45454545454545 3.33333333333333  C 2.17329545454545 3.33333333333333  1.90056818181818 3.25520833333333  1.63636363636364 3.09895833333333  L 1.63636363636364 8.33333333333333  C 1.63636363636364 9.25347222222222  2.03693181818182 10.0390625  2.83806818181818 10.6901041666667  C 3.63920454545455 11.3411458333333  4.60227272727273 11.6666666666667  5.72727272727273 11.6666666666667  C 6.85227272727273 11.6666666666667  7.81534090909091 11.3411458333333  8.61647727272727 10.6901041666667  C 9.41761363636364 10.0390625  9.81818181818182 9.25347222222222  9.81818181818182 8.33333333333333  L 9.81818181818182 3.09895833333333  C 9.55397727272727 3.25520833333333  9.28125 3.33333333333333  9 3.33333333333333  C 8.54829545454546 3.33333333333333  8.16264204545455 3.17057291666667  7.84303977272727 2.84505208333333  C 7.5234375 2.51953125  7.36363636363636 2.12673611111111  7.36363636363636 1.66666666666667  C 7.36363636363636 1.20659722222222  7.5234375 0.813802083333333  7.84303977272727 0.48828125  C 8.16264204545455 0.162760416666667  8.54829545454546 0  9 0  C 9.29829545454546 0  9.57528409090909 0.078125  9.83096590909091 0.234375  C 10.0866477272727 0.390625  10.2869318181818 0.598958333333333  10.4318181818182 0.859375  C 10.5170454545455 0.842013888888886  10.5852272727273 0.833333333333333  10.6363636363636 0.833333333333333  C 10.8579545454545 0.833333333333333  11.0497159090909 0.915798611111109  11.2116477272727 1.08072916666667  C 11.3735795454545 1.24565972222222  11.4545454545455 1.44097222222222  11.4545454545455 1.66666666666667  L 11.4545454545455 8.33333333333333  C 11.4545454545455 9.58333333333333  10.9857954545455 10.6770833333333  10.0482954545455 11.6145833333333  C 9.11079545454546 12.5520833333333  7.94318181818182 13.1076388888889  6.54545454545455 13.28125  L 6.54545454545455 15  C 6.54545454545455 15.9201388888889  6.94602272727273 16.7057291666667  7.74715909090909 17.3567708333333  C 8.54829545454546 18.0078125  9.51136363636364 18.3333333333333  10.6363636363636 18.3333333333333  C 11.7613636363636 18.3333333333333  12.7244318181818 18.0078125  13.5255681818182 17.3567708333333  C 14.3267045454545 16.7057291666667  14.7272727272727 15.9201388888889  14.7272727272727 15  L 14.7272727272727 9.85677083333333  C 14.2414772727273 9.67447916666667  13.8473011363636 9.37065972222222  13.5447443181818 8.9453125  C 13.2421875 8.51996527777778  13.0909090909091 8.03819444444444  13.0909090909091 7.5  C 13.0909090909091 6.80555555555555  13.3295454545455 6.21527777777778  13.8068181818182 5.72916666666667  C 14.2840909090909 5.24305555555555  14.8636363636364 5  15.5454545454545 5  C 16.2272727272727 5  16.8068181818182 5.24305555555555  17.2840909090909 5.72916666666667  Z " fill-rule="nonzero" fill="#000000" stroke="none" transform="matrix(1 0 0 1 531 251 )" />
  </g>
</svg>