<?xml version="1.0" encoding="utf-8"?>
<svg version="1.1" xmlns:xlink="http://www.w3.org/1999/xlink" width="19px" height="20px" xmlns="http://www.w3.org/2000/svg">
  <g transform="matrix(1 0 0 1 -813 -3653 )">
    <path d="M 0 14.1964285714286  C 0 12.1502976190476  0.908883826879271 10.4166666666667  2.72665148063781 8.99553571428571  C 2.66894457099469 8.85416666666666  2.64009111617312 8.66071428571429  2.64009111617312 8.41517857142857  C 2.64009111617312 8.26636904761905  2.67976461655277 8.08407738095238  2.75911161731207 7.86830357142857  C 2.83845861807137 7.65252976190476  2.92501898253607 7.48511904761905  3.01879271070615 7.36607142857143  C 3.01157934700076 7.20238095238095  3.03862946089598 7.00520833333333  3.0999430523918 6.77455357142857  C 3.16125664388762 6.54389880952381  3.24240698557327 6.38392857142857  3.34339407744875 6.29464285714286  C 3.34339407744875 5.26041666666667  3.67701214882308 4.18712797619047  4.34424829157175 3.07477678571429  C 5.01148443432043 1.9624255952381  5.7959377372817 1.18303571428571  6.69760820045558 0.736607142857142  C 7.70026575550494 0.245535714285714  8.86883067577828 0  10.2033029612756 0  C 11.1626803340926 0  12.1220577069096 0.204613095238098  13.0814350797267 0.613839285714286  C 13.4348899012908 0.770089285714286  13.7594912680334 0.948660714285714  14.0552391799544 1.14955357142857  C 14.3509870918755 1.35044642857143  14.6070615034169 1.55877976190476  14.8234624145786 1.77455357142857  C 15.0398633257403 1.99032738095238  15.2382308276386 2.24330357142857  15.4185649202733 2.53348214285714  C 15.5988990129081 2.82366071428571  15.7503796507213 3.09895833333333  15.873006833713 3.359375  C 15.9956340167046 3.61979166666667  16.1128511769172 3.93415178571429  16.2246583143508 4.30245535714286  C 16.3364654517844 4.67075892857143  16.4284358390281 5.00372023809524  16.500569476082 5.30133928571429  C 16.5727031131359 5.59895833333333  16.6520501138952 5.96354166666667  16.7386104783599 6.39508928571429  L 16.749430523918 6.45089285714286  C 17.1461655277145 7.06845238095238  17.3445330296128 7.62648809523809  17.3445330296128 8.125  C 17.3445330296128 8.22916666666666  17.3120728929385 8.37797619047619  17.24715261959 8.57142857142857  C 17.1822323462415 8.76488095238095  17.1497722095672 8.90625  17.1497722095672 8.99553571428571  C 17.1497722095672 9.00297619047619  17.1551822323462 9.01599702380952  17.1660022779043 9.03459821428571  C 17.1768223234624 9.05319940476191  17.1894457099468 9.07180059523809  17.2038724373576 9.09040178571429  C 17.2182991647684 9.10900297619048  17.2255125284738 9.12202380952381  17.2255125284738 9.12946428571429  C 17.7809415337889 9.97767857142857  18.2155466970387 10.7756696428571  18.5293280182232 11.5234375  C 18.8431093394077 12.2712053571429  19 13.046875  19 13.8504464285714  C 19 14.1703869047619  18.9296697038724 14.5424107142857  18.7890091116173 14.9665178571429  C 18.6483485193622 15.390625  18.4481776765376 15.6026785714286  18.1884965831435 15.6026785714286  C 18.123576309795 15.6026785714286  18.0532460136674 15.5747767857143  17.9775056947608 15.5189732142857  C 17.9017653758542 15.4631696428571  17.833238420653 15.3980654761905  17.7719248291572 15.3236607142857  C 17.7106112376614 15.249255952381  17.6420842824601 15.1525297619048  17.5663439635535 15.0334821428571  C 17.4906036446469 14.9144345238095  17.4328967350038 14.8158482142857  17.3932232346241 14.7377232142857  C 17.3535497342445 14.6595982142857  17.3048595292331 14.5628720238095  17.24715261959 14.4475446428571  C 17.1894457099468 14.3322172619048  17.1569855732726 14.2671130952381  17.1497722095672 14.2522321428571  C 17.1425588458618 14.2447916666667  17.1317388003037 14.2410714285714  17.1173120728929 14.2410714285714  L 17.0632118451025 14.2857142857143  C 16.6376233864844 15.4315476190476  16.1615413819286 16.2611607142857  15.6349658314351 16.7745535714286  C 15.7792331055429 16.9233630952381  16.0010440394837 17.0665922619048  16.3003986332574 17.2042410714286  C 16.5997532270311 17.3418898809524  16.8486142748671 17.4962797619048  17.0469817767654 17.6674107142857  C 17.2453492786636 17.8385416666667  17.3733864844343 18.0803571428571  17.4310933940775 18.3928571428571  C 17.4166666666667 18.422619047619  17.4022399392559 18.4821428571429  17.3878132118451 18.5714285714286  C 17.3733864844343 18.6607142857143  17.3481397114655 18.7276785714286  17.3120728929385 18.7723214285714  C 16.8504176157935 19.4940476190476  15.7611996962794 19.8549107142857  14.0444191343964 19.8549107142857  C 13.6621108580106 19.8549107142857  13.2635725132878 19.8214285714286  12.8488041002278 19.7544642857143  C 12.4340356871678 19.6875  12.0805808656036 19.6130952380952  11.7884396355353 19.53125  C 11.496298405467 19.4494047619048  11.1194001518603 19.3377976190476  10.6577448747153 19.1964285714286  C 10.5495444191344 19.1592261904762  10.4665907365224 19.1331845238095  10.4088838268793 19.1183035714286  C 10.3078967350038 19.0885416666667  10.1419893697798 19.0718005952381  9.91116173120729 19.0680803571429  C 9.68033409263478 19.0643601190476  9.53606681852695 19.0587797619048  9.47835990888383 19.0513392857143  C 9.18261199696279 19.3861607142857  8.72276006074412 19.6279761904762  8.09880410022779 19.7767857142857  C 7.47484813971147 19.9255952380952  6.86712224753227 20  6.27562642369021 20  C 6.02315869400152 20  5.77429764616553 19.9944196428571  5.52904328018223 19.9832589285714  C 5.28378891419894 19.9720982142857  4.94836750189825 19.9386160714286  4.52277904328018 19.8828125  C 4.09719058466211 19.8270089285714  3.73291571753986 19.750744047619  3.42995444191344 19.6540178571429  C 3.12699316628702 19.5572916666667  2.8582953682612 19.4084821428571  2.62386104783599 19.2075892857143  C 2.38942672741078 19.0066964285714  2.27220956719818 18.7686011904762  2.27220956719818 18.4933035714286  C 2.27220956719818 18.1956845238095  2.30827638572513 17.9743303571429  2.38041002277904 17.8292410714286  C 2.45254365983295 17.6841517857143  2.60041761579347 17.5037202380952  2.82403189066059 17.2879464285714  C 2.90337889141989 17.2730654761905  3.04944950645406 17.2247023809524  3.2622437357631 17.1428571428571  C 3.47503796507213 17.0610119047619  3.65356871678056 17.016369047619  3.79783599088838 17.0089285714286  C 3.82668944570995 17.0089285714286  3.87718299164768 17.0014880952381  3.94931662870159 16.9866071428571  C 3.96374335611238 16.9717261904762  3.97095671981777 16.9568452380952  3.97095671981777 16.9419642857143  L 3.94931662870159 16.9084821428571  C 3.60307517084282 16.8266369047619  3.21355353075171 16.4341517857143  2.78075170842825 15.7310267857143  C 2.34794988610478 15.0279017857143  2.08466211085801 14.4456845238095  1.99088838268793 13.984375  L 1.93678815489749 13.9508928571429  C 1.90793470007593 13.9508928571429  1.86465451784358 14.0252976190476  1.80694760820046 14.1741071428571  C 1.67710706150342 14.4791666666667  1.48054290053151 14.7563244047619  1.21725512528474 15.0055803571429  C 0.953967350037965 15.2548363095238  0.674449506454062 15.3943452380952  0.37870159453303 15.4241071428571  L 0.367881548974943 15.4241071428571  C 0.339028094153379 15.4241071428571  0.317388003037206 15.4073660714286  0.302961275626424 15.3738839285714  C 0.288534548215642 15.3404017857143  0.270501138952164 15.3199404761905  0.248861047835991 15.3125  C 0.082953682611997 14.9107142857143  0 14.5386904761905  0 14.1964285714286  Z " fill-rule="nonzero" fill="#000000" stroke="none" transform="matrix(1 0 0 1 813 3653 )" />
  </g>
</svg>