<?xml version="1.0" encoding="utf-8"?>
<svg version="1.1" xmlns:xlink="http://www.w3.org/1999/xlink" width="24px" height="15px" xmlns="http://www.w3.org/2000/svg">
  <g transform="matrix(1 0 0 1 -417 -251 )">
    <path d="M 3 0.750000000000001  L 3 9  L 23.25 9  C 23.453125 9  23.62890625 9.07421875  23.77734375 9.22265625  C 23.92578125 9.37109375  24 9.546875  24 9.75  L 24 15  L 21 15  L 21 12  L 3 12  L 3 15  L 0 15  L 0 0.750000000000001  C 0 0.546874999999999  0.07421875 0.371093749999999  0.22265625 0.222656250000001  C 0.37109375 0.0742187499999991  0.546875 0  0.75 0  L 2.25 0  C 2.453125 0  2.62890625 0.0742187499999991  2.77734375 0.222656250000001  C 2.92578125 0.371093749999999  3 0.546874999999999  3 0.750000000000001  Z M 8.87109375 7.37109375  C 9.45703125 6.78515625  9.75 6.078125  9.75 5.25  C 9.75 4.421875  9.45703125 3.71484375  8.87109375 3.12890625  C 8.28515625 2.54296875  7.578125 2.25  6.75 2.25  C 5.921875 2.25  5.21484375 2.54296875  4.62890625 3.12890625  C 4.04296875 3.71484375  3.75 4.421875  3.75 5.25  C 3.75 6.078125  4.04296875 6.78515625  4.62890625 7.37109375  C 5.21484375 7.95703125  5.921875 8.25  6.75 8.25  C 7.578125 8.25  8.28515625 7.95703125  8.87109375 7.37109375  Z M 10.5 8  L 24 8  L 24 7.5  C 24 6.2578125  23.560546875 5.197265625  22.681640625 4.318359375  C 21.802734375 3.439453125  20.7421875 3  19.5 3  L 11.25 3  C 11.046875 3  10.87109375 3.07421875  10.72265625 3.22265625  C 10.57421875 3.37109375  10.5 3.546875  10.5 3.75  L 10.5 8  Z " fill-rule="nonzero" fill="#000000" stroke="none" transform="matrix(1 0 0 1 417 251 )" />
  </g>
</svg>