<?xml version="1.0" encoding="utf-8"?>
<svg version="1.1" xmlns:xlink="http://www.w3.org/1999/xlink" width="22px" height="19px" xmlns="http://www.w3.org/2000/svg">
  <g transform="matrix(1 0 0 1 -322 -249 )">
    <path d="M 15.6037946428571 12.5553385416667  C 15.6774553571429 12.4811197916667  15.7142857142857 12.3862847222222  15.7142857142857 12.2708333333333  L 15.7142857142857 9.89583333333333  C 15.7142857142857 9.78038194444444  15.6774553571429 9.685546875  15.6037946428571 9.611328125  C 15.5301339285714 9.537109375  15.4360119047619 9.5  15.3214285714286 9.5  L 12.5714285714286 9.5  L 12.5714285714286 6.72916666666667  C 12.5714285714286 6.61371527777778  12.5345982142857 6.51888020833333  12.4609375 6.44466145833333  C 12.3872767857143 6.37044270833333  12.2931547619048 6.33333333333333  12.1785714285714 6.33333333333333  L 9.82142857142857 6.33333333333333  C 9.70684523809524 6.33333333333333  9.61272321428572 6.37044270833333  9.5390625 6.44466145833333  C 9.46540178571428 6.51888020833333  9.42857142857143 6.61371527777778  9.42857142857143 6.72916666666667  L 9.42857142857143 9.5  L 6.67857142857143 9.5  C 6.5639880952381 9.5  6.46986607142857 9.537109375  6.39620535714286 9.611328125  C 6.32254464285714 9.685546875  6.28571428571429 9.78038194444444  6.28571428571429 9.89583333333333  L 6.28571428571429 12.2708333333333  C 6.28571428571429 12.3862847222222  6.32254464285714 12.4811197916667  6.39620535714286 12.5553385416667  C 6.46986607142857 12.6295572916667  6.5639880952381 12.6666666666667  6.67857142857143 12.6666666666667  L 9.42857142857143 12.6666666666667  L 9.42857142857143 15.4375  C 9.42857142857143 15.5529513888889  9.46540178571428 15.6477864583333  9.5390625 15.7220052083333  C 9.61272321428572 15.7962239583333  9.70684523809524 15.8333333333333  9.82142857142857 15.8333333333333  L 12.1785714285714 15.8333333333333  C 12.2931547619048 15.8333333333333  12.3872767857143 15.7962239583333  12.4609375 15.7220052083333  C 12.5345982142857 15.6477864583333  12.5714285714286 15.5529513888889  12.5714285714286 15.4375  L 12.5714285714286 12.6666666666667  L 15.3214285714286 12.6666666666667  C 15.4360119047619 12.6666666666667  15.5301339285714 12.6295572916667  15.6037946428571 12.5553385416667  Z M 7.85714285714286 1.58333333333333  L 7.85714285714286 3.16666666666667  L 14.1428571428571 3.16666666666667  L 14.1428571428571 1.58333333333333  L 7.85714285714286 1.58333333333333  Z M 2.75 3.16666666666667  L 3.14285714285714 3.16666666666667  L 3.14285714285714 19  L 2.75 19  C 1.99702380952381 19  1.35044642857143 18.7278645833333  0.810267857142857 18.18359375  C 0.270089285714286 17.6393229166667  0 16.9878472222222  0 16.2291666666667  L 0 5.9375  C 0 5.17881944444444  0.270089285714286 4.52734375  0.810267857142857 3.98307291666667  C 1.35044642857143 3.43880208333333  1.99702380952381 3.16666666666667  2.75 3.16666666666667  Z M 15.7142857142857 3.16666666666667  L 17.6785714285714 3.16666666666667  L 17.6785714285714 19  L 4.32142857142857 19  L 4.32142857142857 3.16666666666667  L 6.28571428571429 3.16666666666667  L 6.28571428571429 1.1875  C 6.28571428571429 0.857638888888888  6.40029761904762 0.577256944444442  6.62946428571429 0.346354166666666  C 6.85863095238095 0.115451388888888  7.13690476190476 0  7.46428571428571 0  L 14.5357142857143 0  C 14.8630952380952 0  15.141369047619 0.115451388888888  15.3705357142857 0.346354166666666  C 15.5997023809524 0.577256944444442  15.7142857142857 0.857638888888888  15.7142857142857 1.1875  L 15.7142857142857 3.16666666666667  Z M 21.1897321428571 3.98307291666667  C 21.7299107142857 4.52734375  22 5.17881944444444  22 5.9375  L 22 16.2291666666667  C 22 16.9878472222222  21.7299107142857 17.6393229166667  21.1897321428571 18.18359375  C 20.6495535714286 18.7278645833333  20.0029761904762 19  19.25 19  L 18.8571428571429 19  L 18.8571428571429 3.16666666666667  L 19.25 3.16666666666667  C 20.0029761904762 3.16666666666667  20.6495535714286 3.43880208333333  21.1897321428571 3.98307291666667  Z " fill-rule="nonzero" fill="#000000" stroke="none" transform="matrix(1 0 0 1 322 249 )" />
  </g>
</svg>