<?xml version="1.0" encoding="utf-8"?>
<svg version="1.1" xmlns:xlink="http://www.w3.org/1999/xlink" width="94px" height="6px" preserveAspectRatio="xMinYMid meet" viewBox="128 267  94 4" xmlns="http://www.w3.org/2000/svg">
  <path d="M 137.053553390593 273.146446609407  L 132.407106781187 268.5  L 137.053553390593 263.853553390593  L 136.346446609407 263.146446609407  L 131.346446609407 268.146446609407  L 130.992893218813 268.5  L 131.346446609407 268.853553390593  L 136.346446609407 273.853553390593  L 137.053553390593 273.146446609407  Z M 216 265.5  A 3 3 0 0 0 213 268.5 A 3 3 0 0 0 216 271.5 A 3 3 0 0 0 219 268.5 A 3 3 0 0 0 216 265.5 Z M 216 266.5  A 2 2 0 0 1 218 268.5 A 2 2 0 0 1 216 270.5 A 2 2 0 0 1 214 268.5 A 2 2 0 0 1 216 266.5 Z " fill-rule="nonzero" fill="#0702f8" stroke="none" />
  <path d="M 132 268.5  L 214 268.5  " stroke-width="1" stroke="#0702f8" fill="none" />
</svg>