<?xml version="1.0" encoding="utf-8"?>
<svg version="1.1" xmlns:xlink="http://www.w3.org/1999/xlink" width="46px" height="6px" preserveAspectRatio="xMinYMid meet" viewBox="338 103  46 4" xmlns="http://www.w3.org/2000/svg">
  <path d="M 344 102.5  A 3 3 0 0 0 341 105.5 A 3 3 0 0 0 344 108.5 A 3 3 0 0 0 347 105.5 A 3 3 0 0 0 344 102.5 Z M 344 103.5  A 2 2 0 0 1 346 105.5 A 2 2 0 0 1 344 107.5 A 2 2 0 0 1 342 105.5 A 2 2 0 0 1 344 103.5 Z M 375.946446609407 100.853553390593  L 380.592893218813 105.5  L 375.946446609407 110.146446609407  L 376.653553390593 110.853553390593  L 381.653553390593 105.853553390593  L 382.007106781187 105.5  L 381.653553390593 105.146446609407  L 376.653553390593 100.146446609407  L 375.946446609407 100.853553390593  Z " fill-rule="nonzero" fill="#0702f8" stroke="none" />
  <path d="M 346 105.5  L 381 105.5  " stroke-width="1" stroke="#0702f8" fill="none" />
</svg>