<?xml version="1.0" encoding="utf-8"?>
<svg version="1.1" xmlns:xlink="http://www.w3.org/1999/xlink" width="22px" height="20px" preserveAspectRatio="xMinYMid meet" viewBox="1222 523  22 18" xmlns="http://www.w3.org/2000/svg">
  <path d="M 1233 529.5  A 3 3 0 0 0 1230 532.5 A 3 3 0 0 0 1233 535.5 A 3 3 0 0 0 1236 532.5 A 3 3 0 0 0 1233 529.5 Z M 1233 530.5  A 2 2 0 0 1 1235 532.5 A 2 2 0 0 1 1233 534.5 A 2 2 0 0 1 1231 532.5 A 2 2 0 0 1 1233 530.5 Z M 1311.94644660941 527.853553390593  L 1316.59289321881 532.5  L 1311.94644660941 537.146446609407  L 1312.65355339059 537.853553390593  L 1317.65355339059 532.853553390593  L 1318.00710678119 532.5  L 1317.65355339059 532.146446609407  L 1312.65355339059 527.146446609407  L 1311.94644660941 527.853553390593  Z " fill-rule="nonzero" fill="#0702f8" stroke="none" />
  <path d="M 1235 532.5  L 1317 532.5  " stroke-width="1" stroke="#0702f8" fill="none" />
</svg>