<?xml version="1.0" encoding="utf-8"?>
<svg version="1.1" xmlns:xlink="http://www.w3.org/1999/xlink" width="18px" height="18px" xmlns="http://www.w3.org/2000/svg">
  <g transform="matrix(1 0 0 1 -2297 -287 )">
    <path d="M 13.2421875 12.1875  C 13.390625 12.0390625  13.46484375 11.859375  13.46484375 11.6484375  C 13.46484375 11.4453125  13.390625 11.26953125  13.2421875 11.12109375  L 11.12109375 9  L 13.2421875 6.87890625  C 13.390625 6.73046875  13.46484375 6.5546875  13.46484375 6.3515625  C 13.46484375 6.140625  13.390625 5.9609375  13.2421875 5.8125  L 12.1875 4.7578125  C 12.0390625 4.609375  11.859375 4.53515625  11.6484375 4.53515625  C 11.4453125 4.53515625  11.26953125 4.609375  11.12109375 4.7578125  L 9 6.87890625  L 6.87890625 4.7578125  C 6.73046875 4.609375  6.5546875 4.53515625  6.3515625 4.53515625  C 6.140625 4.53515625  5.9609375 4.609375  5.8125 4.7578125  L 4.7578125 5.8125  C 4.609375 5.9609375  4.53515625 6.140625  4.53515625 6.3515625  C 4.53515625 6.5546875  4.609375 6.73046875  4.7578125 6.87890625  L 6.87890625 9  L 4.7578125 11.12109375  C 4.609375 11.26953125  4.53515625 11.4453125  4.53515625 11.6484375  C 4.53515625 11.859375  4.609375 12.0390625  4.7578125 12.1875  L 5.8125 13.2421875  C 5.9609375 13.390625  6.140625 13.46484375  6.3515625 13.46484375  C 6.5546875 13.46484375  6.73046875 13.390625  6.87890625 13.2421875  L 9 11.12109375  L 11.12109375 13.2421875  C 11.26953125 13.390625  11.4453125 13.46484375  11.6484375 13.46484375  C 11.859375 13.46484375  12.0390625 13.390625  12.1875 13.2421875  L 13.2421875 12.1875  Z M 16.79296875 4.482421875  C 17.59765625 5.861328125  18 7.3671875  18 9  C 18 10.6328125  17.59765625 12.138671875  16.79296875 13.517578125  C 15.98828125 14.896484375  14.896484375 15.98828125  13.517578125 16.79296875  C 12.138671875 17.59765625  10.6328125 18  9 18  C 7.3671875 18  5.861328125 17.59765625  4.482421875 16.79296875  C 3.103515625 15.98828125  2.01171875 14.896484375  1.20703125 13.517578125  C 0.40234375 12.138671875  0 10.6328125  0 9  C 0 7.3671875  0.40234375 5.861328125  1.20703125 4.482421875  C 2.01171875 3.103515625  3.103515625 2.01171875  4.482421875 1.20703125  C 5.861328125 0.402343749999998  7.3671875 0  9 0  C 10.6328125 0  12.138671875 0.402343749999998  13.517578125 1.20703125  C 14.896484375 2.01171875  15.98828125 3.103515625  16.79296875 4.482421875  Z " fill-rule="nonzero" fill="#aaaaaa" stroke="none" transform="matrix(1 0 0 1 2297 287 )" />
  </g>
</svg>