<?xml version="1.0" encoding="utf-8"?>
<svg version="1.1" xmlns:xlink="http://www.w3.org/1999/xlink" width="12px" height="12px" xmlns="http://www.w3.org/2000/svg">
  <g transform="matrix(1 0 0 1 -2802 -1656 )">
    <path d="M 5.25 10.046875  C 5.38541666666667 10.046875  5.50260416666667 9.99739583333333  5.6015625 9.8984375  L 9.1484375 6.3515625  C 9.24739583333333 6.25260416666667  9.296875 6.13541666666667  9.296875 6  C 9.296875 5.86458333333333  9.24739583333333 5.74739583333333  9.1484375 5.6484375  L 5.6015625 2.1015625  C 5.50260416666667 2.00260416666667  5.38541666666667 1.953125  5.25 1.953125  C 5.11458333333333 1.953125  4.99739583333333 2.00260416666667  4.8984375 2.1015625  L 4.1015625 2.8984375  C 4.00260416666667 2.99739583333333  3.953125 3.11458333333333  3.953125 3.25  C 3.953125 3.38541666666667  4.00260416666667 3.50260416666667  4.1015625 3.6015625  L 6.5 6  L 4.1015625 8.3984375  C 4.00260416666667 8.49739583333333  3.953125 8.61458333333333  3.953125 8.75  C 3.953125 8.88541666666667  4.00260416666667 9.00260416666667  4.1015625 9.1015625  L 4.8984375 9.8984375  C 4.99739583333333 9.99739583333333  5.11458333333333 10.046875  5.25 10.046875  Z M 11.1953125 2.98828125  C 11.7317708333333 3.90755208333333  12 4.91145833333333  12 6  C 12 7.08854166666667  11.7317708333333 8.09244791666666  11.1953125 9.01171875  C 10.6588541666667 9.93098958333333  9.93098958333333 10.6588541666667  9.01171875 11.1953125  C 8.09244791666667 11.7317708333333  7.08854166666667 12  6 12  C 4.91145833333333 12  3.90755208333333 11.7317708333333  2.98828125 11.1953125  C 2.06901041666667 10.6588541666667  1.34114583333333 9.93098958333333  0.8046875 9.01171875  C 0.268229166666667 8.09244791666666  0 7.08854166666667  0 6  C 0 4.91145833333333  0.268229166666667 3.90755208333333  0.8046875 2.98828125  C 1.34114583333333 2.06901041666667  2.06901041666667 1.34114583333333  2.98828125 0.8046875  C 3.90755208333333 0.268229166666666  4.91145833333333 0  6 0  C 7.08854166666667 0  8.09244791666667 0.268229166666666  9.01171875 0.8046875  C 9.93098958333333 1.34114583333333  10.6588541666667 2.06901041666667  11.1953125 2.98828125  Z " fill-rule="nonzero" fill="#7f7f7f" stroke="none" transform="matrix(1 0 0 1 2802 1656 )" />
  </g>
</svg>