<?xml version="1.0" encoding="utf-8"?>
<svg version="1.1" xmlns:xlink="http://www.w3.org/1999/xlink" width="12px" height="12px" xmlns="http://www.w3.org/2000/svg">
  <g transform="matrix(1 0 0 1 -1507 -329 )">
    <path d="M 7.359375 7.359375  C 7.99158653846153 6.72716346153847  8.30769230769232 5.96634615384615  8.30769230769232 5.07692307692308  C 8.30769230769232 4.1875  7.99158653846153 3.4266826923077  7.359375 2.79447115384615  C 6.72716346153847 2.16225961538462  5.96634615384615 1.84615384615385  5.07692307692308 1.84615384615385  C 4.1875 1.84615384615385  3.4266826923077 2.16225961538462  2.79447115384615 2.79447115384615  C 2.16225961538462 3.4266826923077  1.84615384615385 4.1875  1.84615384615385 5.07692307692308  C 1.84615384615385 5.96634615384615  2.16225961538462 6.72716346153847  2.79447115384615 7.359375  C 3.4266826923077 7.99158653846153  4.1875 8.30769230769232  5.07692307692308 8.30769230769232  C 5.96634615384615 8.30769230769232  6.72716346153847 7.99158653846153  7.359375 7.359375  Z M 11.7331730769231 10.4278846153846  C 11.9110576923077 10.6057692307692  12 10.8221153846154  12 11.0769230769231  C 12 11.3269230769231  11.9086538461538 11.5432692307692  11.7259615384615 11.7259615384615  C 11.5432692307692 11.9086538461538  11.3269230769231 12  11.0769230769231 12  C 10.8173076923077 12  10.6009615384615 11.9086538461538  10.4278846153846 11.7259615384615  L 7.95432692307693 9.2596153846154  C 7.09375 9.85576923076923  6.13461538461538 10.1538461538462  5.07692307692308 10.1538461538462  C 4.38942307692309 10.1538461538462  3.73197115384615 10.0204326923077  3.10456730769232 9.75360576923077  C 2.47716346153847 9.48677884615385  1.93629807692308 9.12620192307693  1.48197115384615 8.671875  C 1.02764423076923 8.21754807692307  0.667067307692321 7.67668269230768  0.400240384615396 7.04927884615385  C 0.133413461538472 6.421875  0 5.76442307692308  0 5.07692307692308  C 0 4.38942307692307  0.133413461538472 3.73197115384615  0.400240384615396 3.10456730769232  C 0.667067307692321 2.47716346153847  1.02764423076923 1.93629807692308  1.48197115384615 1.48197115384615  C 1.93629807692308 1.02764423076923  2.47716346153847 0.667067307692321  3.10456730769232 0.400240384615396  C 3.73197115384615 0.133413461538472  4.38942307692309 0  5.07692307692308 0  C 5.76442307692308 0  6.421875 0.133413461538472  7.04927884615385 0.400240384615396  C 7.67668269230768 0.667067307692321  8.21754807692307 1.02764423076923  8.671875 1.48197115384615  C 9.12620192307693 1.93629807692308  9.48677884615385 2.47716346153847  9.75360576923077 3.10456730769232  C 10.0204326923077 3.73197115384615  10.1538461538462 4.38942307692307  10.1538461538462 5.07692307692308  C 10.1538461538462 6.13461538461538  9.85576923076923 7.09375  9.2596153846154 7.95432692307693  L 11.7331730769231 10.4278846153846  Z " fill-rule="nonzero" fill="#a1a1a1" stroke="none" transform="matrix(1 0 0 1 1507 329 )" />
  </g>
</svg>