<?xml version="1.0" encoding="utf-8"?>
<svg version="1.1" xmlns:xlink="http://www.w3.org/1999/xlink" width="10px" height="201px" preserveAspectRatio="xMidYMin meet" viewBox="499 330  8 201" xmlns="http://www.w3.org/2000/svg">
  <path d="M 374 335.5  L 498 335.5  A 5 5 0 0 1 503.5 340.5 L 503.5 521  A 5 5 0 0 0 508.5 526.5 L 548 526.5  " stroke-width="1" stroke="#0702f8" fill="none" />
  <path d="M 372 332.5  A 3 3 0 0 0 369 335.5 A 3 3 0 0 0 372 338.5 A 3 3 0 0 0 375 335.5 A 3 3 0 0 0 372 332.5 Z M 372 333.5  A 2 2 0 0 1 374 335.5 A 2 2 0 0 1 372 337.5 A 2 2 0 0 1 370 335.5 A 2 2 0 0 1 372 333.5 Z " fill-rule="nonzero" fill="#0702f8" stroke="none" />
</svg>