<?xml version="1.0" encoding="utf-8"?>
<svg version="1.1" xmlns:xlink="http://www.w3.org/1999/xlink" width="54px" height="10px" preserveAspectRatio="xMinYMid meet" viewBox="975 522  54 8" xmlns="http://www.w3.org/2000/svg">
  <path d="M 722 293.5  L 845 293.5  A 5 5 0 0 1 850.5 298.5 L 850.5 345  A 5 5 0 0 0 855.5 350.5 L 975 350.5  A 5 5 0 0 1 980.5 355.5 L 980.5 521  A 5 5 0 0 0 985.5 526.5 L 1028 526.5  " stroke-width="1" stroke="#0702f8" fill="none" />
  <path d="M 720 290.5  A 3 3 0 0 0 717 293.5 A 3 3 0 0 0 720 296.5 A 3 3 0 0 0 723 293.5 A 3 3 0 0 0 720 290.5 Z M 720 291.5  A 2 2 0 0 1 722 293.5 A 2 2 0 0 1 720 295.5 A 2 2 0 0 1 718 293.5 A 2 2 0 0 1 720 291.5 Z M 1022.94644660941 521.853553390593  L 1027.59289321881 526.5  L 1022.94644660941 531.146446609407  L 1023.65355339059 531.853553390593  L 1028.65355339059 526.853553390593  L 1029.00710678119 526.5  L 1028.65355339059 526.146446609407  L 1023.65355339059 521.146446609407  L 1022.94644660941 521.853553390593  Z " fill-rule="nonzero" fill="#0702f8" stroke="none" />
</svg>