<?xml version="1.0" encoding="utf-8"?>
<svg version="1.1" xmlns:xlink="http://www.w3.org/1999/xlink" width="10px" height="11px" preserveAspectRatio="xMidYMin meet" viewBox="1476 521  8 11" xmlns="http://www.w3.org/2000/svg">
  <path d="M 1409 526.5  L 1479.5 526.5  A 0.5 0.5 0 0 1 1480.5 527 A 0.5 0.5 0 0 0 1481 527.5 L 1495 527.5  " stroke-width="1" stroke="#0702f8" fill="none" />
  <path d="M 1407 523.5  A 3 3 0 0 0 1404 526.5 A 3 3 0 0 0 1407 529.5 A 3 3 0 0 0 1410 526.5 A 3 3 0 0 0 1407 523.5 Z M 1407 524.5  A 2 2 0 0 1 1409 526.5 A 2 2 0 0 1 1407 528.5 A 2 2 0 0 1 1405 526.5 A 2 2 0 0 1 1407 524.5 Z M 1489.94644660941 522.853553390593  L 1494.59289321881 527.5  L 1489.94644660941 532.146446609407  L 1490.65355339059 532.853553390593  L 1495.65355339059 527.853553390593  L 1496.00710678119 527.5  L 1495.65355339059 527.146446609407  L 1490.65355339059 522.146446609407  L 1489.94644660941 522.853553390593  Z " fill-rule="nonzero" fill="#0702f8" stroke="none" />
</svg>