<?xml version="1.0" encoding="utf-8"?>
<svg version="1.1" xmlns:xlink="http://www.w3.org/1999/xlink" width="18px" height="18px" preserveAspectRatio="xMinYMid meet" viewBox="1865 519  18 16" xmlns="http://www.w3.org/2000/svg">
  <path d="M 1876 527.5  L 1952 527.5  A 5 5 0 0 0 1957.5 522.5 L 1957.5 404  A 5 5 0 0 1 1962.5 399.5 L 2013 399.5  " stroke-width="1" stroke="#0702f8" fill="none" />
  <path d="M 1874 524.5  A 3 3 0 0 0 1871 527.5 A 3 3 0 0 0 1874 530.5 A 3 3 0 0 0 1877 527.5 A 3 3 0 0 0 1874 524.5 Z M 1874 525.5  A 2 2 0 0 1 1876 527.5 A 2 2 0 0 1 1874 529.5 A 2 2 0 0 1 1872 527.5 A 2 2 0 0 1 1874 525.5 Z M 2007.94644660941 394.853553390593  L 2012.59289321881 399.5  L 2007.94644660941 404.146446609407  L 2008.65355339059 404.853553390593  L 2013.65355339059 399.853553390593  L 2014.00710678119 399.5  L 2013.65355339059 399.146446609407  L 2008.65355339059 394.146446609407  L 2007.94644660941 394.853553390593  Z " fill-rule="nonzero" fill="#0702f8" stroke="none" />
</svg>