<?xml version="1.0" encoding="utf-8"?>
<svg version="1.1" xmlns:xlink="http://www.w3.org/1999/xlink" width="15px" height="12px" xmlns="http://www.w3.org/2000/svg">
  <g transform="matrix(1 0 0 1 -117 -329 )">
    <path d="M 6.26717032967032 6.86931818181819  C 6.48466117216117 7.08522727272728  6.59340659340658 7.34090909090909  6.59340659340658 7.63636363636363  L 6.59340659340658 10.9090909090909  C 6.59340659340658 11.2045454545455  6.48466117216117 11.4602272727273  6.26717032967032 11.6761363636364  C 6.04967948717949 11.8920454545454  5.79212454212454 12  5.49450549450549 12  L 1.09890109890109 12  C 0.801282051282044 12  0.543727106227109 11.8920454545454  0.326236263736263 11.6761363636364  C 0.108745421245416 11.4602272727273  0 11.2045454545455  0 10.9090909090909  L 0 7.63636363636363  C 0 7.34090909090909  0.108745421245416 7.08522727272728  0.326236263736263 6.86931818181819  C 0.543727106227109 6.65340909090909  0.801282051282044 6.54545454545453  1.09890109890109 6.54545454545453  L 5.49450549450549 6.54545454545453  C 5.79212454212454 6.54545454545453  6.04967948717949 6.65340909090909  6.26717032967032 6.86931818181819  Z M 6.26717032967032 0.323863636363626  C 6.48466117216117 0.53977272727272  6.59340659340658 0.795454545454533  6.59340659340658 1.09090909090909  L 6.59340659340658 4.36363636363637  C 6.59340659340658 4.65909090909091  6.48466117216117 4.91477272727272  6.26717032967032 5.13068181818181  C 6.04967948717949 5.34659090909091  5.79212454212454 5.45454545454547  5.49450549450549 5.45454545454547  L 1.09890109890109 5.45454545454547  C 0.801282051282044 5.45454545454547  0.543727106227109 5.34659090909091  0.326236263736263 5.13068181818181  C 0.108745421245416 4.91477272727272  0 4.65909090909091  0 4.36363636363637  L 0 1.09090909090909  C 0 0.795454545454533  0.108745421245416 0.53977272727272  0.326236263736263 0.323863636363626  C 0.543727106227109 0.107954545454533  0.801282051282044 0  1.09890109890109 0  L 5.49450549450549 0  C 5.79212454212454 0  6.04967948717949 0.107954545454533  6.26717032967032 0.323863636363626  Z M 13.959478021978 6.86931818181819  C 14.1769688644689 7.08522727272728  14.2857142857143 7.34090909090909  14.2857142857143 7.63636363636363  L 14.2857142857143 10.9090909090909  C 14.2857142857143 11.2045454545455  14.1769688644689 11.4602272727273  13.959478021978 11.6761363636364  C 13.7419871794872 11.8920454545454  13.4844322344322 12  13.1868131868132 12  L 8.79120879120879 12  C 8.49358974358974 12  8.2360347985348 11.8920454545454  8.01854395604396 11.6761363636364  C 7.80105311355311 11.4602272727273  7.69230769230769 11.2045454545455  7.69230769230769 10.9090909090909  L 7.69230769230769 7.63636363636363  C 7.69230769230769 7.34090909090909  7.80105311355311 7.08522727272728  8.01854395604396 6.86931818181819  C 8.2360347985348 6.65340909090909  8.49358974358974 6.54545454545453  8.79120879120879 6.54545454545453  L 13.1868131868132 6.54545454545453  C 13.4844322344322 6.54545454545453  13.7419871794872 6.65340909090909  13.959478021978 6.86931818181819  Z M 13.959478021978 0.323863636363626  C 14.1769688644689 0.53977272727272  14.2857142857143 0.795454545454533  14.2857142857143 1.09090909090909  L 14.2857142857143 4.36363636363637  C 14.2857142857143 4.65909090909091  14.1769688644689 4.91477272727272  13.959478021978 5.13068181818181  C 13.7419871794872 5.34659090909091  13.4844322344322 5.45454545454547  13.1868131868132 5.45454545454547  L 8.79120879120879 5.45454545454547  C 8.49358974358974 5.45454545454547  8.2360347985348 5.34659090909091  8.01854395604396 5.13068181818181  C 7.80105311355311 4.91477272727272  7.69230769230769 4.65909090909091  7.69230769230769 4.36363636363637  L 7.69230769230769 1.09090909090909  C 7.69230769230769 0.795454545454533  7.80105311355311 0.53977272727272  8.01854395604396 0.323863636363626  C 8.2360347985348 0.107954545454533  8.49358974358974 0  8.79120879120879 0  L 13.1868131868132 0  C 13.4844322344322 0  13.7419871794872 0.107954545454533  13.959478021978 0.323863636363626  Z " fill-rule="nonzero" fill="#666666" stroke="none" transform="matrix(1 0 0 1 117 329 )" />
  </g>
</svg>