<?xml version="1.0" encoding="utf-8"?>
<svg version="1.1" xmlns:xlink="http://www.w3.org/1999/xlink" width="31px" height="31px" xmlns="http://www.w3.org/2000/svg">
  <g transform="matrix(1 0 0 1 -263 -1201 )">
    <path d="M 23.25 14.3899739583333  C 23.6805555555555 14.6321614583333  23.8958333333333 15.0021701388889  23.8958333333333 15.5  C 23.8958333333333 15.9978298611111  23.6805555555555 16.3678385416667  23.25 16.6100260416667  L 12.2708333333333 23.068359375  C 12.0690104166667 23.189453125  11.8537326388889 23.25  11.625 23.25  C 11.4097222222222 23.25  11.1944444444445 23.1961805555557  10.9791666666667 23.0885416666667  C 10.5486111111111 22.8328993055557  10.3333333333333 22.4561631944443  10.3333333333333 21.9583333333333  L 10.3333333333333 9.04166666666663  C 10.3333333333333 8.54383680555554  10.5486111111111 8.16710069444446  10.9791666666667 7.91145833333337  C 11.4231770833333 7.66927083333337  11.8537326388889 7.67599826388891  12.2708333333333 7.931640625  L 23.25 14.3899739583333  Z M 25.005859375 21.009765625  C 25.9880642361111 19.3279079861111  26.4791666666667 17.4913194444443  26.4791666666667 15.5  C 26.4791666666667 13.5086805555557  25.9880642361111 11.6720920138889  25.005859375 9.990234375  C 24.0236545138889 8.30837673611109  22.6916232638889 6.97634548611109  21.009765625 5.994140625  C 19.3279079861111 5.01193576388891  17.4913194444445 4.52083333333337  15.5 4.52083333333337  C 13.5086805555555 4.52083333333337  11.6720920138889 5.01193576388891  9.990234375 5.994140625  C 8.30837673611111 6.97634548611109  6.97634548611111 8.30837673611109  5.994140625 9.990234375  C 5.01193576388889 11.6720920138889  4.52083333333334 13.5086805555557  4.52083333333334 15.5  C 4.52083333333334 17.4913194444443  5.01193576388889 19.3279079861111  5.994140625 21.009765625  C 6.97634548611111 22.6916232638889  8.30837673611111 24.0236545138889  9.990234375 25.005859375  C 11.6720920138889 25.9880642361111  13.5086805555555 26.4791666666667  15.5 26.4791666666667  C 17.4913194444445 26.4791666666667  19.3279079861111 25.9880642361111  21.009765625 25.005859375  C 22.6916232638889 24.0236545138889  24.0236545138889 22.6916232638889  25.005859375 21.009765625  Z M 28.9212239583333 7.7197265625  C 30.3070746527778 10.0945095486111  31 12.6879340277778  31 15.5  C 31 18.3120659722222  30.3070746527778 20.9054904513889  28.9212239583333 23.2802734375  C 27.5353732638889 25.6550564236111  25.6550564236111 27.5353732638889  23.2802734375 28.9212239583333  C 20.9054904513889 30.3070746527778  18.3120659722222 31  15.5 31  C 12.6879340277778 31  10.0945095486111 30.3070746527778  7.7197265625 28.9212239583333  C 5.34494357638889 27.5353732638889  3.46462673611111 25.6550564236111  2.07877604166666 23.2802734375  C 0.692925347222229 20.9054904513889  0 18.3120659722222  0 15.5  C 0 12.6879340277778  0.692925347222229 10.0945095486111  2.07877604166666 7.7197265625  C 3.46462673611111 5.34494357638891  5.34494357638889 3.46462673611109  7.7197265625 2.07877604166663  C 10.0945095486111 0.692925347222172  12.6879340277778 0  15.5 0  C 18.3120659722222 0  20.9054904513889 0.692925347222172  23.2802734375 2.07877604166663  C 25.6550564236111 3.46462673611109  27.5353732638889 5.34494357638891  28.9212239583333 7.7197265625  Z " fill-rule="nonzero" fill="#999999" stroke="none" transform="matrix(1 0 0 1 263 1201 )" />
  </g>
</svg>