<?xml version="1.0" encoding="utf-8"?>
<svg version="1.1" xmlns:xlink="http://www.w3.org/1999/xlink" width="40px" height="40px" xmlns="http://www.w3.org/2000/svg">
  <g transform="matrix(1 0 0 1 -286 -390 )">
    <path d="M 30 18.5677083333333  C 30.5555555555556 18.8802083333333  30.8333333333333 19.3576388888889  30.8333333333333 20  C 30.8333333333333 20.6423611111111  30.5555555555556 21.1197916666667  30 21.4322916666667  L 15.8333333333333 29.765625  C 15.5729166666667 29.921875  15.2951388888889 30  15 30  C 14.7222222222222 30  14.4444444444444 29.9305555555556  14.1666666666667 29.7916666666667  C 13.6111111111111 29.4618055555556  13.3333333333333 28.9756944444444  14 28.3333333333333  L 14 11.6666666666667  C 13.3333333333333 11.0243055555556  13.6111111111111 10.5381944444444  14.1666666666667 10.2083333333333  C 14.7395833333333 9.89583333333334  15.2951388888889 9.90451388888889  15.8333333333333 10.234375  L 30 18.5677083333333  Z M 32.265625 27.109375  C 33.5329861111111 24.9392361111111  34.1666666666667 22.5694444444444  34.1666666666667 20  C 34.1666666666667 17.4305555555556  33.5329861111111 15.0607638888889  32.265625 12.890625  C 30.9982638888889 10.7204861111111  29.2795138888889 9.00173611111111  27.109375 7.734375  C 24.9392361111111 6.46701388888889  22.5694444444444 5.83333333333333  20 5.83333333333333  C 17.4305555555556 5.83333333333333  15.0607638888889 6.46701388888889  12.890625 7.734375  C 10.7204861111111 9.00173611111111  9.00173611111111 10.7204861111111  7.734375 12.890625  C 6.46701388888889 15.0607638888889  5.83333333333333 17.4305555555556  5.83333333333333 20  C 5.83333333333333 22.5694444444444  6.46701388888889 24.9392361111111  7.734375 27.109375  C 9.00173611111111 29.2795138888889  10.7204861111111 30.9982638888889  12.890625 32.265625  C 15.0607638888889 33.5329861111111  17.4305555555556 34.1666666666667  20 34.1666666666667  C 22.5694444444444 34.1666666666667  24.9392361111111 33.5329861111111  27.109375 32.265625  C 29.2795138888889 30.9982638888889  30.9982638888889 29.2795138888889  32.265625 27.109375  Z M 37.3177083333333 9.9609375  C 39.1059027777778 13.0251736111111  40 16.3715277777778  40 20  C 40 23.6284722222222  39.1059027777778 26.9748263888889  37.3177083333333 30.0390625  C 35.5295138888889 33.1032986111111  33.1032986111111 35.5295138888889  30.0390625 37.3177083333333  C 26.9748263888889 39.1059027777778  23.6284722222222 40  20 40  C 16.3715277777778 40  13.0251736111111 39.1059027777778  9.9609375 37.3177083333333  C 6.89670138888889 35.5295138888889  4.47048611111111 33.1032986111111  2.68229166666667 30.0390625  C 0.894097222222222 26.9748263888889  0 23.6284722222222  0 20  C 0 16.3715277777778  0.894097222222222 13.0251736111111  2.68229166666667 9.9609375  C 4.47048611111111 6.89670138888889  6.89670138888889 4.47048611111111  9.9609375 2.68229166666667  C 13.0251736111111 0.894097222222219  16.3715277777778 0  20 0  C 23.6284722222222 0  26.9748263888889 0.894097222222219  30.0390625 2.68229166666667  C 33.1032986111111 4.47048611111111  35.5295138888889 6.89670138888889  37.3177083333333 9.9609375  Z " fill-rule="nonzero" fill="#aaaaaa" stroke="none" transform="matrix(1 0 0 1 286 390 )" />
  </g>
</svg>