<?xml version="1.0" encoding="utf-8"?>
<svg version="1.1" xmlns:xlink="http://www.w3.org/1999/xlink" width="16px" height="16px" xmlns="http://www.w3.org/2000/svg">
  <g transform="matrix(1 0 0 1 -433 -482 )">
    <path d="M 9.23958333333333 4.09375  C 9.30208333333333 4.15625  9.33333333333333 4.23611111111111  9.33333333333333 4.33333333333333  L 9.33333333333333 9  C 9.33333333333333 9.09722222222222  9.30208333333333 9.17708333333333  9.23958333333333 9.23958333333333  C 9.17708333333333 9.30208333333333  9.09722222222222 9.33333333333333  9 9.33333333333333  L 5.66666666666667 9.33333333333333  C 5.56944444444445 9.33333333333333  5.48958333333333 9.30208333333333  5.42708333333333 9.23958333333333  C 5.36458333333333 9.17708333333333  5.33333333333333 9.09722222222222  5.33333333333333 9  L 5.33333333333333 8.33333333333333  C 5.33333333333333 8.23611111111111  5.36458333333333 8.15625  5.42708333333333 8.09375  C 5.48958333333333 8.03125  5.56944444444445 8  5.66666666666667 8  L 8 8  L 8 4.33333333333333  C 8 4.23611111111111  8.03125 4.15625  8.09375 4.09375  C 8.15625 4.03125  8.23611111111111 4  8.33333333333333 4  L 9 4  C 9.09722222222222 4  9.17708333333333 4.03125  9.23958333333333 4.09375  Z M 12.90625 10.84375  C 13.4131944444444 9.97569444444444  13.6666666666667 9.02777777777778  13.6666666666667 8  C 13.6666666666667 6.97222222222222  13.4131944444444 6.02430555555556  12.90625 5.15625  C 12.3993055555556 4.28819444444444  11.7118055555556 3.60069444444444  10.84375 3.09375  C 9.97569444444444 2.58680555555556  9.02777777777778 2.33333333333333  8 2.33333333333333  C 6.97222222222222 2.33333333333333  6.02430555555556 2.58680555555556  5.15625 3.09375  C 4.28819444444444 3.60069444444444  3.60069444444444 4.28819444444444  3.09375 5.15625  C 2.58680555555556 6.02430555555556  2.33333333333333 6.97222222222222  2.33333333333333 8  C 2.33333333333333 9.02777777777778  2.58680555555556 9.97569444444444  3.09375 10.84375  C 3.60069444444444 11.7118055555556  4.28819444444444 12.3993055555556  5.15625 12.90625  C 6.02430555555556 13.4131944444444  6.97222222222222 13.6666666666667  8 13.6666666666667  C 9.02777777777778 13.6666666666667  9.97569444444444 13.4131944444444  10.84375 12.90625  C 11.7118055555556 12.3993055555556  12.3993055555556 11.7118055555556  12.90625 10.84375  Z M 14.9270833333333 3.984375  C 15.6423611111111 5.21006944444444  16 6.54861111111111  16 8  C 16 9.45138888888889  15.6423611111111 10.7899305555556  14.9270833333333 12.015625  C 14.2118055555556 13.2413194444444  13.2413194444444 14.2118055555556  12.015625 14.9270833333333  C 10.7899305555556 15.6423611111111  9.45138888888889 16  8 16  C 6.54861111111111 16  5.21006944444444 15.6423611111111  3.984375 14.9270833333333  C 2.75868055555556 14.2118055555556  1.78819444444444 13.2413194444444  1.07291666666667 12.015625  C 0.357638888888889 10.7899305555556  0 9.45138888888889  0 8  C 0 6.54861111111111  0.357638888888889 5.21006944444444  1.07291666666667 3.984375  C 1.78819444444444 2.75868055555556  2.75868055555556 1.78819444444444  3.984375 1.07291666666667  C 5.21006944444444 0.357638888888888  6.54861111111111 0  8 0  C 9.45138888888889 0  10.7899305555556 0.357638888888888  12.015625 1.07291666666667  C 13.2413194444444 1.78819444444444  14.2118055555556 2.75868055555556  14.9270833333333 3.984375  Z " fill-rule="nonzero" fill="#ffffff" stroke="none" transform="matrix(1 0 0 1 433 482 )" />
  </g>
</svg>