<?xml version="1.0" encoding="utf-8"?>
<svg version="1.1" xmlns:xlink="http://www.w3.org/1999/xlink" width="6px" height="12px" xmlns="http://www.w3.org/2000/svg">
  <g transform="matrix(1 0 0 1 -455 -1511 )">
    <path d="M 5.89690721649484 5.72344689378758  C 5.96563573883162 5.80360721442886  6 5.89579158316633  6 6  C 6 6.10420841683367  5.96563573883162 6.19639278557114  5.89690721649484 6.27655310621242  L 1.09278350515464 11.8797595190381  C 1.02405498281787 11.9599198396794  0.945017182130584 12  0.855670103092783 12  C 0.766323024054983 12  0.687285223367698 11.9599198396794  0.618556701030928 11.8797595190381  L 0.103092783505155 11.2785571142285  C 0.0343642611683849 11.1983967935872  0 11.1062124248497  0 11.002004008016  C 0 10.8977955911824  0.0343642611683849 10.8056112224449  0.103092783505155 10.7254509018036  L 4.15463917525773 6  L 0.103092783505155 1.27454909819639  C 0.0343642611683849 1.19438877755511  0 1.10220440881763  0 0.997995991983968  C 0 0.893787575150299  0.0343642611683849 0.801603206412824  0.103092783505155 0.721442885771542  L 0.618556701030928 0.120240480961924  C 0.687285223367698 0.0400801603206409  0.766323024054983 0  0.855670103092783 0  C 0.945017182130584 0  1.02405498281787 0.0400801603206409  1.09278350515464 0.120240480961924  L 5.89690721649484 5.72344689378758  Z " fill-rule="nonzero" fill="#aaaaaa" stroke="none" transform="matrix(1 0 0 1 455 1511 )" />
  </g>
</svg>