<?xml version="1.0" encoding="utf-8"?>
<svg version="1.1" xmlns:xlink="http://www.w3.org/1999/xlink" width="22px" height="20px" preserveAspectRatio="xMinYMid meet" viewBox="460 581  22 18" xmlns="http://www.w3.org/2000/svg">
  <path d="M 471 587.5  A 3 3 0 0 0 468 590.5 A 3 3 0 0 0 471 593.5 A 3 3 0 0 0 474 590.5 A 3 3 0 0 0 471 587.5 Z M 471 588.5  A 2 2 0 0 1 473 590.5 A 2 2 0 0 1 471 592.5 A 2 2 0 0 1 469 590.5 A 2 2 0 0 1 471 588.5 Z " fill-rule="nonzero" fill="#0702f8" stroke="none" />
  <path d="M 473 590.5  L 556 590.5  " stroke-width="1" stroke="#0702f8" fill="none" />
</svg>