<?xml version="1.0" encoding="utf-8"?>
<svg version="1.1" xmlns:xlink="http://www.w3.org/1999/xlink" width="4px" height="2px" preserveAspectRatio="xMinYMid meet" viewBox="554 403  4 0" xmlns="http://www.w3.org/2000/svg">
  <path d="M 471 399.5  A 3 3 0 0 0 468 402.5 A 3 3 0 0 0 471 405.5 A 3 3 0 0 0 474 402.5 A 3 3 0 0 0 471 399.5 Z M 471 400.5  A 2 2 0 0 1 473 402.5 A 2 2 0 0 1 471 404.5 A 2 2 0 0 1 469 402.5 A 2 2 0 0 1 471 400.5 Z " fill-rule="nonzero" fill="#0702f8" stroke="none" />
  <path d="M 473 402.5  L 556 402.5  " stroke-width="1" stroke="#0702f8" fill="none" />
</svg>