<?xml version="1.0" encoding="utf-8"?>
<svg version="1.1" xmlns:xlink="http://www.w3.org/1999/xlink" width="22px" height="20px" preserveAspectRatio="xMinYMid meet" viewBox="120 361  22 18" xmlns="http://www.w3.org/2000/svg">
  <g transform="matrix(-1 0 0 -1 262 740 )">
    <path d="M 132 367.5  A 3 3 0 0 0 129 370.5 A 3 3 0 0 0 132 373.5 A 3 3 0 0 0 135 370.5 A 3 3 0 0 0 132 367.5 Z M 132 368.5  A 2 2 0 0 1 134 370.5 A 2 2 0 0 1 132 372.5 A 2 2 0 0 1 130 370.5 A 2 2 0 0 1 132 368.5 Z " fill-rule="nonzero" fill="#0702f8" stroke="none" />
    <path d="M 47 370.5  L 130 370.5  " stroke-width="1" stroke="#0702f8" fill="none" />
  </g>
</svg>