<?xml version="1.0" encoding="utf-8"?>
<svg version="1.1" xmlns:xlink="http://www.w3.org/1999/xlink" width="94px" height="6px" preserveAspectRatio="xMinYMid meet" viewBox="44 369  94 4" xmlns="http://www.w3.org/2000/svg">
  <path d="M 132 367.5  A 3 3 0 0 0 129 370.5 A 3 3 0 0 0 132 373.5 A 3 3 0 0 0 135 370.5 A 3 3 0 0 0 132 367.5 Z M 132 368.5  A 2 2 0 0 1 134 370.5 A 2 2 0 0 1 132 372.5 A 2 2 0 0 1 130 370.5 A 2 2 0 0 1 132 368.5 Z " fill-rule="nonzero" fill="#0702f8" stroke="none" />
  <path d="M 47 370.5  L 130 370.5  " stroke-width="1" stroke="#0702f8" fill="none" />
</svg>