<?xml version="1.0" encoding="utf-8"?>
<svg version="1.1" xmlns:xlink="http://www.w3.org/1999/xlink" width="16px" height="16px" xmlns="http://www.w3.org/2000/svg">
  <g transform="matrix(1 0 0 1 -200 -845 )">
    <path d="M 7 13.3958333333333  C 7.18055555555556 13.3958333333333  7.33680555555556 13.3298611111111  7.46875 13.1979166666667  L 12.1979166666667 8.46875  C 12.3298611111111 8.33680555555555  12.3958333333333 8.18055555555555  12.3958333333333 8  C 12.3958333333333 7.81944444444444  12.3298611111111 7.66319444444444  12.1979166666667 7.53125  L 7.46875 2.80208333333333  C 7.33680555555556 2.67013888888889  7.18055555555556 2.60416666666667  7 2.60416666666667  C 6.81944444444445 2.60416666666667  6.66319444444445 2.67013888888889  6.53125 2.80208333333333  L 5.46875 3.86458333333333  C 5.33680555555556 3.99652777777778  5.27083333333333 4.15277777777778  5.27083333333333 4.33333333333333  C 5.27083333333333 4.51388888888889  5.33680555555556 4.67013888888889  5.46875 4.80208333333333  L 8.66666666666667 8  L 5.46875 11.1979166666667  C 5.33680555555556 11.3298611111111  5.27083333333333 11.4861111111111  5.27083333333333 11.6666666666667  C 5.27083333333333 11.8472222222222  5.33680555555556 12.0034722222222  5.46875 12.1354166666667  L 6.53125 13.1979166666667  C 6.66319444444445 13.3298611111111  6.81944444444445 13.3958333333333  7 13.3958333333333  Z M 14.9270833333333 3.984375  C 15.6423611111111 5.21006944444444  16 6.54861111111111  16 8  C 16 9.45138888888889  15.6423611111111 10.7899305555556  14.9270833333333 12.015625  C 14.2118055555556 13.2413194444444  13.2413194444444 14.2118055555556  12.015625 14.9270833333333  C 10.7899305555556 15.6423611111111  9.45138888888889 16  8 16  C 6.54861111111111 16  5.21006944444444 15.6423611111111  3.984375 14.9270833333333  C 2.75868055555556 14.2118055555556  1.78819444444444 13.2413194444444  1.07291666666667 12.015625  C 0.357638888888889 10.7899305555556  0 9.45138888888889  0 8  C 0 6.54861111111111  0.357638888888889 5.21006944444444  1.07291666666667 3.984375  C 1.78819444444444 2.75868055555556  2.75868055555556 1.78819444444444  3.984375 1.07291666666667  C 5.21006944444444 0.357638888888888  6.54861111111111 0  8 0  C 9.45138888888889 0  10.7899305555556 0.357638888888888  12.015625 1.07291666666667  C 13.2413194444444 1.78819444444444  14.2118055555556 2.75868055555556  14.9270833333333 3.984375  Z " fill-rule="nonzero" fill="#555555" stroke="none" transform="matrix(1 0 0 1 200 845 )" />
  </g>
</svg>