<?xml version="1.0" encoding="utf-8"?>
<svg version="1.1" xmlns:xlink="http://www.w3.org/1999/xlink" width="48px" height="50px" xmlns="http://www.w3.org/2000/svg">
  <g transform="matrix(1 0 0 1 -281 -1486 )">
    <path d="M 12.2451923076923 37.7170138888889  C 12.9663461538462 38.4403935185185  13.3269230769231 39.3132716049383  13.3269230769231 40.3356481481482  C 13.3269230769231 41.358024691358  12.9663461538462 42.2309027777778  12.2451923076923 42.9542824074074  C 11.5240384615385 43.677662037037  10.6538461538462 44.0393518518518  9.63461538461539 44.0393518518518  C 8.63461538461539 44.0393518518518  7.76923076923077 43.6728395061728  7.03846153846154 42.9398148148148  C 6.30769230769231 42.2067901234568  5.94230769230769 41.3387345679012  5.94230769230769 40.3356481481482  C 5.94230769230769 39.3132716049383  6.30288461538461 38.4403935185185  7.02403846153846 37.7170138888889  C 7.74519230769231 36.9936342592593  8.61538461538461 36.6319444444444  9.63461538461539 36.6319444444444  C 10.6538461538462 36.6319444444444  11.5240384615385 36.9936342592593  12.2451923076923 37.7170138888889  Z M 26.6105769230769 43.677662037037  C 27.3317307692308 44.4010416666667  27.6923076923077 45.2739197530864  27.6923076923077 46.2962962962963  C 27.6923076923077 47.3186728395062  27.3317307692308 48.1915509259259  26.6105769230769 48.9149305555556  C 25.8894230769231 49.6383101851852  25.0192307692308 50  24 50  C 22.9807692307692 50  22.1105769230769 49.6383101851852  21.3894230769231 48.9149305555556  C 20.6682692307692 48.1915509259259  20.3076923076923 47.3186728395062  20.3076923076923 46.2962962962963  C 20.3076923076923 45.2739197530864  20.6682692307692 44.4010416666667  21.3894230769231 43.677662037037  C 22.1105769230769 42.9542824074074  22.9807692307692 42.5925925925926  24 42.5925925925926  C 25.0192307692308 42.5925925925926  25.8894230769231 42.9542824074074  26.6105769230769 43.677662037037  Z M 6.30288461538461 23.3072916666667  C 7.02403846153846 24.0306712962963  7.38461538461539 24.9035493827161  7.38461538461539 25.9259259259259  C 7.38461538461539 26.9483024691358  7.02403846153846 27.8211805555556  6.30288461538461 28.5445601851852  C 5.58173076923077 29.2679398148148  4.71153846153846 29.6296296296296  3.69230769230769 29.6296296296296  C 2.67307692307692 29.6296296296296  1.80288461538462 29.2679398148148  1.08173076923077 28.5445601851852  C 0.360576923076923 27.8211805555556  0 26.9483024691358  0 25.9259259259259  C 0 24.9035493827161  0.360576923076923 24.0306712962963  1.08173076923077 23.3072916666667  C 1.80288461538462 22.583912037037  2.67307692307692 22.2222222222222  3.69230769230769 22.2222222222222  C 4.71153846153846 22.2222222222222  5.58173076923077 22.583912037037  6.30288461538461 23.3072916666667  Z M 40.9759615384615 37.7170138888889  C 41.6971153846154 38.4403935185185  42.0576923076923 39.3132716049383  42.0576923076923 40.3356481481482  C 42.0576923076923 41.3387345679012  41.6923076923077 42.2067901234568  40.9615384615385 42.9398148148148  C 40.2307692307692 43.6728395061728  39.3653846153846 44.0393518518518  38.3653846153846 44.0393518518518  C 37.3461538461538 44.0393518518518  36.4759615384615 43.677662037037  35.7548076923077 42.9542824074074  C 35.0336538461538 42.2309027777778  34.6730769230769 41.358024691358  34.6730769230769 40.3356481481482  C 34.6730769230769 39.3132716049383  35.0336538461538 38.4403935185185  35.7548076923077 37.7170138888889  C 36.4759615384615 36.9936342592593  37.3461538461538 36.6319444444444  38.3653846153846 36.6319444444444  C 39.3846153846154 36.6319444444444  40.2548076923077 36.9936342592593  40.9759615384615 37.7170138888889  Z M 12.8942307692308 8.24652777777778  C 13.7980769230769 9.15316358024691  14.25 10.2430555555556  14.25 11.5162037037037  C 14.25 12.7893518518519  13.7980769230769 13.8792438271605  12.8942307692308 14.7858796296296  C 11.9903846153846 15.6925154320988  10.9038461538462 16.1458333333333  9.63461538461539 16.1458333333333  C 8.36538461538461 16.1458333333333  7.27884615384616 15.6925154320988  6.375 14.7858796296296  C 5.47115384615385 13.8792438271605  5.01923076923077 12.7893518518519  5.01923076923077 11.5162037037037  C 5.01923076923077 10.2430555555556  5.47115384615385 9.15316358024691  6.375 8.24652777777778  C 7.27884615384616 7.33989197530864  8.36538461538461 6.88657407407408  9.63461538461539 6.88657407407408  C 10.9038461538462 6.88657407407408  11.9903846153846 7.33989197530864  12.8942307692308 8.24652777777778  Z M 46.9182692307692 23.3072916666667  C 47.6394230769231 24.0306712962963  48 24.9035493827161  48 25.9259259259259  C 48 26.9483024691358  47.6394230769231 27.8211805555556  46.9182692307692 28.5445601851852  C 46.1971153846154 29.2679398148148  45.3269230769231 29.6296296296296  44.3076923076923 29.6296296296296  C 43.2884615384615 29.6296296296296  42.4182692307692 29.2679398148148  41.6971153846154 28.5445601851852  C 40.9759615384615 27.8211805555556  40.6153846153846 26.9483024691358  40.6153846153846 25.9259259259259  C 40.6153846153846 24.9035493827161  40.9759615384615 24.0306712962963  41.6971153846154 23.3072916666667  C 42.4182692307692 22.583912037037  43.2884615384615 22.2222222222222  44.3076923076923 22.2222222222222  C 45.3269230769231 22.2222222222222  46.1971153846154 22.583912037037  46.9182692307692 23.3072916666667  Z M 27.9230769230769 1.62037037037037  C 29 2.70061728395061  29.5384615384615 4.01234567901234  29.5384615384615 5.55555555555556  C 29.5384615384615 7.09876543209876  29 8.41049382716049  27.9230769230769 9.49074074074074  C 26.8461538461538 10.570987654321  25.5384615384615 11.1111111111111  24 11.1111111111111  C 22.4615384615385 11.1111111111111  21.1538461538462 10.570987654321  20.0769230769231 9.49074074074074  C 19 8.41049382716049  18.4615384615385 7.09876543209876  18.4615384615385 5.55555555555556  C 18.4615384615385 4.01234567901234  19 2.70061728395061  20.0769230769231 1.62037037037037  C 21.1538461538462 0.540123456790126  22.4615384615385 0  24 0  C 25.5384615384615 0  26.8461538461538 0.540123456790126  27.9230769230769 1.62037037037037  Z M 42.9230769230769 6.94444444444444  C 44.1923076923077 8.21759259259259  44.8269230769231 9.74151234567901  44.8269230769231 11.5162037037037  C 44.8269230769231 13.3101851851852  44.1923076923077 14.8389274691358  42.9230769230769 16.1024305555556  C 41.6538461538462 17.3659336419753  40.1346153846154 17.9976851851852  38.3653846153846 17.9976851851852  C 36.5769230769231 17.9976851851852  35.0528846153846 17.3659336419753  33.7932692307692 16.1024305555556  C 32.5336538461538 14.8389274691358  31.9038461538462 13.3101851851852  31.9038461538462 11.5162037037037  C 31.9038461538462 9.74151234567901  32.5336538461538 8.21759259259259  33.7932692307692 6.94444444444444  C 35.0528846153846 5.6712962962963  36.5769230769231 5.03472222222222  38.3653846153846 5.03472222222222  C 40.1346153846154 5.03472222222222  41.6538461538462 5.6712962962963  42.9230769230769 6.94444444444444  Z " fill-rule="nonzero" fill="#aaaaaa" stroke="none" transform="matrix(1 0 0 1 281 1486 )" />
  </g>
</svg>