<?xml version="1.0" encoding="utf-8"?>
<svg version="1.1" xmlns:xlink="http://www.w3.org/1999/xlink" width="92px" height="6px" preserveAspectRatio="xMinYMid meet" viewBox="412 1507  92 4" xmlns="http://www.w3.org/2000/svg">
  <path d="M 417 1506.5  A 3 3 0 0 0 414 1509.5 A 3 3 0 0 0 417 1512.5 A 3 3 0 0 0 420 1509.5 A 3 3 0 0 0 417 1506.5 Z M 417 1507.5  A 2 2 0 0 1 419 1509.5 A 2 2 0 0 1 417 1511.5 A 2 2 0 0 1 415 1509.5 A 2 2 0 0 1 417 1507.5 Z " fill-rule="nonzero" fill="#0702f8" stroke="none" />
  <path d="M 419 1509.5  L 502 1509.5  " stroke-width="1" stroke="#0702f8" fill="none" />
</svg>