<?xml version="1.0" encoding="utf-8"?>
<svg version="1.1" xmlns:xlink="http://www.w3.org/1999/xlink" width="4px" height="4px" preserveAspectRatio="xMinYMid meet" viewBox="500 1565  4 2" xmlns="http://www.w3.org/2000/svg">
  <path d="M 367 1562.5  A 3 3 0 0 0 364 1565.5 A 3 3 0 0 0 367 1568.5 A 3 3 0 0 0 370 1565.5 A 3 3 0 0 0 367 1562.5 Z M 367 1563.5  A 2 2 0 0 1 369 1565.5 A 2 2 0 0 1 367 1567.5 A 2 2 0 0 1 365 1565.5 A 2 2 0 0 1 367 1563.5 Z " fill-rule="nonzero" fill="#0702f8" stroke="none" />
  <path d="M 369 1565.5  L 502 1565.5  " stroke-width="1" stroke="#0702f8" fill="none" />
</svg>