<?xml version="1.0" encoding="utf-8"?>
<svg version="1.1" xmlns:xlink="http://www.w3.org/1999/xlink" width="4px" height="4px" preserveAspectRatio="xMinYMid meet" viewBox="514 3401  4 2" xmlns="http://www.w3.org/2000/svg">
  <path d="M 431 3398.5  A 3 3 0 0 0 428 3401.5 A 3 3 0 0 0 431 3404.5 A 3 3 0 0 0 434 3401.5 A 3 3 0 0 0 431 3398.5 Z M 431 3399.5  A 2 2 0 0 1 433 3401.5 A 2 2 0 0 1 431 3403.5 A 2 2 0 0 1 429 3401.5 A 2 2 0 0 1 431 3399.5 Z " fill-rule="nonzero" fill="#0702f8" stroke="none" />
  <path d="M 433 3401.5  L 516 3401.5  " stroke-width="1" stroke="#0702f8" fill="none" />
</svg>